<svg width="380" height="45" viewBox="0 0 380 45" fill="none" xmlns="http://www.w3.org/2000/svg">
<rect x="1" y="1" width="378" height="43" rx="21.5" fill="#FBFBFB" stroke="#737373" stroke-width="2"/>
<path d="M140.901 28.204C139.745 28.204 138.742 27.949 137.892 27.439C137.053 26.9177 136.401 26.198 135.937 25.28C135.483 24.3507 135.257 23.274 135.257 22.05C135.257 20.826 135.483 19.755 135.937 18.837C136.401 17.9077 137.053 17.188 137.892 16.678C138.742 16.1567 139.745 15.896 140.901 15.896C142.272 15.896 143.383 16.219 144.233 16.865C145.083 17.511 145.627 18.4233 145.865 19.602H144.284C144.102 18.8653 143.734 18.276 143.179 17.834C142.623 17.3807 141.864 17.154 140.901 17.154C140.062 17.154 139.325 17.3523 138.691 17.749C138.067 18.1343 137.58 18.6953 137.229 19.432C136.889 20.1573 136.719 21.03 136.719 22.05C136.719 23.07 136.889 23.9483 137.229 24.685C137.58 25.4103 138.067 25.9713 138.691 26.368C139.325 26.7533 140.062 26.946 140.901 26.946C141.864 26.946 142.623 26.7307 143.179 26.3C143.734 25.858 144.102 25.2743 144.284 24.549H145.865C145.627 25.6937 145.083 26.589 144.233 27.235C143.383 27.881 142.272 28.204 140.901 28.204ZM147.833 28V15.76H149.261V20.928C149.555 20.4067 149.958 20.0043 150.468 19.721C150.978 19.4263 151.544 19.279 152.168 19.279C152.825 19.279 153.392 19.4093 153.868 19.67C154.355 19.9307 154.729 20.3387 154.99 20.894C155.262 21.438 155.398 22.1237 155.398 22.951V28H153.987V23.104C153.987 22.2427 153.805 21.5967 153.443 21.166C153.08 20.724 152.553 20.503 151.862 20.503C151.374 20.503 150.932 20.622 150.536 20.86C150.15 21.0867 149.839 21.4267 149.601 21.88C149.374 22.322 149.261 22.866 149.261 23.512V28H147.833ZM160.399 28.204C159.708 28.204 159.13 28.085 158.665 27.847C158.201 27.5977 157.855 27.2747 157.628 26.878C157.402 26.4813 157.288 26.045 157.288 25.569C157.288 24.991 157.436 24.5037 157.73 24.107C158.036 23.7103 158.461 23.4043 159.005 23.189C159.561 22.9737 160.207 22.866 160.943 22.866H163.221C163.221 22.3333 163.136 21.8913 162.966 21.54C162.808 21.1887 162.57 20.928 162.252 20.758C161.935 20.5767 161.55 20.486 161.096 20.486C160.552 20.486 160.076 20.622 159.668 20.894C159.272 21.166 159.028 21.5683 158.937 22.101H157.475C157.543 21.489 157.753 20.9733 158.104 20.554C158.456 20.1347 158.898 19.8173 159.43 19.602C159.963 19.3867 160.518 19.279 161.096 19.279C161.89 19.279 162.547 19.4263 163.068 19.721C163.59 20.0043 163.981 20.4067 164.241 20.928C164.513 21.438 164.649 22.0387 164.649 22.73V28H163.374L163.289 26.487C163.176 26.725 163.029 26.9517 162.847 27.167C162.677 27.371 162.473 27.5523 162.235 27.711C162.009 27.8583 161.742 27.9773 161.436 28.068C161.13 28.1587 160.785 28.204 160.399 28.204ZM160.62 26.997C161.017 26.997 161.374 26.9177 161.691 26.759C162.02 26.589 162.298 26.3623 162.524 26.079C162.751 25.7957 162.921 25.4783 163.034 25.127C163.159 24.7643 163.221 24.396 163.221 24.022V23.971H161.062C160.518 23.971 160.076 24.039 159.736 24.175C159.396 24.311 159.153 24.4923 159.005 24.719C158.858 24.9457 158.784 25.2063 158.784 25.501C158.784 25.807 158.852 26.0733 158.988 26.3C159.136 26.5153 159.345 26.6853 159.617 26.81C159.889 26.9347 160.224 26.997 160.62 26.997ZM166.841 28V19.483H168.133L168.218 20.979C168.49 20.4463 168.876 20.0327 169.374 19.738C169.884 19.432 170.462 19.279 171.108 19.279C171.777 19.279 172.355 19.4093 172.842 19.67C173.33 19.9307 173.709 20.333 173.981 20.877C174.253 21.421 174.389 22.1067 174.389 22.934V28H172.961V23.087C172.961 22.2257 172.774 21.5797 172.4 21.149C172.026 20.7183 171.488 20.503 170.785 20.503C170.309 20.503 169.879 20.622 169.493 20.86C169.119 21.0867 168.819 21.421 168.592 21.863C168.377 22.305 168.269 22.849 168.269 23.495V28H166.841ZM179.97 31.944C179.199 31.944 178.519 31.842 177.93 31.638C177.34 31.4453 176.881 31.145 176.553 30.737C176.224 30.329 176.06 29.8247 176.06 29.224C176.06 28.9633 176.111 28.6857 176.213 28.391C176.326 28.1077 176.513 27.8243 176.774 27.541C177.046 27.2577 177.425 27.0027 177.913 26.776L178.882 27.354C178.292 27.6033 177.907 27.8867 177.726 28.204C177.544 28.5213 177.454 28.816 177.454 29.088C177.454 29.462 177.561 29.7737 177.777 30.023C177.992 30.2723 178.287 30.4593 178.661 30.584C179.046 30.7087 179.482 30.771 179.97 30.771C180.446 30.771 180.859 30.6973 181.211 30.55C181.562 30.414 181.834 30.2213 182.027 29.972C182.219 29.734 182.316 29.445 182.316 29.105C182.316 28.7197 182.168 28.391 181.874 28.119C181.59 27.8583 181.041 27.7053 180.225 27.66C179.545 27.6147 178.978 27.5523 178.525 27.473C178.083 27.3937 177.714 27.303 177.42 27.201C177.125 27.0877 176.876 26.963 176.672 26.827C176.479 26.691 176.303 26.5493 176.145 26.402V26.011L177.794 24.362L179.018 24.804L177.335 26.351L177.556 25.756C177.68 25.8467 177.799 25.9317 177.913 26.011C178.026 26.079 178.179 26.147 178.372 26.215C178.564 26.2717 178.831 26.3227 179.171 26.368C179.511 26.4133 179.97 26.4587 180.548 26.504C181.307 26.5607 181.919 26.6967 182.384 26.912C182.86 27.1273 183.2 27.4163 183.404 27.779C183.619 28.1417 183.727 28.5667 183.727 29.054C183.727 29.5413 183.591 30.0003 183.319 30.431C183.058 30.873 182.65 31.2357 182.095 31.519C181.551 31.8023 180.842 31.944 179.97 31.944ZM179.953 25.331C179.239 25.331 178.632 25.195 178.134 24.923C177.635 24.651 177.255 24.2883 176.995 23.835C176.734 23.3703 176.604 22.8603 176.604 22.305C176.604 21.7383 176.734 21.2283 176.995 20.775C177.255 20.3217 177.635 19.959 178.134 19.687C178.632 19.415 179.239 19.279 179.953 19.279C180.667 19.279 181.273 19.415 181.772 19.687C182.27 19.959 182.65 20.3217 182.911 20.775C183.171 21.2283 183.302 21.7383 183.302 22.305C183.302 22.8603 183.171 23.3703 182.911 23.835C182.65 24.2883 182.27 24.651 181.772 24.923C181.273 25.195 180.667 25.331 179.953 25.331ZM179.953 24.158C180.553 24.158 181.029 23.9993 181.381 23.682C181.743 23.3647 181.925 22.9057 181.925 22.305C181.925 21.7043 181.743 21.251 181.381 20.945C181.029 20.6277 180.553 20.469 179.953 20.469C179.352 20.469 178.865 20.6277 178.491 20.945C178.128 21.251 177.947 21.7043 177.947 22.305C177.947 22.9057 178.128 23.3647 178.491 23.682C178.865 23.9993 179.352 24.158 179.953 24.158ZM181.33 20.69L180.905 19.483H184.407V20.554L181.33 20.69ZM189.475 28.204C188.681 28.204 187.973 28.017 187.35 27.643C186.726 27.269 186.233 26.7477 185.871 26.079C185.519 25.4103 185.344 24.6283 185.344 23.733C185.344 22.8377 185.519 22.0557 185.871 21.387C186.222 20.7183 186.709 20.2027 187.333 19.84C187.967 19.466 188.693 19.279 189.509 19.279C190.347 19.279 191.061 19.466 191.651 19.84C192.24 20.2027 192.688 20.69 192.994 21.302C193.311 21.9027 193.47 22.56 193.47 23.274C193.47 23.3873 193.47 23.5063 193.47 23.631C193.47 23.7557 193.464 23.8973 193.453 24.056H186.415V22.951H192.059C192.025 22.1803 191.764 21.5797 191.277 21.149C190.801 20.707 190.2 20.486 189.475 20.486C188.999 20.486 188.551 20.5937 188.132 20.809C187.712 21.0243 187.372 21.3417 187.112 21.761C186.862 22.1803 186.738 22.7073 186.738 23.342V23.818C186.738 24.5207 186.868 25.11 187.129 25.586C187.389 26.0507 187.724 26.402 188.132 26.64C188.551 26.878 188.999 26.997 189.475 26.997C190.075 26.997 190.568 26.8667 190.954 26.606C191.35 26.334 191.639 25.9657 191.821 25.501H193.232C193.084 26.0223 192.841 26.487 192.501 26.895C192.161 27.2917 191.736 27.609 191.226 27.847C190.727 28.085 190.143 28.204 189.475 28.204ZM199.981 28V16.1H203.874C204.803 16.1 205.568 16.253 206.169 16.559C206.769 16.865 207.217 17.2843 207.512 17.817C207.806 18.3383 207.954 18.9277 207.954 19.585C207.954 20.2423 207.806 20.8317 207.512 21.353C207.228 21.8743 206.786 22.2937 206.186 22.611C205.585 22.917 204.814 23.07 203.874 23.07H201.409V28H199.981ZM201.409 21.863H203.84C204.792 21.863 205.472 21.659 205.88 21.251C206.288 20.843 206.492 20.2877 206.492 19.585C206.492 18.8597 206.288 18.2987 205.88 17.902C205.472 17.494 204.792 17.29 203.84 17.29H201.409V21.863ZM209.74 28V15.76H211.168V20.928C211.463 20.4067 211.865 20.0043 212.375 19.721C212.885 19.4263 213.452 19.279 214.075 19.279C214.732 19.279 215.299 19.4093 215.775 19.67C216.262 19.9307 216.636 20.3387 216.897 20.894C217.169 21.438 217.305 22.1237 217.305 22.951V28H215.894V23.104C215.894 22.2427 215.713 21.5967 215.35 21.166C214.987 20.724 214.46 20.503 213.769 20.503C213.282 20.503 212.84 20.622 212.443 20.86C212.058 21.0867 211.746 21.4267 211.508 21.88C211.281 22.322 211.168 22.866 211.168 23.512V28H209.74ZM223.344 28.204C222.55 28.204 221.836 28.0227 221.202 27.66C220.567 27.286 220.063 26.7647 219.689 26.096C219.326 25.4273 219.145 24.6453 219.145 23.75C219.145 22.832 219.332 22.0387 219.706 21.37C220.08 20.7013 220.584 20.1857 221.219 19.823C221.865 19.4603 222.584 19.279 223.378 19.279C224.182 19.279 224.902 19.4603 225.537 19.823C226.171 20.1857 226.67 20.7013 227.033 21.37C227.395 22.0387 227.577 22.832 227.577 23.75C227.577 24.6453 227.39 25.4273 227.016 26.096C226.653 26.7647 226.149 27.286 225.503 27.66C224.868 28.0227 224.148 28.204 223.344 28.204ZM223.344 26.98C223.842 26.98 224.301 26.861 224.721 26.623C225.14 26.3737 225.474 26.011 225.724 25.535C225.984 25.0477 226.115 24.447 226.115 23.733C226.115 23.0077 225.99 22.407 225.741 21.931C225.491 21.455 225.157 21.098 224.738 20.86C224.318 20.622 223.865 20.503 223.378 20.503C222.902 20.503 222.448 20.622 222.018 20.86C221.598 21.098 221.258 21.4607 220.998 21.948C220.737 22.424 220.607 23.019 220.607 23.733C220.607 24.447 220.737 25.0477 220.998 25.535C221.258 26.011 221.593 26.3737 222.001 26.623C222.42 26.861 222.868 26.98 223.344 26.98ZM232.613 28C232.103 28 231.661 27.9207 231.287 27.762C230.913 27.6033 230.624 27.337 230.42 26.963C230.227 26.5777 230.131 26.062 230.131 25.416V20.69H228.652V19.483H230.131L230.318 17.426H231.559V19.483H234.041V20.69H231.559V25.416C231.559 25.9487 231.666 26.3113 231.882 26.504C232.097 26.6853 232.477 26.776 233.021 26.776H233.922V28H232.613ZM239.48 28.204C238.687 28.204 237.973 28.0227 237.338 27.66C236.704 27.286 236.199 26.7647 235.825 26.096C235.463 25.4273 235.281 24.6453 235.281 23.75C235.281 22.832 235.468 22.0387 235.842 21.37C236.216 20.7013 236.721 20.1857 237.355 19.823C238.001 19.4603 238.721 19.279 239.514 19.279C240.319 19.279 241.039 19.4603 241.673 19.823C242.308 20.1857 242.807 20.7013 243.169 21.37C243.532 22.0387 243.713 22.832 243.713 23.75C243.713 24.6453 243.526 25.4273 243.152 26.096C242.79 26.7647 242.285 27.286 241.639 27.66C241.005 28.0227 240.285 28.204 239.48 28.204ZM239.48 26.98C239.979 26.98 240.438 26.861 240.857 26.623C241.277 26.3737 241.611 26.011 241.86 25.535C242.121 25.0477 242.251 24.447 242.251 23.733C242.251 23.0077 242.127 22.407 241.877 21.931C241.628 21.455 241.294 21.098 240.874 20.86C240.455 20.622 240.002 20.503 239.514 20.503C239.038 20.503 238.585 20.622 238.154 20.86C237.735 21.098 237.395 21.4607 237.134 21.948C236.874 22.424 236.743 23.019 236.743 23.733C236.743 24.447 236.874 25.0477 237.134 25.535C237.395 26.011 237.729 26.3737 238.137 26.623C238.557 26.861 239.004 26.98 239.48 26.98Z" fill="#737373"/>
</svg>
