<svg width="182" height="28" viewBox="0 0 182 28" fill="none" xmlns="http://www.w3.org/2000/svg">
<path d="M64.504 13.156C63.8453 13.156 63.2647 13.013 62.762 12.727C62.2593 12.441 61.8607 12.0423 61.566 11.531C61.28 11.0197 61.137 10.4347 61.137 9.776C61.137 9.11733 61.28 8.53233 61.566 8.021C61.8607 7.50967 62.2593 7.111 62.762 6.825C63.2647 6.539 63.8453 6.396 64.504 6.396C65.3273 6.396 66.0207 6.61267 66.584 7.046C67.1473 7.47067 67.507 8.06 67.663 8.814H65.908C65.8213 8.502 65.648 8.25933 65.388 8.086C65.1367 7.904 64.8377 7.813 64.491 7.813C64.0317 7.813 63.6417 7.98633 63.321 8.333C63.0003 8.67967 62.84 9.16067 62.84 9.776C62.84 10.3913 63.0003 10.8723 63.321 11.219C63.6417 11.5657 64.0317 11.739 64.491 11.739C64.8377 11.739 65.1367 11.6523 65.388 11.479C65.648 11.3057 65.8213 11.0587 65.908 10.738H67.663C67.507 11.466 67.1473 12.051 66.584 12.493C66.0207 12.935 65.3273 13.156 64.504 13.156ZM70.0369 5.551C69.7336 5.551 69.4823 5.46 69.2829 5.278C69.0923 5.096 68.9969 4.86633 68.9969 4.589C68.9969 4.31167 69.0923 4.08633 69.2829 3.913C69.4823 3.731 69.7336 3.64 70.0369 3.64C70.3403 3.64 70.5873 3.731 70.7779 3.913C70.9773 4.08633 71.0769 4.31167 71.0769 4.589C71.0769 4.86633 70.9773 5.096 70.7779 5.278C70.5873 5.46 70.3403 5.551 70.0369 5.551ZM69.2049 13V6.552H70.8689V13H69.2049ZM72.6057 13V6.552H74.0877L74.2437 7.761C74.4777 7.345 74.7941 7.01567 75.1927 6.773C75.6001 6.52167 76.0767 6.396 76.6227 6.396V8.151H76.1547C75.7907 8.151 75.4657 8.20733 75.1797 8.32C74.8937 8.43267 74.6684 8.62767 74.5037 8.905C74.3477 9.18233 74.2697 9.568 74.2697 10.062V13H72.6057ZM80.8048 13.156C80.1461 13.156 79.5654 13.013 79.0628 12.727C78.5601 12.441 78.1614 12.0423 77.8668 11.531C77.5808 11.0197 77.4378 10.4347 77.4378 9.776C77.4378 9.11733 77.5808 8.53233 77.8668 8.021C78.1614 7.50967 78.5601 7.111 79.0628 6.825C79.5654 6.539 80.1461 6.396 80.8048 6.396C81.6281 6.396 82.3214 6.61267 82.8848 7.046C83.4481 7.47067 83.8078 8.06 83.9638 8.814H82.2088C82.1221 8.502 81.9488 8.25933 81.6888 8.086C81.4374 7.904 81.1384 7.813 80.7918 7.813C80.3324 7.813 79.9424 7.98633 79.6218 8.333C79.3011 8.67967 79.1408 9.16067 79.1408 9.776C79.1408 10.3913 79.3011 10.8723 79.6218 11.219C79.9424 11.5657 80.3324 11.739 80.7918 11.739C81.1384 11.739 81.4374 11.6523 81.6888 11.479C81.9488 11.3057 82.1221 11.0587 82.2088 10.738H83.9638C83.8078 11.466 83.4481 12.051 82.8848 12.493C82.3214 12.935 81.6281 13.156 80.8048 13.156ZM85.4407 13V3.64H87.1047V13H85.4407ZM91.938 13.156C91.288 13.156 90.7116 13.0173 90.209 12.74C89.7063 12.4627 89.312 12.0727 89.026 11.57C88.74 11.0673 88.597 10.4867 88.597 9.828C88.597 9.16067 88.7356 8.567 89.013 8.047C89.299 7.527 89.689 7.124 90.183 6.838C90.6856 6.54333 91.275 6.396 91.951 6.396C92.5836 6.396 93.1426 6.53467 93.628 6.812C94.1133 7.08933 94.4903 7.47067 94.759 7.956C95.0363 8.43267 95.175 8.96567 95.175 9.555C95.175 9.65033 95.1706 9.75 95.162 9.854C95.162 9.958 95.1576 10.0663 95.149 10.179H90.248C90.2826 10.6817 90.456 11.076 90.768 11.362C91.0886 11.648 91.4743 11.791 91.925 11.791C92.263 11.791 92.5446 11.7173 92.77 11.57C93.004 11.414 93.1773 11.2147 93.29 10.972H94.98C94.8586 11.3793 94.655 11.752 94.369 12.09C94.0916 12.4193 93.745 12.6793 93.329 12.87C92.9216 13.0607 92.458 13.156 91.938 13.156ZM91.951 7.748C91.5436 7.748 91.184 7.865 90.872 8.099C90.56 8.32433 90.3606 8.671 90.274 9.139H93.485C93.459 8.71433 93.303 8.37633 93.017 8.125C92.731 7.87367 92.3756 7.748 91.951 7.748ZM99.2395 13.156C98.6675 13.156 98.1648 13.065 97.7315 12.883C97.2982 12.6923 96.9515 12.4323 96.6915 12.103C96.4315 11.7737 96.2755 11.3923 96.2235 10.959H97.9005C97.9525 11.2103 98.0912 11.427 98.3165 11.609C98.5505 11.7823 98.8495 11.869 99.2135 11.869C99.5775 11.869 99.8418 11.7953 100.006 11.648C100.18 11.5007 100.266 11.3317 100.266 11.141C100.266 10.8637 100.145 10.6773 99.9025 10.582C99.6598 10.478 99.3218 10.3783 98.8885 10.283C98.6112 10.2223 98.3295 10.1487 98.0435 10.062C97.7575 9.97533 97.4932 9.867 97.2505 9.737C97.0165 9.59833 96.8258 9.425 96.6785 9.217C96.5312 9.00033 96.4575 8.736 96.4575 8.424C96.4575 7.852 96.6828 7.371 97.1335 6.981C97.5928 6.591 98.2342 6.396 99.0575 6.396C99.8202 6.396 100.427 6.57367 100.877 6.929C101.337 7.28433 101.61 7.774 101.696 8.398H100.123C100.028 7.92133 99.6685 7.683 99.0445 7.683C98.7325 7.683 98.4898 7.74367 98.3165 7.865C98.1518 7.98633 98.0695 8.138 98.0695 8.32C98.0695 8.51067 98.1952 8.66233 98.4465 8.775C98.6978 8.88767 99.0315 8.99167 99.4475 9.087C99.8982 9.191 100.31 9.308 100.682 9.438C101.064 9.55933 101.367 9.74567 101.592 9.997C101.818 10.2397 101.93 10.5907 101.93 11.05C101.939 11.4487 101.835 11.8083 101.618 12.129C101.402 12.4497 101.09 12.701 100.682 12.883C100.275 13.065 99.7942 13.156 99.2395 13.156Z" fill="#0E0E0E"/>
<path d="M115 15C114.101 15 113.256 14.8293 112.465 14.4878C111.674 14.1463 110.986 13.6833 110.401 13.0987C109.816 12.5142 109.353 11.8263 109.012 11.035C108.671 10.2437 108.5 9.39873 108.5 8.5C108.5 7.60126 108.67 6.75627 109.012 5.965C109.354 5.17373 109.817 4.48582 110.401 3.90125C110.985 3.31668 111.673 2.85367 112.465 2.5122C113.257 2.17073 114.102 2 115 2C115.898 2 116.743 2.17073 117.535 2.5122C118.327 2.85367 119.015 3.31668 119.599 3.90125C120.183 4.48582 120.646 5.17373 120.988 5.965C121.331 6.75627 121.501 7.60126 121.5 8.5C121.499 9.39873 121.328 10.2437 120.988 11.035C120.648 11.8263 120.185 12.5142 119.599 13.0987C119.013 13.6833 118.325 14.1465 117.535 14.4884C116.745 14.8303 115.9 15.0009 115 15ZM115 13.7C116.452 13.7 117.681 13.1962 118.689 12.1887C119.696 11.1812 120.2 9.95166 120.2 8.5C120.2 7.04833 119.696 5.81875 118.689 4.81125C117.681 3.80375 116.452 3.3 115 3.3C113.548 3.3 112.319 3.80375 111.311 4.81125C110.304 5.81875 109.8 7.04833 109.8 8.5C109.8 9.95166 110.304 11.1812 111.311 12.1887C112.319 13.1962 113.548 13.7 115 13.7Z" fill="#0E0E0E"/>
<path d="M1 27H181" stroke="#0E0E0E" stroke-width="2" stroke-linecap="round"/>
</svg>
