<svg width="19" height="18" viewBox="0 0 19 18" fill="none" xmlns="http://www.w3.org/2000/svg">
<path fill-rule="evenodd" clip-rule="evenodd" d="M0.449268 0.439542C0.737022 0.169629 1.12725 0.0179996 1.53413 0.0179996C1.94101 0.0179996 2.33124 0.169629 2.61899 0.439542L9.20641 6.62044L15.7938 0.439542C15.9354 0.30203 16.1047 0.192346 16.2919 0.11689C16.4791 0.0414332 16.6805 0.00171558 16.8842 5.43611e-05C17.088 -0.00160686 17.29 0.0348212 17.4786 0.107214C17.6672 0.179606 17.8385 0.286513 17.9826 0.421696C18.1267 0.556879 18.2406 0.717631 18.3177 0.894573C18.3949 1.07151 18.4337 1.2611 18.432 1.45227C18.4302 1.64344 18.3879 1.83237 18.3074 2.00802C18.227 2.18368 18.1101 2.34255 17.9636 2.47536L11.3761 8.65626L17.9636 14.8372C18.2431 15.1087 18.3977 15.4724 18.3942 15.8499C18.3907 16.2274 18.2294 16.5885 17.9449 16.8554C17.6604 17.1224 17.2755 17.2738 16.8732 17.2771C16.4708 17.2804 16.0832 17.1352 15.7938 16.873L9.20641 10.6921L2.61899 16.873C2.32959 17.1352 1.94198 17.2804 1.53965 17.2771C1.13732 17.2738 0.752461 17.1224 0.46796 16.8554C0.183459 16.5885 0.0220817 16.2274 0.0185856 15.8499C0.0150894 15.4724 0.169755 15.1087 0.449268 14.8372L7.03669 8.65626L0.449268 2.47536C0.161602 2.20537 0 1.83923 0 1.45745C0 1.07568 0.161602 0.709537 0.449268 0.439542Z" fill="#0E0E0E"/>
</svg>
