<svg width="18" height="18" viewBox="0 0 18 18" fill="none" xmlns="http://www.w3.org/2000/svg">
<path d="M18 4.71566C18.0007 4.59723 17.978 4.47982 17.9332 4.37017C17.8884 4.26053 17.8224 4.1608 17.739 4.07671L13.923 0.260996C13.8389 0.177588 13.7392 0.111601 13.6295 0.0668159C13.5199 0.0220311 13.4024 -0.000669711 13.284 1.50417e-05C13.1655 -0.000669711 13.0481 0.0220311 12.9385 0.0668159C12.8288 0.111601 12.7291 0.177588 12.645 0.260996L10.098 2.80781L0.261015 12.6441C0.177601 12.7282 0.111609 12.8279 0.0668208 12.9375C0.0220328 13.0472 -0.00066976 13.1646 1.50428e-05 13.283V17.0987C1.50428e-05 17.3374 0.094836 17.5663 0.263618 17.7351C0.432401 17.9039 0.661319 17.9987 0.900014 17.9987H4.71601C4.84194 18.0055 4.96791 17.9858 5.08574 17.9409C5.20358 17.8959 5.31065 17.8267 5.40001 17.7377L15.183 7.90142L17.739 5.39961C17.8211 5.31239 17.8881 5.212 17.937 5.10263C17.9457 5.0309 17.9457 4.95838 17.937 4.88665C17.9412 4.84476 17.9412 4.80255 17.937 4.76066L18 4.71566ZM4.34701 16.1988H1.80001V13.652L10.737 4.71566L13.284 7.26247L4.34701 16.1988ZM14.553 5.99357L12.006 3.44676L13.284 2.17785L15.822 4.71566L14.553 5.99357Z" fill="#0E0E0E"/>
</svg>
