<svg width="54" height="54" viewBox="0 0 54 54" fill="none" xmlns="http://www.w3.org/2000/svg">
<rect x="0.5" y="0.5" width="53" height="53" rx="26.5" stroke="#0E0E0E"/>
<g clip-path="url(#clip0_2818_12718)">
<path d="M21.9492 25.3238C22.3001 24.2621 22.9773 23.3384 23.8843 22.6843C24.7912 22.0303 25.8815 21.6795 26.9997 21.6817C28.2672 21.6817 29.4132 22.1318 30.3132 22.8682L32.9322 20.25C31.3362 18.8587 29.2909 18 26.9997 18C23.4522 18 20.3982 20.0235 18.9297 22.9875L21.9492 25.3238Z" fill="#0E0E0E"/>
<path d="M30.03 31.5099C29.2125 32.0372 28.1745 32.3184 27 32.3184C25.8863 32.3207 24.8001 31.9726 23.8952 31.3234C22.9902 30.6743 22.3124 29.7569 21.9577 28.7012L18.9277 31.0014C19.6712 32.5061 20.8217 33.7722 22.2486 34.6558C23.6755 35.5395 25.3216 36.0052 27 36.0002C29.1997 36.0002 31.3012 35.2179 32.8755 33.7502L30.0307 31.5099H30.03Z" fill="#0E0E0E"/>
<path d="M32.8755 33.7498C34.5217 32.2138 35.5905 29.9278 35.5905 26.9998C35.5905 26.4673 35.5087 25.895 35.3865 25.3633H27V28.841H31.827C31.5893 30.0103 30.9495 30.9155 30.0308 31.5095L32.8755 33.7498Z" fill="#0E0E0E"/>
<path d="M21.9578 28.7008C21.7744 28.1525 21.6811 27.578 21.6818 26.9998C21.6818 26.4133 21.7756 25.8501 21.9496 25.3236L18.9301 22.9873C18.3124 24.2343 17.9939 25.6082 18.0001 26.9998C18.0001 28.4398 18.3338 29.7973 18.9278 31.0011L21.9578 28.7008Z" fill="#0E0E0E"/>
</g>
<defs>
<clipPath id="clip0_2818_12718">
<rect width="18" height="18" fill="white" transform="translate(18 18)"/>
</clipPath>
</defs>
</svg>
