<svg width="43" height="43" viewBox="0 0 43 43" fill="none" xmlns="http://www.w3.org/2000/svg">
<circle cx="21.07" cy="21.07" r="20.07" stroke="#0044CC" stroke-width="2"/>
<path d="M21 28C20.7167 28 20.4793 27.904 20.288 27.712C20.096 27.5207 20 27.2833 20 27V22H15C14.7167 22 14.479 21.904 14.287 21.712C14.0957 21.5207 14 21.2833 14 21C14 20.7167 14.0957 20.479 14.287 20.287C14.479 20.0957 14.7167 20 15 20H20V15C20 14.7167 20.096 14.479 20.288 14.287C20.4793 14.0957 20.7167 14 21 14C21.2833 14 21.521 14.0957 21.713 14.287C21.9043 14.479 22 14.7167 22 15V20H27C27.2833 20 27.5207 20.0957 27.712 20.287C27.904 20.479 28 20.7167 28 21C28 21.2833 27.904 21.5207 27.712 21.712C27.5207 21.904 27.2833 22 27 22H22V27C22 27.2833 21.9043 27.5207 21.713 27.712C21.521 27.904 21.2833 28 21 28Z" fill="#0044CC"/>
</svg>
