<svg width="21" height="19" viewBox="0 0 21 19" fill="none" xmlns="http://www.w3.org/2000/svg">
<path d="M10.0982 16.6157L10.0967 16.6144C7.50208 14.2616 5.42906 12.3767 3.99301 10.6198C2.56796 8.87638 1.875 7.38144 1.875 5.8252C1.875 3.28867 3.84609 1.3252 6.375 1.3252C7.8127 1.3252 9.20913 1.99965 10.1162 3.05648L10.875 3.94063L11.6338 3.05648C12.5409 1.99965 13.9373 1.3252 15.375 1.3252C17.9039 1.3252 19.875 3.28867 19.875 5.8252C19.875 7.38144 19.182 8.87638 17.757 10.6198C16.3209 12.3767 14.2479 14.2616 11.6533 16.6144L11.6518 16.6157L10.875 17.3229L10.0982 16.6157Z" stroke="white" stroke-width="2"/>
</svg>
