<svg width="16" height="19" viewBox="0 0 16 19" fill="none" xmlns="http://www.w3.org/2000/svg">
<path d="M13 6.65V4.75C13 3.49022 12.4732 2.28204 11.5355 1.39124C10.5979 0.500445 9.32608 0 8 0C6.67392 0 5.40215 0.500445 4.46447 1.39124C3.52678 2.28204 3 3.49022 3 4.75V6.65C2.20435 6.65 1.44129 6.95027 0.87868 7.48475C0.316071 8.01922 0 8.74413 0 9.5V16.15C0 16.9059 0.316071 17.6308 0.87868 18.1653C1.44129 18.6997 2.20435 19 3 19H13C13.7956 19 14.5587 18.6997 15.1213 18.1653C15.6839 17.6308 16 16.9059 16 16.15V9.5C16 8.74413 15.6839 8.01922 15.1213 7.48475C14.5587 6.95027 13.7956 6.65 13 6.65ZM5 4.75C5 3.99413 5.31607 3.26922 5.87868 2.73475C6.44129 2.20027 7.20435 1.9 8 1.9C8.79565 1.9 9.55871 2.20027 10.1213 2.73475C10.6839 3.26922 11 3.99413 11 4.75V6.65H5V4.75ZM14 16.15C14 16.402 13.8946 16.6436 13.7071 16.8218C13.5196 16.9999 13.2652 17.1 13 17.1H3C2.73478 17.1 2.48043 16.9999 2.29289 16.8218C2.10536 16.6436 2 16.402 2 16.15V9.5C2 9.24804 2.10536 9.00641 2.29289 8.82825C2.48043 8.65009 2.73478 8.55 3 8.55H13C13.2652 8.55 13.5196 8.65009 13.7071 8.82825C13.8946 9.00641 14 9.24804 14 9.5V16.15Z" fill="black"/>
</svg>
