<svg width="380" height="45" viewBox="0 0 380 45" fill="none" xmlns="http://www.w3.org/2000/svg">
<rect width="380" height="45" rx="22.5" fill="#0044CC"/>
<path d="M169.498 28V16.1H170.926V26.861H176.468V28H169.498ZM181.821 28.204C181.028 28.204 180.314 28.0227 179.679 27.66C179.044 27.286 178.54 26.7647 178.166 26.096C177.803 25.4273 177.622 24.6453 177.622 23.75C177.622 22.832 177.809 22.0387 178.183 21.37C178.557 20.7013 179.061 20.1857 179.696 19.823C180.342 19.4603 181.062 19.279 181.855 19.279C182.66 19.279 183.379 19.4603 184.014 19.823C184.649 20.1857 185.147 20.7013 185.51 21.37C185.873 22.0387 186.054 22.832 186.054 23.75C186.054 24.6453 185.867 25.4273 185.493 26.096C185.13 26.7647 184.626 27.286 183.98 27.66C183.345 28.0227 182.626 28.204 181.821 28.204ZM181.821 26.98C182.32 26.98 182.779 26.861 183.198 26.623C183.617 26.3737 183.952 26.011 184.201 25.535C184.462 25.0477 184.592 24.447 184.592 23.733C184.592 23.0077 184.467 22.407 184.218 21.931C183.969 21.455 183.634 21.098 183.215 20.86C182.796 20.622 182.342 20.503 181.855 20.503C181.379 20.503 180.926 20.622 180.495 20.86C180.076 21.098 179.736 21.4607 179.475 21.948C179.214 22.424 179.084 23.019 179.084 23.733C179.084 24.447 179.214 25.0477 179.475 25.535C179.736 26.011 180.07 26.3737 180.478 26.623C180.897 26.861 181.345 26.98 181.821 26.98ZM191.074 31.944C190.303 31.944 189.623 31.842 189.034 31.638C188.445 31.4453 187.986 31.145 187.657 30.737C187.328 30.329 187.164 29.8247 187.164 29.224C187.164 28.9633 187.215 28.6857 187.317 28.391C187.43 28.1077 187.617 27.8243 187.878 27.541C188.15 27.2577 188.53 27.0027 189.017 26.776L189.986 27.354C189.397 27.6033 189.011 27.8867 188.83 28.204C188.649 28.5213 188.558 28.816 188.558 29.088C188.558 29.462 188.666 29.7737 188.881 30.023C189.096 30.2723 189.391 30.4593 189.765 30.584C190.15 30.7087 190.587 30.771 191.074 30.771C191.55 30.771 191.964 30.6973 192.315 30.55C192.666 30.414 192.938 30.2213 193.131 29.972C193.324 29.734 193.42 29.445 193.42 29.105C193.42 28.7197 193.273 28.391 192.978 28.119C192.695 27.8583 192.145 27.7053 191.329 27.66C190.649 27.6147 190.082 27.5523 189.629 27.473C189.187 27.3937 188.819 27.303 188.524 27.201C188.229 27.0877 187.98 26.963 187.776 26.827C187.583 26.691 187.408 26.5493 187.249 26.402V26.011L188.898 24.362L190.122 24.804L188.439 26.351L188.66 25.756C188.785 25.8467 188.904 25.9317 189.017 26.011C189.13 26.079 189.283 26.147 189.476 26.215C189.669 26.2717 189.935 26.3227 190.275 26.368C190.615 26.4133 191.074 26.4587 191.652 26.504C192.411 26.5607 193.023 26.6967 193.488 26.912C193.964 27.1273 194.304 27.4163 194.508 27.779C194.723 28.1417 194.831 28.5667 194.831 29.054C194.831 29.5413 194.695 30.0003 194.423 30.431C194.162 30.873 193.754 31.2357 193.199 31.519C192.655 31.8023 191.947 31.944 191.074 31.944ZM191.057 25.331C190.343 25.331 189.737 25.195 189.238 24.923C188.739 24.651 188.36 24.2883 188.099 23.835C187.838 23.3703 187.708 22.8603 187.708 22.305C187.708 21.7383 187.838 21.2283 188.099 20.775C188.36 20.3217 188.739 19.959 189.238 19.687C189.737 19.415 190.343 19.279 191.057 19.279C191.771 19.279 192.377 19.415 192.876 19.687C193.375 19.959 193.754 20.3217 194.015 20.775C194.276 21.2283 194.406 21.7383 194.406 22.305C194.406 22.8603 194.276 23.3703 194.015 23.835C193.754 24.2883 193.375 24.651 192.876 24.923C192.377 25.195 191.771 25.331 191.057 25.331ZM191.057 24.158C191.658 24.158 192.134 23.9993 192.485 23.682C192.848 23.3647 193.029 22.9057 193.029 22.305C193.029 21.7043 192.848 21.251 192.485 20.945C192.134 20.6277 191.658 20.469 191.057 20.469C190.456 20.469 189.969 20.6277 189.595 20.945C189.232 21.251 189.051 21.7043 189.051 22.305C189.051 22.9057 189.232 23.3647 189.595 23.682C189.969 23.9993 190.456 24.158 191.057 24.158ZM192.434 20.69L192.009 19.483H195.511V20.554L192.434 20.69ZM197.29 28V19.483H198.718V28H197.29ZM198.004 17.63C197.721 17.63 197.483 17.5393 197.29 17.358C197.109 17.1653 197.018 16.9273 197.018 16.644C197.018 16.3607 197.109 16.134 197.29 15.964C197.483 15.7827 197.721 15.692 198.004 15.692C198.276 15.692 198.509 15.7827 198.701 15.964C198.894 16.134 198.99 16.3607 198.99 16.644C198.99 16.9273 198.894 17.1653 198.701 17.358C198.509 17.5393 198.276 17.63 198.004 17.63ZM201.205 28V19.483H202.497L202.582 20.979C202.854 20.4463 203.239 20.0327 203.738 19.738C204.248 19.432 204.826 19.279 205.472 19.279C206.14 19.279 206.718 19.4093 207.206 19.67C207.693 19.9307 208.073 20.333 208.345 20.877C208.617 21.421 208.753 22.1067 208.753 22.934V28H207.325V23.087C207.325 22.2257 207.138 21.5797 206.764 21.149C206.39 20.7183 205.851 20.503 205.149 20.503C204.673 20.503 204.242 20.622 203.857 20.86C203.483 21.0867 203.182 21.421 202.956 21.863C202.74 22.305 202.633 22.849 202.633 23.495V28H201.205Z" fill="#F8F4EA"/>
</svg>
