<svg width="88" height="105" viewBox="0 0 88 105" fill="none" xmlns="http://www.w3.org/2000/svg">
<path d="M4.64173 101.168C3.9604 101.168 3.35373 101.014 2.82173 100.706C2.28973 100.389 1.86973 99.9547 1.56173 99.404C1.26307 98.8533 1.11373 98.214 1.11373 97.486C1.11373 96.7487 1.26307 96.1047 1.56173 95.554C1.86973 94.994 2.28973 94.56 2.82173 94.252C3.35373 93.9347 3.9604 93.776 4.64173 93.776C5.5004 93.776 6.21907 94 6.79773 94.448C7.3764 94.896 7.74507 95.5027 7.90373 96.268H6.44773C6.3544 95.8573 6.13973 95.54 5.80373 95.316C5.47707 95.092 5.08507 94.98 4.62773 94.98C4.2544 94.98 3.90907 95.078 3.59173 95.274C3.2744 95.4607 3.01773 95.7407 2.82173 96.114C2.63507 96.478 2.54173 96.9307 2.54173 97.472C2.54173 97.8733 2.59773 98.2327 2.70973 98.55C2.82173 98.858 2.97107 99.1193 3.15773 99.334C3.35373 99.5487 3.57773 99.712 3.82973 99.824C4.08173 99.9267 4.34773 99.978 4.62773 99.978C4.93573 99.978 5.21107 99.9313 5.45373 99.838C5.70573 99.7353 5.91573 99.586 6.08373 99.39C6.26107 99.194 6.3824 98.9607 6.44773 98.69H7.90373C7.74507 99.4367 7.3764 100.039 6.79773 100.496C6.21907 100.944 5.5004 101.168 4.64173 101.168ZM9.54184 101V93.944H10.8018L10.9278 95.274C11.0865 94.9567 11.2918 94.6907 11.5438 94.476C11.7958 94.252 12.0898 94.0793 12.4258 93.958C12.7712 93.8367 13.1632 93.776 13.6018 93.776V95.26H13.0978C12.8085 95.26 12.5332 95.2973 12.2718 95.372C12.0105 95.4373 11.7772 95.554 11.5718 95.722C11.3758 95.89 11.2218 96.1187 11.1098 96.408C10.9978 96.6973 10.9418 97.0567 10.9418 97.486V101H9.54184ZM17.8745 101.168C17.2025 101.168 16.6051 101.014 16.0825 100.706C15.5598 100.398 15.1491 99.9687 14.8505 99.418C14.5611 98.8673 14.4165 98.228 14.4165 97.5C14.4165 96.7533 14.5611 96.1047 14.8505 95.554C15.1491 94.994 15.5598 94.56 16.0825 94.252C16.6051 93.9347 17.2118 93.776 17.9025 93.776C18.5931 93.776 19.1858 93.93 19.6805 94.238C20.1751 94.546 20.5578 94.9567 20.8285 95.47C21.0991 95.974 21.2345 96.534 21.2345 97.15C21.2345 97.2433 21.2298 97.346 21.2205 97.458C21.2205 97.5607 21.2158 97.6773 21.2065 97.808H15.4385V96.814H19.8345C19.8065 96.226 19.6105 95.7687 19.2465 95.442C18.8825 95.106 18.4298 94.938 17.8885 94.938C17.5058 94.938 17.1558 95.0267 16.8385 95.204C16.5211 95.372 16.2645 95.624 16.0685 95.96C15.8818 96.2867 15.7885 96.702 15.7885 97.206V97.598C15.7885 98.1207 15.8818 98.564 16.0685 98.928C16.2645 99.2827 16.5211 99.5533 16.8385 99.74C17.1558 99.9173 17.5011 100.006 17.8745 100.006C18.3225 100.006 18.6911 99.908 18.9805 99.712C19.2698 99.516 19.4845 99.25 19.6245 98.914H21.0245C20.9031 99.3433 20.6978 99.7307 20.4085 100.076C20.1191 100.412 19.7598 100.678 19.3305 100.874C18.9105 101.07 18.4251 101.168 17.8745 101.168ZM25.1279 101.168C24.5492 101.168 24.0686 101.07 23.6859 100.874C23.3032 100.678 23.0186 100.417 22.8319 100.09C22.6452 99.754 22.5519 99.3947 22.5519 99.012C22.5519 98.5453 22.6732 98.1487 22.9159 97.822C23.1586 97.486 23.5039 97.2293 23.9519 97.052C24.3999 96.8747 24.9366 96.786 25.5619 96.786H27.3959C27.3959 96.3753 27.3352 96.0347 27.2139 95.764C27.0926 95.4933 26.9106 95.2927 26.6679 95.162C26.4346 95.022 26.1359 94.952 25.7719 94.952C25.3519 94.952 24.9926 95.0547 24.6939 95.26C24.3952 95.456 24.2086 95.75 24.1339 96.142H22.7339C22.7899 95.6473 22.9579 95.2273 23.2379 94.882C23.5272 94.5273 23.8959 94.2567 24.3439 94.07C24.7919 93.874 25.2679 93.776 25.7719 93.776C26.4346 93.776 26.9899 93.8927 27.4379 94.126C27.8859 94.3593 28.2219 94.6907 28.4459 95.12C28.6792 95.54 28.7959 96.044 28.7959 96.632V101H27.5779L27.4659 99.81C27.3632 99.9967 27.2419 100.174 27.1019 100.342C26.9619 100.51 26.7939 100.655 26.5979 100.776C26.4112 100.897 26.1919 100.991 25.9399 101.056C25.6972 101.131 25.4266 101.168 25.1279 101.168ZM25.3939 100.034C25.6926 100.034 25.9632 99.9733 26.2059 99.852C26.4486 99.7307 26.6539 99.5673 26.8219 99.362C26.9992 99.1473 27.1299 98.9093 27.2139 98.648C27.3072 98.3773 27.3586 98.102 27.3679 97.822V97.78H25.7019C25.3006 97.78 24.9739 97.8313 24.7219 97.934C24.4792 98.0273 24.3019 98.158 24.1899 98.326C24.0779 98.494 24.0219 98.69 24.0219 98.914C24.0219 99.1473 24.0732 99.348 24.1759 99.516C24.2879 99.6747 24.4466 99.8007 24.6519 99.894C24.8572 99.9873 25.1046 100.034 25.3939 100.034ZM33.3445 101C32.8965 101 32.5091 100.93 32.1825 100.79C31.8558 100.65 31.6038 100.417 31.4265 100.09C31.2491 99.7633 31.1605 99.32 31.1605 98.76V95.134H29.9425V93.944H31.1605L31.3285 92.18H32.5605V93.944H34.5625V95.134H32.5605V98.774C32.5605 99.1753 32.6445 99.4507 32.8125 99.6C32.9805 99.74 33.2698 99.81 33.6805 99.81H34.4925V101H33.3445ZM39.1069 101.168C38.4349 101.168 37.8376 101.014 37.3149 100.706C36.7922 100.398 36.3816 99.9687 36.0829 99.418C35.7936 98.8673 35.6489 98.228 35.6489 97.5C35.6489 96.7533 35.7936 96.1047 36.0829 95.554C36.3816 94.994 36.7922 94.56 37.3149 94.252C37.8376 93.9347 38.4442 93.776 39.1349 93.776C39.8256 93.776 40.4182 93.93 40.9129 94.238C41.4076 94.546 41.7902 94.9567 42.0609 95.47C42.3316 95.974 42.4669 96.534 42.4669 97.15C42.4669 97.2433 42.4622 97.346 42.4529 97.458C42.4529 97.5607 42.4482 97.6773 42.4389 97.808H36.6709V96.814H41.0669C41.0389 96.226 40.8429 95.7687 40.4789 95.442C40.1149 95.106 39.6622 94.938 39.1209 94.938C38.7382 94.938 38.3882 95.0267 38.0709 95.204C37.7536 95.372 37.4969 95.624 37.3009 95.96C37.1142 96.2867 37.0209 96.702 37.0209 97.206V97.598C37.0209 98.1207 37.1142 98.564 37.3009 98.928C37.4969 99.2827 37.7536 99.5533 38.0709 99.74C38.3882 99.9173 38.7336 100.006 39.1069 100.006C39.5549 100.006 39.9236 99.908 40.2129 99.712C40.5022 99.516 40.7169 99.25 40.8569 98.914H42.2569C42.1356 99.3433 41.9302 99.7307 41.6409 100.076C41.3516 100.412 40.9922 100.678 40.5629 100.874C40.1429 101.07 39.6576 101.168 39.1069 101.168ZM49.9423 101.168C49.3637 101.168 48.883 101.07 48.5003 100.874C48.1177 100.678 47.833 100.417 47.6463 100.09C47.4597 99.754 47.3663 99.3947 47.3663 99.012C47.3663 98.5453 47.4877 98.1487 47.7303 97.822C47.973 97.486 48.3183 97.2293 48.7663 97.052C49.2143 96.8747 49.751 96.786 50.3763 96.786H52.2103C52.2103 96.3753 52.1497 96.0347 52.0283 95.764C51.907 95.4933 51.725 95.2927 51.4823 95.162C51.249 95.022 50.9503 94.952 50.5863 94.952C50.1663 94.952 49.807 95.0547 49.5083 95.26C49.2097 95.456 49.023 95.75 48.9483 96.142H47.5483C47.6043 95.6473 47.7723 95.2273 48.0523 94.882C48.3417 94.5273 48.7103 94.2567 49.1583 94.07C49.6063 93.874 50.0823 93.776 50.5863 93.776C51.249 93.776 51.8043 93.8927 52.2523 94.126C52.7003 94.3593 53.0363 94.6907 53.2603 95.12C53.4937 95.54 53.6103 96.044 53.6103 96.632V101H52.3923L52.2803 99.81C52.1777 99.9967 52.0563 100.174 51.9163 100.342C51.7763 100.51 51.6083 100.655 51.4123 100.776C51.2257 100.897 51.0063 100.991 50.7543 101.056C50.5117 101.131 50.241 101.168 49.9423 101.168ZM50.2083 100.034C50.507 100.034 50.7777 99.9733 51.0203 99.852C51.263 99.7307 51.4683 99.5673 51.6363 99.362C51.8137 99.1473 51.9443 98.9093 52.0283 98.648C52.1217 98.3773 52.173 98.102 52.1823 97.822V97.78H50.5163C50.115 97.78 49.7883 97.8313 49.5363 97.934C49.2937 98.0273 49.1163 98.158 49.0043 98.326C48.8923 98.494 48.8363 98.69 48.8363 98.914C48.8363 99.1473 48.8877 99.348 48.9903 99.516C49.1023 99.6747 49.261 99.8007 49.4663 99.894C49.6717 99.9873 49.919 100.034 50.2083 100.034ZM55.3973 101V90.92H56.7973V101H55.3973ZM62.5696 101.168C62.1869 101.168 61.8369 101.112 61.5196 101C61.2116 100.897 60.9409 100.753 60.7076 100.566C60.4742 100.379 60.2782 100.165 60.1196 99.922L59.9796 101H58.7196V90.92H60.1196V95.05C60.3436 94.6953 60.6562 94.3967 61.0576 94.154C61.4682 93.902 61.9722 93.776 62.5696 93.776C63.2416 93.776 63.8342 93.9393 64.3476 94.266C64.8609 94.5833 65.2576 95.022 65.5376 95.582C65.8269 96.1327 65.9716 96.7673 65.9716 97.486C65.9716 98.186 65.8269 98.816 65.5376 99.376C65.2576 99.936 64.8609 100.375 64.3476 100.692C63.8342 101.009 63.2416 101.168 62.5696 101.168ZM62.3456 99.95C62.7749 99.95 63.1529 99.8473 63.4796 99.642C63.8156 99.4367 64.0769 99.1473 64.2636 98.774C64.4596 98.4007 64.5576 97.9667 64.5576 97.472C64.5576 96.9773 64.4596 96.548 64.2636 96.184C64.0769 95.8107 63.8156 95.5213 63.4796 95.316C63.1529 95.1013 62.7749 94.994 62.3456 94.994C61.9069 94.994 61.5196 95.1013 61.1836 95.316C60.8569 95.5213 60.6002 95.8107 60.4136 96.184C60.2269 96.548 60.1336 96.9773 60.1336 97.472C60.1336 97.9667 60.2269 98.4007 60.4136 98.774C60.6002 99.1473 60.8569 99.4367 61.1836 99.642C61.5196 99.8473 61.9069 99.95 62.3456 99.95ZM70.1963 101.168C69.6456 101.168 69.165 101.056 68.7543 100.832C68.353 100.608 68.0403 100.272 67.8163 99.824C67.6016 99.376 67.4943 98.8113 67.4943 98.13V93.944H68.8943V97.976C68.8943 98.6387 69.039 99.138 69.3283 99.474C69.6176 99.81 70.033 99.978 70.5743 99.978C70.9383 99.978 71.265 99.8893 71.5543 99.712C71.853 99.5347 72.0863 99.278 72.2543 98.942C72.4223 98.606 72.5063 98.1953 72.5063 97.71V93.944H73.9063V101H72.6603L72.5623 99.796C72.3476 100.225 72.035 100.561 71.6243 100.804C71.2136 101.047 70.7376 101.168 70.1963 101.168ZM75.8231 101V93.944H77.0831L77.1811 94.938C77.4051 94.574 77.7038 94.2893 78.0771 94.084C78.4504 93.8787 78.8704 93.776 79.3371 93.776C79.6918 93.776 80.0138 93.8273 80.3031 93.93C80.5924 94.0233 80.8491 94.168 81.0731 94.364C81.2971 94.56 81.4791 94.8027 81.6191 95.092C81.8711 94.6813 82.2071 94.3593 82.6271 94.126C83.0564 93.8927 83.5091 93.776 83.9851 93.776C84.5544 93.776 85.0444 93.8927 85.4551 94.126C85.8658 94.35 86.1784 94.6907 86.3931 95.148C86.6078 95.596 86.7151 96.156 86.7151 96.828V101H85.3291V96.968C85.3291 96.3147 85.1938 95.82 84.9231 95.484C84.6618 95.148 84.2744 94.98 83.7611 94.98C83.4158 94.98 83.1078 95.0687 82.8371 95.246C82.5664 95.4233 82.3518 95.68 82.1931 96.016C82.0438 96.352 81.9691 96.7627 81.9691 97.248V101H80.5691V96.968C80.5691 96.3147 80.4338 95.82 80.1631 95.484C79.9018 95.148 79.5144 94.98 79.0011 94.98C78.6744 94.98 78.3758 95.0687 78.1051 95.246C77.8344 95.4233 77.6198 95.68 77.4611 96.016C77.3024 96.352 77.2231 96.7627 77.2231 97.248V101H75.8231Z" fill="#0044CC"/>
<rect x="4" width="80" height="80" rx="10" fill="#0044CC"/>
<path d="M60.9883 48.7369C60.332 53.3869 60.0039 55.7137 58.3221 57.1069C56.6403 58.5 54.1597 58.5 49.1967 58.5H38.3033C33.3422 58.5 30.8598 58.5 29.178 57.1069C27.4962 55.7137 27.1681 53.3887 26.5118 48.7369L25.7206 43.1119C24.8825 37.1794 24.4644 34.215 26.2418 32.2931C28.0193 30.375 31.1842 30.375 37.5102 30.375H49.9898C56.3159 30.375 59.4808 30.375 61.2583 32.295C62.6626 33.8119 62.6963 35.9813 62.2351 39.75" stroke="#F8F4EA" stroke-width="2.25" stroke-linecap="round"/>
<path d="M57.9283 30.375C58.029 29.8004 58.0027 29.2107 57.8513 28.6473C57.6999 28.0839 57.427 27.5605 57.0518 27.1138C56.6766 26.6671 56.2081 26.308 55.6794 26.0616C55.1506 25.8152 54.5743 25.6875 53.991 25.6875H33.5091C32.9257 25.6875 32.3495 25.8152 31.8207 26.0616C31.2919 26.308 30.8235 26.6671 30.4483 27.1138C30.0731 27.5605 29.8002 28.0839 29.6487 28.6473C29.4973 29.2107 29.471 29.8004 29.5717 30.375M54.0622 25.6875C54.1147 25.2 54.1428 24.9581 54.1428 24.7575C54.1449 23.8307 53.8036 22.9359 53.1849 22.2459C52.5662 21.5558 51.7138 21.1193 50.7923 21.0206C50.5936 21 50.3498 21 49.8623 21H37.6377C37.1502 21 36.9046 21 36.7059 21.0206C35.7843 21.1193 34.932 21.5558 34.3133 22.2459C33.6946 22.9359 33.3533 23.8307 33.3554 24.7575C33.3554 24.9581 33.3816 25.2019 33.436 25.6875" stroke="#F8F4EA" stroke-width="2.25"/>
<path d="M52.1874 41.625C53.7407 41.625 54.9998 40.3658 54.9998 38.8125C54.9998 37.2592 53.7407 36 52.1874 36C50.6342 36 49.375 37.2592 49.375 38.8125C49.375 40.3658 50.6342 41.625 52.1874 41.625Z" stroke="#F8F4EA" stroke-width="2.25"/>
<path d="M58.7495 54.7499L53.3421 50.7206C51.5984 49.4231 48.9998 49.2937 47.0798 50.4093L46.5811 50.6999C45.2461 51.4762 43.4312 51.3468 42.28 50.3924L35.0821 44.4356C33.6459 43.2468 31.3416 43.1831 29.8135 44.2893L27.3311 46.0893" stroke="#F8F4EA" stroke-width="2.25" stroke-linecap="round"/>
</svg>
