<svg width="38" height="43" viewBox="0 0 38 43" fill="none" xmlns="http://www.w3.org/2000/svg">
<path d="M19 10C21.7625 10 24 7.7625 24 5C24 2.2375 21.7625 0 19 0C16.2375 0 14 2.2375 14 5C14 7.7625 16.2375 10 19 10ZM19 12.5C15.6625 12.5 9 14.175 9 17.5V18C9 19.1046 9.89543 20 11 20H27C28.1046 20 29 19.1046 29 18V17.5C29 14.175 22.3375 12.5 19 12.5Z" fill="#3A3A3A"/>
<path d="M0.898465 42.86V33.552H1.88646L1.99047 34.618C2.19846 34.306 2.49313 34.0243 2.87447 33.773C3.26446 33.5217 3.75846 33.396 4.35646 33.396C4.9978 33.396 5.5568 33.5433 6.03347 33.838C6.51013 34.1327 6.87847 34.5357 7.13847 35.047C7.40713 35.5583 7.54147 36.139 7.54147 36.789C7.54147 37.439 7.40713 38.0197 7.13847 38.531C6.87847 39.0337 6.5058 39.4323 6.02047 39.727C5.5438 40.013 4.9848 40.156 4.34347 40.156C3.8148 40.156 3.34246 40.0477 2.92646 39.831C2.51913 39.6143 2.20713 39.311 1.99047 38.921V42.86H0.898465ZM4.22647 39.207C4.6598 39.207 5.04113 39.1073 5.37047 38.908C5.6998 38.7 5.9598 38.414 6.15047 38.05C6.34113 37.686 6.43647 37.2613 6.43647 36.776C6.43647 36.2907 6.34113 35.866 6.15047 35.502C5.9598 35.138 5.6998 34.8563 5.37047 34.657C5.04113 34.449 4.6598 34.345 4.22647 34.345C3.79313 34.345 3.4118 34.449 3.08247 34.657C2.75313 34.8563 2.49313 35.138 2.30246 35.502C2.1118 35.866 2.01646 36.2907 2.01646 36.776C2.01646 37.2613 2.1118 37.686 2.30246 38.05C2.49313 38.414 2.75313 38.7 3.08247 38.908C3.4118 39.1073 3.79313 39.207 4.22647 39.207ZM9.06155 40V33.552H10.0496L10.1406 34.787C10.3399 34.3623 10.6432 34.0243 11.0506 33.773C11.4579 33.5217 11.9606 33.396 12.5586 33.396V34.54H12.2596C11.8782 34.54 11.5272 34.6093 11.2066 34.748C10.8859 34.878 10.6302 35.1033 10.4396 35.424C10.2489 35.7447 10.1536 36.1867 10.1536 36.75V40H9.06155ZM16.481 40.156C15.8743 40.156 15.3283 40.0173 14.843 39.74C14.3577 39.4627 13.972 39.0727 13.686 38.57C13.4087 38.0587 13.27 37.4607 13.27 36.776C13.27 36.0913 13.413 35.4977 13.699 34.995C13.985 34.4837 14.3707 34.0893 14.856 33.812C15.35 33.5347 15.9003 33.396 16.507 33.396C17.1137 33.396 17.6597 33.5347 18.145 33.812C18.6303 34.0893 19.0117 34.4837 19.289 34.995C19.575 35.4977 19.718 36.0913 19.718 36.776C19.718 37.4607 19.575 38.0587 19.289 38.57C19.003 39.0727 18.613 39.4627 18.119 39.74C17.6337 40.0173 17.0877 40.156 16.481 40.156ZM16.481 39.22C16.8537 39.22 17.2003 39.129 17.521 38.947C17.8417 38.765 18.1017 38.492 18.301 38.128C18.5003 37.764 18.6 37.3133 18.6 36.776C18.6 36.2387 18.5003 35.788 18.301 35.424C18.1103 35.06 17.8547 34.787 17.534 34.605C17.2133 34.423 16.871 34.332 16.507 34.332C16.1343 34.332 15.7877 34.423 15.467 34.605C15.1463 34.787 14.8863 35.06 14.687 35.424C14.4877 35.788 14.388 36.2387 14.388 36.776C14.388 37.3133 14.4877 37.764 14.687 38.128C14.8863 38.492 15.142 38.765 15.454 38.947C15.7747 39.129 16.117 39.22 16.481 39.22ZM21.5874 40V34.475H20.6124V33.552H21.5874V32.434C21.5874 31.81 21.7434 31.355 22.0554 31.069C22.3674 30.783 22.8224 30.64 23.4204 30.64H24.0704V31.576H23.5894C23.26 31.576 23.026 31.6453 22.8874 31.784C22.7487 31.914 22.6794 32.1393 22.6794 32.46V33.552H26.6834V40H25.5914V34.475H22.6794V40H21.5874ZM26.1504 32.317C25.9424 32.317 25.7647 32.2477 25.6174 32.109C25.47 31.9617 25.3964 31.7797 25.3964 31.563C25.3964 31.355 25.47 31.1817 25.6174 31.043C25.7647 30.9043 25.9424 30.835 26.1504 30.835C26.367 30.835 26.5447 30.9043 26.6834 31.043C26.8307 31.1817 26.9044 31.355 26.9044 31.563C26.9044 31.7797 26.8307 31.9617 26.6834 32.109C26.5447 32.2477 26.367 32.317 26.1504 32.317ZM28.6123 40V30.64H29.7043V40H28.6123ZM34.3932 40.156C33.7778 40.156 33.2318 40.0173 32.7552 39.74C32.2785 39.454 31.9015 39.0597 31.6242 38.557C31.3555 38.0543 31.2212 37.4607 31.2212 36.776C31.2212 36.1 31.3555 35.5107 31.6242 35.008C31.8928 34.4967 32.2655 34.1023 32.7422 33.825C33.2275 33.539 33.7865 33.396 34.4192 33.396C35.0432 33.396 35.5805 33.539 36.0312 33.825C36.4905 34.1023 36.8415 34.4707 37.0842 34.93C37.3268 35.3893 37.4482 35.8833 37.4482 36.412C37.4482 36.5073 37.4438 36.6027 37.4352 36.698C37.4352 36.7933 37.4352 36.9017 37.4352 37.023H32.3002C32.3262 37.517 32.4388 37.9287 32.6382 38.258C32.8462 38.5787 33.1018 38.8213 33.4052 38.986C33.7172 39.1507 34.0465 39.233 34.3932 39.233C34.8438 39.233 35.2208 39.129 35.5242 38.921C35.8275 38.713 36.0485 38.4313 36.1872 38.076H37.2662C37.0928 38.674 36.7592 39.1723 36.2652 39.571C35.7798 39.961 35.1558 40.156 34.3932 40.156ZM34.3932 34.319C33.8732 34.319 33.4095 34.4793 33.0022 34.8C32.6035 35.112 32.3738 35.5713 32.3132 36.178H36.3692C36.3432 35.5973 36.1438 35.1423 35.7712 34.813C35.3985 34.4837 34.9392 34.319 34.3932 34.319Z" fill="#3A3A3A"/>
</svg>
