<svg width="30" height="31" viewBox="0 0 30 31" fill="none" xmlns="http://www.w3.org/2000/svg">
<path d="M17.5 10.5C17.5 7.7375 15.2625 5.5 12.5 5.5C9.7375 5.5 7.5 7.7375 7.5 10.5C7.5 13.2625 9.7375 15.5 12.5 15.5C15.2625 15.5 17.5 13.2625 17.5 10.5ZM2.5 23V24.25C2.5 24.9375 3.0625 25.5 3.75 25.5H21.25C21.9375 25.5 22.5 24.9375 22.5 24.25V23C22.5 19.675 15.8375 18 12.5 18C9.1625 18 2.5 19.675 2.5 23ZM22.5 13H27.5C28.1875 13 28.75 13.5625 28.75 14.25C28.75 14.9375 28.1875 15.5 27.5 15.5H22.5C21.8125 15.5 21.25 14.9375 21.25 14.25C21.25 13.5625 21.8125 13 22.5 13Z" fill="#0E0E0E"/>
</svg>
