<svg width="40" height="41" viewBox="0 0 40 41" fill="none" xmlns="http://www.w3.org/2000/svg">
<path d="M24.6173 12.9027C24.4102 12.6952 24.1292 12.5786 23.836 12.5786H23.5237C23.4382 12.5786 23.3561 12.5455 23.2946 12.4862C23.1687 12.3648 23.1601 12.1667 23.2685 12.0294C24.27 10.7612 24.8656 9.16265 24.8656 7.43282C24.8656 3.32762 21.538 0 17.4328 0C13.3276 0 10 3.32762 10 7.43282C10 11.538 13.3276 14.8656 17.4328 14.8656C19.1626 14.8656 20.7612 14.27 22.0294 13.2685C22.1667 13.1601 22.3648 13.1687 22.4862 13.2946C22.5455 13.3561 22.5786 13.4382 22.5786 13.5237V13.836C22.5786 14.1292 22.6952 14.4102 22.9027 14.6173L27.4434 19.1489C27.9145 19.6191 28.6774 19.6187 29.1481 19.1481C29.6187 18.6774 29.6191 17.9145 29.1489 17.4434L24.6173 12.9027ZM17.4328 12.5786C14.5855 12.5786 12.287 10.2802 12.287 7.43282C12.287 4.58548 14.5855 2.28702 17.4328 2.28702C20.2802 2.28702 22.5786 4.58548 22.5786 7.43282C22.5786 10.2802 20.2802 12.5786 17.4328 12.5786Z" fill="#3A3A3A"/>
<path d="M3.73223 40.156C2.9609 40.156 2.31957 39.961 1.80823 39.571C1.2969 39.181 0.997901 38.6523 0.911234 37.985H2.02923C2.09857 38.323 2.27623 38.6177 2.56223 38.869C2.8569 39.1117 3.25123 39.233 3.74523 39.233C4.20457 39.233 4.54257 39.1377 4.75923 38.947C4.9759 38.7477 5.08423 38.5137 5.08423 38.245C5.08423 37.855 4.94123 37.595 4.65523 37.465C4.3779 37.335 3.98357 37.218 3.47223 37.114C3.12557 37.0447 2.7789 36.945 2.43223 36.815C2.08557 36.685 1.79523 36.503 1.56123 36.269C1.32723 36.0263 1.21023 35.71 1.21023 35.32C1.21023 34.7567 1.41823 34.2973 1.83423 33.942C2.2589 33.578 2.8309 33.396 3.55023 33.396C4.2349 33.396 4.7939 33.5693 5.22723 33.916C5.66923 34.254 5.9249 34.7393 5.99423 35.372H4.91523C4.8719 35.0427 4.7289 34.787 4.48623 34.605C4.25223 34.4143 3.9359 34.319 3.53723 34.319C3.14723 34.319 2.8439 34.4013 2.62723 34.566C2.41923 34.7307 2.31523 34.9473 2.31523 35.216C2.31523 35.476 2.44957 35.6797 2.71823 35.827C2.99557 35.9743 3.36823 36.1 3.83623 36.204C4.2349 36.2907 4.6119 36.399 4.96723 36.529C5.33123 36.6503 5.6259 36.8367 5.85123 37.088C6.08523 37.3307 6.20223 37.686 6.20223 38.154C6.2109 38.7347 5.9899 39.2157 5.53923 39.597C5.09723 39.9697 4.4949 40.156 3.73223 40.156ZM10.6612 40.156C10.0459 40.156 9.4999 40.0173 9.02323 39.74C8.54657 39.454 8.16957 39.0597 7.89223 38.557C7.62357 38.0543 7.48923 37.4607 7.48923 36.776C7.48923 36.1 7.62357 35.5107 7.89223 35.008C8.1609 34.4967 8.53357 34.1023 9.01023 33.825C9.49557 33.539 10.0546 33.396 10.6872 33.396C11.3112 33.396 11.8486 33.539 12.2992 33.825C12.7586 34.1023 13.1096 34.4707 13.3522 34.93C13.5949 35.3893 13.7162 35.8833 13.7162 36.412C13.7162 36.5073 13.7119 36.6027 13.7032 36.698C13.7032 36.7933 13.7032 36.9017 13.7032 37.023H8.56823C8.59423 37.517 8.7069 37.9287 8.90623 38.258C9.11423 38.5787 9.3699 38.8213 9.67323 38.986C9.98523 39.1507 10.3146 39.233 10.6612 39.233C11.1119 39.233 11.4889 39.129 11.7922 38.921C12.0956 38.713 12.3166 38.4313 12.4552 38.076H13.5342C13.3609 38.674 13.0272 39.1723 12.5332 39.571C12.0479 39.961 11.4239 40.156 10.6612 40.156ZM10.6612 34.319C10.1412 34.319 9.67757 34.4793 9.27023 34.8C8.87157 35.112 8.6419 35.5713 8.58123 36.178H12.6372C12.6112 35.5973 12.4119 35.1423 12.0392 34.813C11.6666 34.4837 11.2072 34.319 10.6612 34.319ZM17.3086 40.156C16.7713 40.156 16.3249 40.065 15.9696 39.883C15.6143 39.701 15.3499 39.4583 15.1766 39.155C15.0033 38.8517 14.9166 38.5223 14.9166 38.167C14.9166 37.5083 15.1679 37.0013 15.6706 36.646C16.1733 36.2907 16.8579 36.113 17.7246 36.113H19.4666V36.035C19.4666 35.4717 19.3193 35.047 19.0246 34.761C18.7299 34.4663 18.3356 34.319 17.8416 34.319C17.4169 34.319 17.0486 34.4273 16.7366 34.644C16.4333 34.852 16.2426 35.1597 16.1646 35.567H15.0466C15.0899 35.099 15.2459 34.7047 15.5146 34.384C15.7919 34.0633 16.1343 33.8207 16.5416 33.656C16.9489 33.4827 17.3823 33.396 17.8416 33.396C18.7429 33.396 19.4189 33.6387 19.8696 34.124C20.3289 34.6007 20.5586 35.2377 20.5586 36.035V40H19.5836L19.5186 38.843C19.3366 39.207 19.0679 39.519 18.7126 39.779C18.3659 40.0303 17.8979 40.156 17.3086 40.156ZM17.4776 39.233C17.8936 39.233 18.2489 39.1247 18.5436 38.908C18.8469 38.6913 19.0766 38.4097 19.2326 38.063C19.3886 37.7163 19.4666 37.3523 19.4666 36.971V36.958H17.8156C17.1743 36.958 16.7193 37.0707 16.4506 37.296C16.1906 37.5127 16.0606 37.7857 16.0606 38.115C16.0606 38.453 16.1819 38.726 16.4246 38.934C16.6759 39.1333 17.0269 39.233 17.4776 39.233ZM22.1968 40V33.552H23.1848L23.2758 34.787C23.4751 34.3623 23.7785 34.0243 24.1858 33.773C24.5931 33.5217 25.0958 33.396 25.6938 33.396V34.54H25.3948C25.0135 34.54 24.6625 34.6093 24.3418 34.748C24.0211 34.878 23.7655 35.1033 23.5748 35.424C23.3841 35.7447 23.2888 36.1867 23.2888 36.75V40H22.1968ZM29.6423 40.156C29.0269 40.156 28.4723 40.0173 27.9783 39.74C27.4929 39.454 27.1073 39.0597 26.8213 38.557C26.5439 38.0457 26.4053 37.452 26.4053 36.776C26.4053 36.1 26.5439 35.5107 26.8213 35.008C27.1073 34.4967 27.4929 34.1023 27.9783 33.825C28.4723 33.539 29.0269 33.396 29.6423 33.396C30.4049 33.396 31.0463 33.5953 31.5663 33.994C32.0949 34.3927 32.4286 34.9257 32.5673 35.593H31.4493C31.3626 35.1943 31.1503 34.8867 30.8123 34.67C30.4743 34.4447 30.0799 34.332 29.6293 34.332C29.2653 34.332 28.9229 34.423 28.6023 34.605C28.2816 34.787 28.0216 35.06 27.8223 35.424C27.6229 35.788 27.5233 36.2387 27.5233 36.776C27.5233 37.3133 27.6229 37.764 27.8223 38.128C28.0216 38.492 28.2816 38.7693 28.6023 38.96C28.9229 39.142 29.2653 39.233 29.6293 39.233C30.0799 39.233 30.4743 39.1247 30.8123 38.908C31.1503 38.6827 31.3626 38.3663 31.4493 37.959H32.5673C32.4373 38.609 32.1079 39.1377 31.5793 39.545C31.0506 39.9523 30.4049 40.156 29.6423 40.156ZM34.0923 40V30.64H35.1843V34.657C35.401 34.2583 35.7086 33.9507 36.1073 33.734C36.506 33.5087 36.9393 33.396 37.4073 33.396C38.1526 33.396 38.7506 33.63 39.2013 34.098C39.652 34.5573 39.8773 35.268 39.8773 36.23V40H38.7983V36.347C38.7983 35.0037 38.2566 34.332 37.1733 34.332C36.61 34.332 36.1376 34.5357 35.7563 34.943C35.375 35.3417 35.1843 35.9137 35.1843 36.659V40H34.0923Z" fill="#3A3A3A"/>
</svg>
