<svg width="109" height="20" viewBox="0 0 109 20" fill="none" xmlns="http://www.w3.org/2000/svg">
<g clip-path="url(#clip0_3003_7603)">
<g filter="url(#filter0_i_3003_7603)">
<rect x="71.3631" y="0.363095" width="37.0357" height="18.6389" rx="9.31944" stroke="#0E0E0E" stroke-width="0.72619"/>
</g>
<path d="M88.4286 9.68256C88.4286 13.9606 84.9606 17.4286 80.6826 17.4286C76.4045 17.4286 72.9365 13.9606 72.9365 9.68256C72.9365 5.40455 76.4045 1.93653 80.6826 1.93653C84.9606 1.93653 88.4286 5.40455 88.4286 9.68256Z" fill="black"/>
</g>
<path d="M13 6.65V4.75C13 3.49022 12.4732 2.28204 11.5355 1.39124C10.5979 0.500445 9.32608 0 8 0C6.67392 0 5.40215 0.500445 4.46447 1.39124C3.52678 2.28204 3 3.49022 3 4.75V6.65C2.20435 6.65 1.44129 6.95027 0.87868 7.48475C0.316071 8.01922 0 8.74413 0 9.5V16.15C0 16.9059 0.316071 17.6308 0.87868 18.1653C1.44129 18.6997 2.20435 19 3 19H13C13.7956 19 14.5587 18.6997 15.1213 18.1653C15.6839 17.6308 16 16.9059 16 16.15V9.5C16 8.74413 15.6839 8.01922 15.1213 7.48475C14.5587 6.95027 13.7956 6.65 13 6.65ZM5 4.75C5 3.99413 5.31607 3.26922 5.87868 2.73475C6.44129 2.20027 7.20435 1.9 8 1.9C8.79565 1.9 9.55871 2.20027 10.1213 2.73475C10.6839 3.26922 11 3.99413 11 4.75V6.65H5V4.75ZM14 16.15C14 16.402 13.8946 16.6436 13.7071 16.8218C13.5196 16.9999 13.2652 17.1 13 17.1H3C2.73478 17.1 2.48043 16.9999 2.29289 16.8218C2.10536 16.6436 2 16.402 2 16.15V9.5C2 9.24804 2.10536 9.00641 2.29289 8.82825C2.48043 8.65009 2.73478 8.55 3 8.55H13C13.2652 8.55 13.5196 8.65009 13.7071 8.82825C13.8946 9.00641 14 9.24804 14 9.5V16.15Z" fill="black"/>
<path d="M23.5038 15V5.2H26.7238C27.4891 5.2 28.1191 5.326 28.6138 5.578C29.1084 5.83 29.4724 6.17067 29.7058 6.6C29.9484 7.02933 30.0698 7.51467 30.0698 8.056C30.0698 8.588 29.9531 9.06867 29.7198 9.498C29.4864 9.92733 29.1224 10.2727 28.6278 10.534C28.1331 10.786 27.4984 10.912 26.7238 10.912H24.6798V15H23.5038ZM24.6798 9.918H26.6958C27.4798 9.918 28.0351 9.75467 28.3618 9.428C28.6978 9.092 28.8658 8.63467 28.8658 8.056C28.8658 7.468 28.6978 7.01067 28.3618 6.684C28.0351 6.348 27.4798 6.18 26.6958 6.18H24.6798V9.918ZM31.5412 15V8.056H32.6052L32.7032 9.386C32.9179 8.92867 33.2445 8.56467 33.6832 8.294C34.1219 8.02333 34.6632 7.888 35.3072 7.888V9.12H34.9852C34.5745 9.12 34.1965 9.19467 33.8512 9.344C33.5059 9.484 33.2305 9.72667 33.0252 10.072C32.8199 10.4173 32.7172 10.8933 32.7172 11.5V15H31.5412ZM37.3411 6.516C37.1078 6.516 36.9118 6.44133 36.7531 6.292C36.6038 6.13333 36.5291 5.93733 36.5291 5.704C36.5291 5.48 36.6038 5.29333 36.7531 5.144C36.9118 4.99467 37.1078 4.92 37.3411 4.92C37.5651 4.92 37.7565 4.99467 37.9151 5.144C38.0738 5.29333 38.1531 5.48 38.1531 5.704C38.1531 5.93733 38.0738 6.13333 37.9151 6.292C37.7565 6.44133 37.5651 6.516 37.3411 6.516ZM36.7531 15V8.056H37.9291V15H36.7531ZM41.9787 15L39.3467 8.056H40.5787L42.6647 13.866L44.7647 8.056H45.9687L43.3367 15H41.9787ZM49.2321 15.168C48.6534 15.168 48.1727 15.07 47.7901 14.874C47.4074 14.678 47.1227 14.4167 46.9361 14.09C46.7494 13.7633 46.6561 13.4087 46.6561 13.026C46.6561 12.3167 46.9267 11.7707 47.4681 11.388C48.0094 11.0053 48.7467 10.814 49.6801 10.814H51.5561V10.73C51.5561 10.1233 51.3974 9.666 51.0801 9.358C50.7627 9.04067 50.3381 8.882 49.8061 8.882C49.3487 8.882 48.9521 8.99867 48.6161 9.232C48.2894 9.456 48.0841 9.78733 48.0001 10.226H46.7961C46.8427 9.722 47.0107 9.29733 47.3001 8.952C47.5987 8.60667 47.9674 8.34533 48.4061 8.168C48.8447 7.98133 49.3114 7.888 49.8061 7.888C50.7767 7.888 51.5047 8.14933 51.9901 8.672C52.4847 9.18533 52.7321 9.87133 52.7321 10.73V15H51.6821L51.6121 13.754C51.4161 14.146 51.1267 14.482 50.7441 14.762C50.3707 15.0327 49.8667 15.168 49.2321 15.168ZM49.4141 14.174C49.8621 14.174 50.2447 14.0573 50.5621 13.824C50.8887 13.5907 51.1361 13.2873 51.3041 12.914C51.4721 12.5407 51.5561 12.1487 51.5561 11.738V11.724H49.7781C49.0874 11.724 48.5974 11.8453 48.3081 12.088C48.0281 12.3213 47.8881 12.6153 47.8881 12.97C47.8881 13.334 48.0187 13.628 48.2801 13.852C48.5507 14.0667 48.9287 14.174 49.4141 14.174ZM57.0489 15C56.4142 15 55.9149 14.846 55.5509 14.538C55.1869 14.23 55.0049 13.6747 55.0049 12.872V9.05H53.8009V8.056H55.0049L55.1589 6.39H56.1809V8.056H58.2249V9.05H56.1809V12.872C56.1809 13.3107 56.2695 13.6093 56.4469 13.768C56.6242 13.9173 56.9369 13.992 57.3849 13.992H58.1129V15H57.0489ZM62.6495 15.168C61.9869 15.168 61.3989 15.0187 60.8855 14.72C60.3722 14.412 59.9662 13.9873 59.6675 13.446C59.3782 12.9047 59.2335 12.2653 59.2335 11.528C59.2335 10.8 59.3782 10.1653 59.6675 9.624C59.9569 9.07333 60.3582 8.64867 60.8715 8.35C61.3942 8.042 61.9962 7.888 62.6775 7.888C63.3495 7.888 63.9282 8.042 64.4135 8.35C64.9082 8.64867 65.2862 9.04533 65.5475 9.54C65.8089 10.0347 65.9395 10.5667 65.9395 11.136C65.9395 11.2387 65.9349 11.3413 65.9255 11.444C65.9255 11.5467 65.9255 11.6633 65.9255 11.794H60.3955C60.4235 12.326 60.5449 12.7693 60.7595 13.124C60.9835 13.4693 61.2589 13.7307 61.5855 13.908C61.9215 14.0853 62.2762 14.174 62.6495 14.174C63.1349 14.174 63.5409 14.062 63.8675 13.838C64.1942 13.614 64.4322 13.3107 64.5815 12.928H65.7435C65.5569 13.572 65.1975 14.1087 64.6655 14.538C64.1429 14.958 63.4709 15.168 62.6495 15.168ZM62.6495 8.882C62.0895 8.882 61.5902 9.05467 61.1515 9.4C60.7222 9.736 60.4749 10.2307 60.4095 10.884H64.7775C64.7495 10.2587 64.5349 9.76867 64.1335 9.414C63.7322 9.05933 63.2375 8.882 62.6495 8.882Z" fill="black"/>
<defs>
<filter id="filter0_i_3003_7603" x="71" y="0" width="37.7617" height="19.3651" filterUnits="userSpaceOnUse" color-interpolation-filters="sRGB">
<feFlood flood-opacity="0" result="BackgroundImageFix"/>
<feBlend mode="normal" in="SourceGraphic" in2="BackgroundImageFix" result="shape"/>
<feColorMatrix in="SourceAlpha" type="matrix" values="0 0 0 0 0 0 0 0 0 0 0 0 0 0 0 0 0 0 127 0" result="hardAlpha"/>
<feOffset/>
<feGaussianBlur stdDeviation="0.484127"/>
<feComposite in2="hardAlpha" operator="arithmetic" k2="-1" k3="1"/>
<feColorMatrix type="matrix" values="0 0 0 0 0 0 0 0 0 0 0 0 0 0 0 0 0 0 0.1 0"/>
<feBlend mode="normal" in2="shape" result="effect1_innerShadow_3003_7603"/>
</filter>
<clipPath id="clip0_3003_7603">
<rect x="71" width="37.7619" height="19.3651" fill="white"/>
</clipPath>
</defs>
</svg>
