<svg width="44" height="32" viewBox="0 0 44 32" fill="none" xmlns="http://www.w3.org/2000/svg">
<path d="M11 31.0543C7.96667 31.0543 5.37533 30.0431 3.226 28.0207C1.07533 25.9984 0 23.5265 0 20.6053C0 18.1014 0.783333 15.8703 2.35 13.9122C3.91667 11.954 5.96667 10.702 8.5 10.1563C9.33333 7.20295 11 4.8114 13.5 2.98161C16 1.15183 18.8333 0.236938 22 0.236938C25.9 0.236938 29.208 1.54475 31.924 4.16038C34.6413 6.77729 36 9.96368 36 13.7195C38.3 13.9764 40.2087 14.9311 41.726 16.5836C43.242 18.2375 44 20.1719 44 22.3869C44 24.7945 43.1253 26.8413 41.376 28.5273C39.6253 30.212 37.5 31.0543 35 31.0543H24V17.2828L25.8 18.9681C26.1667 19.3213 26.6253 19.4978 27.176 19.4978C27.7253 19.4978 28.2 19.3052 28.6 18.92C28.9667 18.5669 29.15 18.1174 29.15 17.5717C29.15 17.026 28.9667 16.5766 28.6 16.2235L23.4 11.2156C23 10.8304 22.5333 10.6378 22 10.6378C21.4667 10.6378 21 10.8304 20.6 11.2156L15.4 16.2235C15.0333 16.5766 14.842 17.0177 14.826 17.5467C14.8087 18.077 15 18.5348 15.4 18.92C15.7667 19.2731 16.2247 19.458 16.774 19.4747C17.3247 19.4901 17.8 19.3213 18.2 18.9681L20 17.2828V31.0543H11Z" fill="#737373"/>
</svg>
