<svg width="18" height="22" viewBox="0 0 18 22" fill="none" xmlns="http://www.w3.org/2000/svg">
<path d="M9 22C9.44756 22 9.8657 21.8672 10.2171 21.6389C11.2593 20.962 10.2426 19.7436 9 19.7436C7.75736 19.7436 6.73726 20.9642 7.77991 21.6402C8.13072 21.8677 8.54924 22 9 22ZM16.6257 16.1089C16.0649 15.5466 15.75 14.7848 15.75 13.9906V9.58974C15.75 6.39914 14.1844 3.68722 11.4225 2.67985C10.9999 2.52573 10.6875 2.1421 10.6875 1.69231C10.6875 0.755897 9.93375 0 9 0C8.06625 0 7.3125 0.755897 7.3125 1.69231C7.3125 2.14203 6.99999 2.52554 6.57725 2.67895C3.80682 3.68431 2.25 6.38799 2.25 9.58974V13.9906C2.25 14.7848 1.9351 15.5466 1.37434 16.1089L0.232994 17.2535C0.0837877 17.4032 0 17.6058 0 17.8172C0 18.258 0.35738 18.6154 0.798231 18.6154H17.2018C17.6426 18.6154 18 18.258 18 17.8172C18 17.6058 17.9162 17.4032 17.767 17.2535L16.6257 16.1089Z" fill="#3A3A3A"/>
</svg>
