<svg width="182" height="28" viewBox="0 0 182 28" fill="none" xmlns="http://www.w3.org/2000/svg">
<path d="M61.568 13.156C61.0133 13.156 60.5583 13.0693 60.203 12.896C59.8477 12.714 59.5833 12.4757 59.41 12.181C59.2367 11.8863 59.15 11.5613 59.15 11.206C59.15 10.608 59.384 10.1227 59.852 9.75C60.32 9.37733 61.022 9.191 61.958 9.191H63.596V9.035C63.596 8.593 63.4703 8.268 63.219 8.06C62.9677 7.852 62.6557 7.748 62.283 7.748C61.945 7.748 61.6503 7.83033 61.399 7.995C61.1477 8.151 60.9917 8.385 60.931 8.697H59.306C59.3493 8.229 59.5053 7.82167 59.774 7.475C60.0513 7.12833 60.4067 6.864 60.84 6.682C61.2733 6.49133 61.7587 6.396 62.296 6.396C63.2147 6.396 63.9383 6.62567 64.467 7.085C64.9957 7.54433 65.26 8.19433 65.26 9.035V13H63.843L63.687 11.96C63.4963 12.3067 63.2277 12.5927 62.881 12.818C62.543 13.0433 62.1053 13.156 61.568 13.156ZM61.945 11.856C62.4217 11.856 62.79 11.7 63.05 11.388C63.3187 11.076 63.4877 10.6903 63.557 10.231H62.14C61.698 10.231 61.3817 10.3133 61.191 10.478C61.0003 10.634 60.905 10.829 60.905 11.063C60.905 11.3143 61.0003 11.5093 61.191 11.648C61.3817 11.7867 61.633 11.856 61.945 11.856ZM66.8479 13V3.64H68.5119V13H66.8479ZM74.0342 13.156C73.5489 13.156 73.1242 13.065 72.7602 12.883C72.3962 12.701 72.1015 12.4453 71.8762 12.116L71.6942 13H70.2122V3.64H71.8762V7.475C72.0842 7.189 72.3572 6.93767 72.6952 6.721C73.0419 6.50433 73.4882 6.396 74.0342 6.396C74.6409 6.396 75.1825 6.54333 75.6592 6.838C76.1359 7.13267 76.5129 7.53567 76.7902 8.047C77.0675 8.55833 77.2062 9.139 77.2062 9.789C77.2062 10.439 77.0675 11.0197 76.7902 11.531C76.5129 12.0337 76.1359 12.4323 75.6592 12.727C75.1825 13.013 74.6409 13.156 74.0342 13.156ZM73.6832 11.7C74.2119 11.7 74.6495 11.5223 74.9962 11.167C75.3429 10.8117 75.5162 10.3523 75.5162 9.789C75.5162 9.22567 75.3429 8.762 74.9962 8.398C74.6495 8.034 74.2119 7.852 73.6832 7.852C73.1459 7.852 72.7039 8.034 72.3572 8.398C72.0192 8.75333 71.8502 9.21267 71.8502 9.776C71.8502 10.3393 72.0192 10.803 72.3572 11.167C72.7039 11.5223 73.1459 11.7 73.6832 11.7ZM81.1107 13.156C80.3047 13.156 79.6807 12.9047 79.2387 12.402C78.8053 11.8993 78.5887 11.1627 78.5887 10.192V6.552H80.2397V10.036C80.2397 10.5907 80.3523 11.0153 80.5777 11.31C80.803 11.6047 81.1583 11.752 81.6437 11.752C82.103 11.752 82.48 11.5873 82.7747 11.258C83.078 10.9287 83.2297 10.4693 83.2297 9.88V6.552H84.8937V13H83.4247L83.2947 11.908C83.0953 12.2893 82.805 12.5927 82.4237 12.818C82.051 13.0433 81.6133 13.156 81.1107 13.156ZM86.6018 13V6.552H88.0708L88.2138 7.423C88.4218 7.111 88.6948 6.864 89.0328 6.682C89.3795 6.49133 89.7782 6.396 90.2288 6.396C91.2255 6.396 91.9318 6.78167 92.3478 7.553C92.5818 7.19767 92.8938 6.916 93.2838 6.708C93.6825 6.5 94.1158 6.396 94.5838 6.396C95.4245 6.396 96.0702 6.64733 96.5208 7.15C96.9715 7.65267 97.1968 8.38933 97.1968 9.36V13H95.5328V9.516C95.5328 8.96133 95.4245 8.53667 95.2078 8.242C94.9998 7.94733 94.6748 7.8 94.2328 7.8C93.7822 7.8 93.4182 7.96467 93.1408 8.294C92.8722 8.62333 92.7378 9.08267 92.7378 9.672V13H91.0738V9.516C91.0738 8.96133 90.9655 8.53667 90.7488 8.242C90.5322 7.94733 90.1985 7.8 89.7478 7.8C89.3058 7.8 88.9462 7.96467 88.6688 8.294C88.4002 8.62333 88.2658 9.08267 88.2658 9.672V13H86.6018ZM101.442 13.156C100.87 13.156 100.367 13.065 99.9336 12.883C99.5003 12.6923 99.1536 12.4323 98.8936 12.103C98.6336 11.7737 98.4776 11.3923 98.4256 10.959H100.103C100.155 11.2103 100.293 11.427 100.519 11.609C100.753 11.7823 101.052 11.869 101.416 11.869C101.78 11.869 102.044 11.7953 102.209 11.648C102.382 11.5007 102.469 11.3317 102.469 11.141C102.469 10.8637 102.347 10.6773 102.105 10.582C101.862 10.478 101.524 10.3783 101.091 10.283C100.813 10.2223 100.532 10.1487 100.246 10.062C99.9596 9.97533 99.6953 9.867 99.4526 9.737C99.2186 9.59833 99.028 9.425 98.8806 9.217C98.7333 9.00033 98.6596 8.736 98.6596 8.424C98.6596 7.852 98.885 7.371 99.3356 6.981C99.795 6.591 100.436 6.396 101.26 6.396C102.022 6.396 102.629 6.57367 103.08 6.929C103.539 7.28433 103.812 7.774 103.899 8.398H102.326C102.23 7.92133 101.871 7.683 101.247 7.683C100.935 7.683 100.692 7.74367 100.519 7.865C100.354 7.98633 100.272 8.138 100.272 8.32C100.272 8.51067 100.397 8.66233 100.649 8.775C100.9 8.88767 101.234 8.99167 101.65 9.087C102.1 9.191 102.512 9.308 102.885 9.438C103.266 9.55933 103.569 9.74567 103.795 9.997C104.02 10.2397 104.133 10.5907 104.133 11.05C104.141 11.4487 104.037 11.8083 103.821 12.129C103.604 12.4497 103.292 12.701 102.885 12.883C102.477 13.065 101.996 13.156 101.442 13.156Z" fill="#737373"/>
<path d="M121.55 2H112.45C111.933 2 111.437 2.20545 111.071 2.57114C110.705 2.93684 110.5 3.43283 110.5 3.95V13.05C110.5 13.5672 110.705 14.0632 111.071 14.4289C111.437 14.7946 111.933 15 112.45 15H121.55C121.657 14.9985 121.763 14.9876 121.868 14.9675L122.064 14.922H122.109H122.141L122.382 14.831L122.466 14.7855C122.531 14.7465 122.603 14.714 122.668 14.6685C122.755 14.6046 122.837 14.5352 122.915 14.4605L122.96 14.402C123.024 14.3373 123.083 14.2678 123.136 14.194L123.194 14.1095C123.24 14.0371 123.279 13.961 123.311 13.882C123.329 13.8508 123.345 13.8182 123.357 13.7845C123.39 13.7065 123.409 13.622 123.435 13.5375V13.44C123.472 13.313 123.494 13.1821 123.5 13.05V3.95C123.5 3.43283 123.295 2.93684 122.929 2.57114C122.563 2.20545 122.067 2 121.55 2ZM112.45 13.7C112.278 13.7 112.112 13.6315 111.99 13.5096C111.868 13.3877 111.8 13.2224 111.8 13.05V10.2485L113.938 8.1035C113.999 8.04258 114.071 7.99422 114.15 7.96122C114.229 7.92822 114.314 7.91123 114.4 7.91123C114.486 7.91123 114.571 7.92822 114.65 7.96122C114.729 7.99422 114.801 8.04258 114.861 8.1035L120.451 13.7H112.45ZM122.2 13.05C122.199 13.1301 122.184 13.2095 122.155 13.284C122.14 13.3157 122.122 13.3461 122.102 13.375C122.085 13.4025 122.066 13.4286 122.044 13.453L118.566 9.9755L119.138 9.4035C119.199 9.34258 119.271 9.29422 119.35 9.26122C119.429 9.22822 119.514 9.21123 119.6 9.21123C119.686 9.21123 119.771 9.22822 119.85 9.26122C119.929 9.29422 120.001 9.34258 120.061 9.4035L122.2 11.5485V13.05ZM122.2 9.709L120.978 8.5C120.606 8.14704 120.113 7.95028 119.6 7.95028C119.087 7.95028 118.594 8.14704 118.222 8.5L117.65 9.072L115.778 7.2C115.406 6.84704 114.913 6.65028 114.4 6.65028C113.887 6.65028 113.394 6.84704 113.022 7.2L111.8 8.409V3.95C111.8 3.77761 111.868 3.61228 111.99 3.49038C112.112 3.36848 112.278 3.3 112.45 3.3H121.55C121.722 3.3 121.888 3.36848 122.01 3.49038C122.132 3.61228 122.2 3.77761 122.2 3.95V9.709ZM117.975 4.6C117.782 4.6 117.594 4.65718 117.433 4.76432C117.273 4.87145 117.148 5.02373 117.074 5.20188C117 5.38004 116.981 5.57608 117.019 5.76521C117.056 5.95434 117.149 6.12807 117.286 6.26443C117.422 6.40079 117.596 6.49365 117.785 6.53127C117.974 6.56889 118.17 6.54958 118.348 6.47578C118.526 6.40199 118.679 6.27702 118.786 6.11668C118.893 5.95634 118.95 5.76784 118.95 5.575C118.95 5.31641 118.847 5.06842 118.664 4.88557C118.482 4.70272 118.234 4.6 117.975 4.6Z" fill="#737373"/>
<path d="M1 27H181" stroke="#737373" stroke-width="2" stroke-linecap="round"/>
</svg>
