<svg width="76" height="77" viewBox="0 0 76 77" fill="none" xmlns="http://www.w3.org/2000/svg">
<g filter="url(#filter0_ddd_2818_12719)">
<rect x="11.5" y="0.5" width="53" height="53" rx="26.5" stroke="#0E0E0E"/>
<path d="M33.9664 36.4772C33.578 36.2188 33.2338 35.8996 32.947 35.5317C32.6315 35.1519 32.3391 34.7535 32.0716 34.3386C31.4437 33.4187 30.9513 32.4134 30.6095 31.3534C30.1988 30.1222 30 28.942 30 27.7878C30 26.4986 30.2789 25.3733 30.8243 24.4277C31.2286 23.6886 31.8231 23.071 32.5462 22.6387C33.247 22.2034 34.0522 21.9652 34.877 21.9492C35.1657 21.9492 35.4766 21.9911 35.8065 22.0711C36.0436 22.1382 36.3323 22.2441 36.685 22.3758C37.1338 22.5488 37.3807 22.6547 37.4644 22.6806C37.7273 22.7766 37.9483 22.8185 38.1219 22.8185C38.2536 22.8185 38.4396 22.7766 38.6507 22.7126C38.7695 22.6707 38.9936 22.5968 39.3144 22.4596C39.632 22.3438 39.882 22.2447 40.0808 22.1708C40.3855 22.0809 40.6804 21.9978 40.9433 21.956C41.2549 21.9068 41.5712 21.8938 41.8858 21.9172C42.431 21.9528 42.968 22.0684 43.4796 22.2601C44.3163 22.5968 44.9928 23.1226 45.4964 23.8699C45.2836 24.0011 45.0838 24.1524 44.8999 24.3218C44.4995 24.6768 44.1584 25.0935 43.8896 25.5561C43.5383 26.1884 43.3562 26.9007 43.3608 27.624C43.3738 28.5123 43.6015 29.2948 44.0503 29.9714C44.3803 30.4728 44.8091 30.9016 45.3105 31.2315C45.5672 31.4045 45.7882 31.5233 46 31.6034C45.9009 31.9112 45.795 32.2091 45.67 32.5046C45.3866 33.1673 45.0431 33.8026 44.6438 34.4026C44.288 34.9191 44.0091 35.3039 43.7973 35.56C43.4673 35.9509 43.1497 36.2495 42.8289 36.4576C42.4762 36.6915 42.0594 36.8165 41.6359 36.8165C41.349 36.8275 41.0622 36.7928 40.7863 36.7136C40.5493 36.6336 40.3147 36.5468 40.0839 36.4477C39.8439 36.3375 39.5964 36.2443 39.3433 36.1688C38.7176 36.0081 38.0616 36.0071 37.4355 36.1657C37.1788 36.2396 36.9319 36.3258 36.6881 36.4317C36.3452 36.5758 36.1174 36.6724 35.9857 36.7136C35.7228 36.7906 35.4501 36.8386 35.1743 36.8546C34.7477 36.8546 34.35 36.7327 33.956 36.4859L33.9664 36.4772ZM39.5932 21.3237C39.0355 21.6026 38.503 21.7214 37.9741 21.6826C37.891 21.1501 37.9741 20.6053 38.1952 20.0088C38.3833 19.5034 38.6613 19.0362 39.0158 18.6298C39.3901 18.2019 39.8443 17.8512 40.3529 17.5974C40.8947 17.3185 41.4112 17.1677 41.9049 17.1455C41.9689 17.7033 41.9049 18.2518 41.6999 18.8446C41.5102 19.3687 41.2327 19.8567 40.8793 20.2876C40.5185 20.7161 40.0759 21.0681 39.5772 21.3231L39.5932 21.3237Z" fill="#0E0E0E"/>
</g>
<defs>
<filter id="filter0_ddd_2818_12719" x="0.982759" y="0" width="74.0345" height="76.5388" filterUnits="userSpaceOnUse" color-interpolation-filters="sRGB">
<feFlood flood-opacity="0" result="BackgroundImageFix"/>
<feColorMatrix in="SourceAlpha" type="matrix" values="0 0 0 0 0 0 0 0 0 0 0 0 0 0 0 0 0 0 127 0" result="hardAlpha"/>
<feOffset dy="2.76726"/>
<feGaussianBlur stdDeviation="1.1069"/>
<feColorMatrix type="matrix" values="0 0 0 0 0 0 0 0 0 0 0 0 0 0 0 0 0 0 0.0196802 0"/>
<feBlend mode="normal" in2="BackgroundImageFix" result="effect1_dropShadow_2818_12719"/>
<feColorMatrix in="SourceAlpha" type="matrix" values="0 0 0 0 0 0 0 0 0 0 0 0 0 0 0 0 0 0 127 0" result="hardAlpha"/>
<feOffset dy="6.6501"/>
<feGaussianBlur stdDeviation="2.66004"/>
<feColorMatrix type="matrix" values="0 0 0 0 0 0 0 0 0 0 0 0 0 0 0 0 0 0 0.0282725 0"/>
<feBlend mode="normal" in2="effect1_dropShadow_2818_12719" result="effect2_dropShadow_2818_12719"/>
<feColorMatrix in="SourceAlpha" type="matrix" values="0 0 0 0 0 0 0 0 0 0 0 0 0 0 0 0 0 0 127 0" result="hardAlpha"/>
<feOffset dy="12.5216"/>
<feGaussianBlur stdDeviation="5.00862"/>
<feColorMatrix type="matrix" values="0 0 0 0 0 0 0 0 0 0 0 0 0 0 0 0 0 0 0.035 0"/>
<feBlend mode="normal" in2="effect2_dropShadow_2818_12719" result="effect3_dropShadow_2818_12719"/>
<feBlend mode="normal" in="SourceGraphic" in2="effect3_dropShadow_2818_12719" result="shape"/>
</filter>
</defs>
</svg>
