<svg width="13" height="13" viewBox="0 0 13 13" fill="none" xmlns="http://www.w3.org/2000/svg">
<path d="M12.8409 12.1342C12.89 12.18 12.9294 12.2352 12.9567 12.2965C12.984 12.3578 12.9987 12.424 12.9999 12.4912C13.0011 12.5583 12.9888 12.625 12.9636 12.6873C12.9385 12.7495 12.901 12.8061 12.8536 12.8536C12.8061 12.901 12.7495 12.9385 12.6873 12.9636C12.625 12.9888 12.5583 13.0011 12.4912 12.9999C12.424 12.9987 12.3578 12.984 12.2965 12.9567C12.2352 12.9294 12.18 12.89 12.1342 12.8409L6.48753 7.19503L0.840861 12.8409C0.746078 12.9292 0.620714 12.9773 0.491179 12.975C0.361645 12.9727 0.238055 12.9202 0.146447 12.8286C0.0548379 12.737 0.00236338 12.6134 7.78982e-05 12.4839C-0.00220758 12.3543 0.0458744 12.229 0.134194 12.1342L5.78003 6.48753L0.134194 0.840861C0.0458744 0.746078 -0.00220758 0.620714 7.78982e-05 0.491179C0.00236338 0.361645 0.0548379 0.238055 0.146447 0.146447C0.238055 0.0548379 0.361645 0.00236338 0.491179 7.78982e-05C0.620714 -0.00220758 0.746078 0.0458744 0.840861 0.134194L6.48753 5.78003L12.1342 0.134194C12.229 0.0458744 12.3543 -0.00220758 12.4839 7.78982e-05C12.6134 0.00236338 12.737 0.0548379 12.8286 0.146447C12.9202 0.238055 12.9727 0.361645 12.975 0.491179C12.9773 0.620714 12.9292 0.746078 12.8409 0.840861L7.19503 6.48753L12.8409 12.1342Z" fill="white"/>
</svg>
