<svg width="80" height="80" viewBox="0 0 80 80" fill="none" xmlns="http://www.w3.org/2000/svg">
<rect width="80" height="80" rx="10" fill="#0044CC"/>
<path d="M40.5 19C28.6253 19 19 28.6253 19 40.5C19 52.3746 28.6253 62 40.5 62C52.3746 62 62 52.3746 62 40.5C62 28.6253 52.3746 19 40.5 19ZM51.7992 37.5285C49.1418 38.467 46.7947 38.1548 41.5551 40.579C44.0564 42.0647 46.0142 42.533 47.7331 42.7681C50.3134 43.0803 52.9727 43.6295 52.9727 45.9728C52.9727 46.8342 52.5815 47.7707 51.9553 48.4741C51.0958 49.4916 49.8432 50.1949 48.6716 50.1949C46.4843 50.1949 45.2318 48.0829 44.5265 46.3621C43.8232 44.9553 43.0408 43.2364 40.7746 41.5156C40.0693 44.1749 40.0693 45.8167 40.0693 47.1445C40.0693 49.1775 40.4624 50.6651 40.2273 52.3051C39.9151 54.8064 38.1153 56.5291 35.693 56.5291C34.2053 56.5291 33.1108 55.3555 33.1108 53.8698C33.1108 50.1159 36.7067 49.7266 39.7571 41.4366C33.502 44.6413 32.6406 47.5338 28.6554 49.4916C27.7151 49.9599 27.0926 50.1178 26.6995 50.1178C24.9035 50.1178 24.0402 48.8653 24.0402 47.3814C24.0402 45.6606 25.3699 44.4118 27.0926 43.7856C30.3744 42.533 33.2688 43.2383 39.4449 40.579C36.7085 38.9372 34.4404 38.546 32.5635 38.1548C30.1393 37.8426 28.0273 37.2953 28.0273 35.0272C28.0273 32.603 30.3725 30.8032 32.5635 30.8032C34.5946 30.8032 35.8472 32.9942 36.5524 34.7131C37.1787 36.1989 38.0363 37.8407 40.2273 39.7176C41.2448 35.7306 40.5395 33.6205 40.5395 31.4313C40.5395 27.7565 41.9462 24.4709 45.2299 24.4709C47.0279 24.4709 47.8892 25.4865 47.8892 27.1283C47.8892 30.8841 43.353 33.6976 41.2429 39.7176C46.3997 36.9812 48.0416 34.636 50.4676 32.9942C51.7973 31.8206 52.9689 30.8032 54.4566 30.8032C56.0984 30.8032 56.956 31.9767 56.956 33.3854C56.956 35.8096 54.9267 37.0602 51.7973 37.5285H51.7992Z" fill="#F8F4EA"/>
</svg>
