<svg width="80" height="80" viewBox="0 0 80 80" fill="none" xmlns="http://www.w3.org/2000/svg">
<rect width="80" height="80" rx="10" fill="#0044CC"/>
<path d="M56.9883 48.7369C56.332 53.3869 56.0039 55.7137 54.3221 57.1069C52.6403 58.5 50.1597 58.5 45.1967 58.5H34.3033C29.3422 58.5 26.8598 58.5 25.178 57.1069C23.4962 55.7137 23.1681 53.3887 22.5118 48.7369L21.7206 43.1119C20.8825 37.1794 20.4644 34.215 22.2418 32.2931C24.0193 30.375 27.1842 30.375 33.5102 30.375H45.9898C52.3159 30.375 55.4808 30.375 57.2583 32.295C58.6626 33.8119 58.6963 35.9813 58.2351 39.75" stroke="#F8F4EA" stroke-width="2.25" stroke-linecap="round"/>
<path d="M53.9283 30.375C54.029 29.8004 54.0027 29.2107 53.8513 28.6473C53.6999 28.0839 53.427 27.5605 53.0518 27.1138C52.6766 26.6671 52.2081 26.308 51.6794 26.0616C51.1506 25.8152 50.5743 25.6875 49.991 25.6875H29.5091C28.9257 25.6875 28.3495 25.8152 27.8207 26.0616C27.2919 26.308 26.8235 26.6671 26.4483 27.1138C26.0731 27.5605 25.8002 28.0839 25.6487 28.6473C25.4973 29.2107 25.471 29.8004 25.5717 30.375M50.0622 25.6875C50.1147 25.2 50.1428 24.9581 50.1428 24.7575C50.1449 23.8307 49.8036 22.9359 49.1849 22.2459C48.5662 21.5558 47.7138 21.1193 46.7923 21.0206C46.5936 21 46.3498 21 45.8623 21H33.6377C33.1502 21 32.9046 21 32.7059 21.0206C31.7843 21.1193 30.932 21.5558 30.3133 22.2459C29.6946 22.9359 29.3533 23.8307 29.3554 24.7575C29.3554 24.9581 29.3816 25.2019 29.436 25.6875" stroke="#F8F4EA" stroke-width="2.25"/>
<path d="M48.1874 41.625C49.7407 41.625 50.9998 40.3658 50.9998 38.8125C50.9998 37.2592 49.7407 36 48.1874 36C46.6342 36 45.375 37.2592 45.375 38.8125C45.375 40.3658 46.6342 41.625 48.1874 41.625Z" stroke="#F8F4EA" stroke-width="2.25"/>
<path d="M54.7495 54.7499L49.3421 50.7206C47.5984 49.4231 44.9998 49.2937 43.0798 50.4093L42.5811 50.6999C41.2461 51.4762 39.4312 51.3468 38.28 50.3924L31.0821 44.4356C29.6459 43.2468 27.3416 43.1831 25.8135 44.2893L23.3311 46.0893" stroke="#F8F4EA" stroke-width="2.25" stroke-linecap="round"/>
</svg>
