<svg width="43" height="23" viewBox="0 0 43 23" fill="none" xmlns="http://www.w3.org/2000/svg">
<path d="M1.35 18V5.4H5.058C6.534 5.4 7.752 5.658 8.712 6.174C9.672 6.678 10.38 7.404 10.836 8.352C11.304 9.288 11.538 10.416 11.538 11.736C11.538 13.032 11.304 14.148 10.836 15.084C10.38 16.02 9.672 16.74 8.712 17.244C7.752 17.748 6.534 18 5.058 18H1.35ZM2.862 16.74H5.022C6.246 16.74 7.218 16.542 7.938 16.146C8.67 15.738 9.192 15.162 9.504 14.418C9.816 13.662 9.972 12.768 9.972 11.736C9.972 10.68 9.816 9.774 9.504 9.018C9.192 8.262 8.67 7.68 7.938 7.272C7.218 6.864 6.246 6.66 5.022 6.66H2.862V16.74ZM17.7026 18.216C16.8626 18.216 16.1066 18.024 15.4346 17.64C14.7626 17.244 14.2346 16.692 13.8506 15.984C13.4666 15.264 13.2746 14.43 13.2746 13.482C13.2746 12.51 13.4666 11.67 13.8506 10.962C14.2466 10.242 14.7806 9.69 15.4526 9.306C16.1366 8.91 16.8986 8.712 17.7386 8.712C18.6026 8.712 19.3646 8.91 20.0246 9.306C20.6966 9.69 21.2246 10.242 21.6086 10.962C22.0046 11.67 22.2026 12.504 22.2026 13.464C22.2026 14.424 22.0046 15.264 21.6086 15.984C21.2126 16.692 20.6786 17.244 20.0066 17.64C19.3346 18.024 18.5666 18.216 17.7026 18.216ZM17.7206 16.92C18.2366 16.92 18.7166 16.794 19.1606 16.542C19.6046 16.278 19.9646 15.888 20.2406 15.372C20.5166 14.856 20.6546 14.22 20.6546 13.464C20.6546 12.696 20.5166 12.06 20.2406 11.556C19.9766 11.04 19.6226 10.656 19.1786 10.404C18.7466 10.14 18.2666 10.008 17.7386 10.008C17.2346 10.008 16.7546 10.14 16.2986 10.404C15.8546 10.656 15.4946 11.04 15.2186 11.556C14.9546 12.06 14.8226 12.696 14.8226 13.464C14.8226 14.22 14.9546 14.856 15.2186 15.372C15.4946 15.888 15.8486 16.278 16.2806 16.542C16.7246 16.794 17.2046 16.92 17.7206 16.92ZM24.3225 18V8.928H25.6905L25.7625 10.512C26.0505 9.948 26.4585 9.51 26.9865 9.198C27.5265 8.874 28.1385 8.712 28.8225 8.712C29.5305 8.712 30.1425 8.856 30.6585 9.144C31.1745 9.42 31.5765 9.846 31.8645 10.422C32.1525 10.986 32.2965 11.706 32.2965 12.582V18H30.7845V12.744C30.7845 11.832 30.5805 11.148 30.1725 10.692C29.7765 10.236 29.2125 10.008 28.4805 10.008C27.9765 10.008 27.5265 10.134 27.1305 10.386C26.7345 10.626 26.4165 10.98 26.1765 11.448C25.9485 11.904 25.8345 12.474 25.8345 13.158V18H24.3225ZM38.6364 18.216C37.7964 18.216 37.0464 18.018 36.3864 17.622C35.7264 17.226 35.2104 16.674 34.8384 15.966C34.4664 15.246 34.2804 14.412 34.2804 13.464C34.2804 12.504 34.4604 11.67 34.8204 10.962C35.1924 10.254 35.7084 9.702 36.3684 9.306C37.0404 8.91 37.8084 8.712 38.6724 8.712C39.5604 8.712 40.3164 8.91 40.9404 9.306C41.5644 9.702 42.0384 10.224 42.3624 10.872C42.6984 11.508 42.8664 12.21 42.8664 12.978C42.8664 13.098 42.8664 13.224 42.8664 13.356C42.8664 13.488 42.8604 13.638 42.8484 13.806H35.4144V12.636H41.3724C41.3364 11.808 41.0604 11.16 40.5444 10.692C40.0404 10.224 39.4044 9.99 38.6364 9.99C38.1324 9.99 37.6584 10.11 37.2144 10.35C36.7704 10.578 36.4164 10.92 36.1524 11.376C35.8884 11.82 35.7564 12.378 35.7564 13.05V13.554C35.7564 14.298 35.8884 14.922 36.1524 15.426C36.4284 15.93 36.7824 16.308 37.2144 16.56C37.6584 16.812 38.1324 16.938 38.6364 16.938C39.2724 16.938 39.7944 16.8 40.2024 16.524C40.6224 16.236 40.9284 15.846 41.1204 15.354H42.6144C42.4584 15.906 42.2004 16.398 41.8404 16.83C41.4804 17.25 41.0304 17.586 40.4904 17.838C39.9624 18.09 39.3444 18.216 38.6364 18.216Z" fill="#0E0E0E"/>
</svg>
