<svg width="19" height="20" viewBox="0 0 19 20" fill="none" xmlns="http://www.w3.org/2000/svg">
<path d="M10.3616 0.604658C9.84452 0.241772 9.15547 0.241772 8.63836 0.604659L0.638361 6.21869C0.238212 6.4995 0 6.95768 0 7.44653V18.5C0 19.3284 0.671573 20 1.5 20H4.4375C5.26593 20 5.9375 19.3284 5.9375 18.5V13.7222C5.9375 12.8938 6.60907 12.2222 7.4375 12.2222H11.5625C12.3909 12.2222 13.0625 12.8938 13.0625 13.7222V18.5C13.0625 19.3284 13.7341 20 14.5625 20H17.5C18.3284 20 19 19.3284 19 18.5V7.44653C19 6.95768 18.7618 6.4995 18.3616 6.21869L10.3616 0.604658Z" fill="#3A3A3A"/>
</svg>
