<svg width="17" height="17" viewBox="0 0 17 17" fill="none" xmlns="http://www.w3.org/2000/svg">
<path d="M15.9736 5.45674C15.9736 5.45674 15.9736 5.45674 15.9736 5.41546C15.3926 3.82753 14.3383 2.45655 12.9533 1.48798C11.5684 0.519416 9.91967 0 8.23016 0C6.54065 0 4.89191 0.519416 3.50697 1.48798C2.12203 2.45655 1.06772 3.82753 0.486674 5.41546C0.486674 5.41546 0.486674 5.41546 0.486674 5.45674C-0.162225 7.24864 -0.162225 9.21167 0.486674 11.0036C0.486674 11.0036 0.486674 11.0036 0.486674 11.0449C1.06772 12.6328 2.12203 14.0038 3.50697 14.9723C4.89191 15.9409 6.54065 16.4603 8.23016 16.4603C9.91967 16.4603 11.5684 15.9409 12.9533 14.9723C14.3383 14.0038 15.3926 12.6328 15.9736 11.0449C15.9736 11.0449 15.9736 11.0449 15.9736 11.0036C16.6225 9.21167 16.6225 7.24864 15.9736 5.45674ZM1.83086 9.88101C1.54489 8.79905 1.54489 7.66126 1.83086 6.57931H3.36471C3.23279 7.67592 3.23279 8.7844 3.36471 9.88101H1.83086ZM2.50707 11.5319H3.66159C3.85515 12.268 4.13181 12.9797 4.48624 13.6532C3.6775 13.1018 3.00145 12.3771 2.50707 11.5319ZM3.66159 4.92846H2.50707C2.99433 4.08578 3.66174 3.36137 4.4615 2.80712C4.1156 3.4817 3.84725 4.19336 3.66159 4.92846ZM7.38901 14.5859C6.37615 13.842 5.66479 12.7578 5.38511 11.5319H7.38901V14.5859ZM7.38901 9.88101H5.03051C4.87662 8.78583 4.87662 7.67449 5.03051 6.57931H7.38901V9.88101ZM7.38901 4.92846H5.38511C5.66479 3.70252 6.37615 2.61837 7.38901 1.8744V4.92846ZM13.9203 4.92846H12.7657C12.5722 4.19232 12.2955 3.48062 11.9411 2.80712C12.7498 3.35857 13.4259 4.08318 13.9203 4.92846ZM9.03832 1.8744C10.0512 2.61837 10.7625 3.70252 11.0422 4.92846H9.03832V1.8744ZM9.03832 14.5859V11.5319H11.0422C10.7625 12.7578 10.0512 13.842 9.03832 14.5859ZM11.3968 9.88101H9.03832V6.57931H11.3968C11.5507 7.67449 11.5507 8.78583 11.3968 9.88101ZM11.9658 13.6532C12.3203 12.9797 12.5969 12.268 12.7905 11.5319H13.945C13.4506 12.3771 12.7746 13.1018 11.9658 13.6532ZM14.5965 9.88101H13.0626C13.1297 9.3333 13.1627 8.78196 13.1616 8.23016C13.1625 7.67836 13.1294 7.12704 13.0626 6.57931H14.5965C14.8824 7.66126 14.8824 8.79905 14.5965 9.88101Z" fill="black"/>
</svg>
