<svg width="20" height="20" viewBox="0 0 20 20" fill="none" xmlns="http://www.w3.org/2000/svg">
<path d="M10 20C9.59524 20 9.25619 19.8629 8.98286 19.5886C8.70857 19.3152 8.57143 18.9762 8.57143 18.5714V11.4286H1.42857C1.02381 11.4286 0.684286 11.2914 0.41 11.0171C0.136667 10.7438 0 10.4048 0 10C0 9.59524 0.136667 9.25571 0.41 8.98143C0.684286 8.70809 1.02381 8.57143 1.42857 8.57143H8.57143V1.42857C8.57143 1.02381 8.70857 0.684286 8.98286 0.41C9.25619 0.136667 9.59524 0 10 0C10.4048 0 10.7443 0.136667 11.0186 0.41C11.2919 0.684286 11.4286 1.02381 11.4286 1.42857V8.57143H18.5714C18.9762 8.57143 19.3152 8.70809 19.5886 8.98143C19.8629 9.25571 20 9.59524 20 10C20 10.4048 19.8629 10.7438 19.5886 11.0171C19.3152 11.2914 18.9762 11.4286 18.5714 11.4286H11.4286V18.5714C11.4286 18.9762 11.2919 19.3152 11.0186 19.5886C10.7443 19.8629 10.4048 20 10 20Z" fill="#3A3A3A"/>
</svg>
