<svg width="114" height="105" viewBox="0 0 114 105" fill="none" xmlns="http://www.w3.org/2000/svg">
<path d="M4.61927 101.168C3.93794 101.168 3.33127 101.014 2.79927 100.706C2.26727 100.389 1.84727 99.9547 1.53927 99.404C1.24061 98.8533 1.09127 98.214 1.09127 97.486C1.09127 96.7487 1.24061 96.1047 1.53927 95.554C1.84727 94.994 2.26727 94.56 2.79927 94.252C3.33127 93.9347 3.93794 93.776 4.61927 93.776C5.47794 93.776 6.19661 94 6.77527 94.448C7.35394 94.896 7.72261 95.5027 7.88127 96.268H6.42527C6.33194 95.8573 6.11727 95.54 5.78127 95.316C5.45461 95.092 5.06261 94.98 4.60527 94.98C4.23194 94.98 3.88661 95.078 3.56927 95.274C3.25194 95.4607 2.99527 95.7407 2.79927 96.114C2.61261 96.478 2.51927 96.9307 2.51927 97.472C2.51927 97.8733 2.57527 98.2327 2.68727 98.55C2.79927 98.858 2.94861 99.1193 3.13527 99.334C3.33127 99.5487 3.55527 99.712 3.80727 99.824C4.05927 99.9267 4.32527 99.978 4.60527 99.978C4.91327 99.978 5.18861 99.9313 5.43127 99.838C5.68327 99.7353 5.89327 99.586 6.06127 99.39C6.23861 99.194 6.35994 98.9607 6.42527 98.69H7.88127C7.72261 99.4367 7.35394 100.039 6.77527 100.496C6.19661 100.944 5.47794 101.168 4.61927 101.168ZM9.51938 101V93.944H10.7794L10.9054 95.274C11.064 94.9567 11.2694 94.6907 11.5214 94.476C11.7734 94.252 12.0674 94.0793 12.4034 93.958C12.7487 93.8367 13.1407 93.776 13.5794 93.776V95.26H13.0754C12.786 95.26 12.5107 95.2973 12.2494 95.372C11.988 95.4373 11.7547 95.554 11.5494 95.722C11.3534 95.89 11.1994 96.1187 11.0874 96.408C10.9754 96.6973 10.9194 97.0567 10.9194 97.486V101H9.51938ZM17.852 101.168C17.18 101.168 16.5827 101.014 16.06 100.706C15.5373 100.398 15.1267 99.9687 14.828 99.418C14.5387 98.8673 14.394 98.228 14.394 97.5C14.394 96.7533 14.5387 96.1047 14.828 95.554C15.1267 94.994 15.5373 94.56 16.06 94.252C16.5827 93.9347 17.1893 93.776 17.88 93.776C18.5707 93.776 19.1633 93.93 19.658 94.238C20.1527 94.546 20.5353 94.9567 20.806 95.47C21.0767 95.974 21.212 96.534 21.212 97.15C21.212 97.2433 21.2073 97.346 21.198 97.458C21.198 97.5607 21.1933 97.6773 21.184 97.808H15.416V96.814H19.812C19.784 96.226 19.588 95.7687 19.224 95.442C18.86 95.106 18.4073 94.938 17.866 94.938C17.4833 94.938 17.1333 95.0267 16.816 95.204C16.4987 95.372 16.242 95.624 16.046 95.96C15.8593 96.2867 15.766 96.702 15.766 97.206V97.598C15.766 98.1207 15.8593 98.564 16.046 98.928C16.242 99.2827 16.4987 99.5533 16.816 99.74C17.1333 99.9173 17.4787 100.006 17.852 100.006C18.3 100.006 18.6687 99.908 18.958 99.712C19.2473 99.516 19.462 99.25 19.602 98.914H21.002C20.8807 99.3433 20.6753 99.7307 20.386 100.076C20.0967 100.412 19.7373 100.678 19.308 100.874C18.888 101.07 18.4027 101.168 17.852 101.168ZM25.1054 101.168C24.5268 101.168 24.0461 101.07 23.6634 100.874C23.2808 100.678 22.9961 100.417 22.8094 100.09C22.6228 99.754 22.5294 99.3947 22.5294 99.012C22.5294 98.5453 22.6508 98.1487 22.8934 97.822C23.1361 97.486 23.4814 97.2293 23.9294 97.052C24.3774 96.8747 24.9141 96.786 25.5394 96.786H27.3734C27.3734 96.3753 27.3128 96.0347 27.1914 95.764C27.0701 95.4933 26.8881 95.2927 26.6454 95.162C26.4121 95.022 26.1134 94.952 25.7494 94.952C25.3294 94.952 24.9701 95.0547 24.6714 95.26C24.3728 95.456 24.1861 95.75 24.1114 96.142H22.7114C22.7674 95.6473 22.9354 95.2273 23.2154 94.882C23.5048 94.5273 23.8734 94.2567 24.3214 94.07C24.7694 93.874 25.2454 93.776 25.7494 93.776C26.4121 93.776 26.9674 93.8927 27.4154 94.126C27.8634 94.3593 28.1994 94.6907 28.4234 95.12C28.6568 95.54 28.7734 96.044 28.7734 96.632V101H27.5554L27.4434 99.81C27.3408 99.9967 27.2194 100.174 27.0794 100.342C26.9394 100.51 26.7714 100.655 26.5754 100.776C26.3888 100.897 26.1694 100.991 25.9174 101.056C25.6748 101.131 25.4041 101.168 25.1054 101.168ZM25.3714 100.034C25.6701 100.034 25.9408 99.9733 26.1834 99.852C26.4261 99.7307 26.6314 99.5673 26.7994 99.362C26.9768 99.1473 27.1074 98.9093 27.1914 98.648C27.2848 98.3773 27.3361 98.102 27.3454 97.822V97.78H25.6794C25.2781 97.78 24.9514 97.8313 24.6994 97.934C24.4568 98.0273 24.2794 98.158 24.1674 98.326C24.0554 98.494 23.9994 98.69 23.9994 98.914C23.9994 99.1473 24.0508 99.348 24.1534 99.516C24.2654 99.6747 24.4241 99.8007 24.6294 99.894C24.8348 99.9873 25.0821 100.034 25.3714 100.034ZM33.322 101C32.874 101 32.4867 100.93 32.16 100.79C31.8333 100.65 31.5813 100.417 31.404 100.09C31.2267 99.7633 31.138 99.32 31.138 98.76V95.134H29.92V93.944H31.138L31.306 92.18H32.538V93.944H34.54V95.134H32.538V98.774C32.538 99.1753 32.622 99.4507 32.79 99.6C32.958 99.74 33.2473 99.81 33.658 99.81H34.47V101H33.322ZM39.0844 101.168C38.4124 101.168 37.8151 101.014 37.2924 100.706C36.7698 100.398 36.3591 99.9687 36.0604 99.418C35.7711 98.8673 35.6264 98.228 35.6264 97.5C35.6264 96.7533 35.7711 96.1047 36.0604 95.554C36.3591 94.994 36.7698 94.56 37.2924 94.252C37.8151 93.9347 38.4218 93.776 39.1124 93.776C39.8031 93.776 40.3958 93.93 40.8904 94.238C41.3851 94.546 41.7678 94.9567 42.0384 95.47C42.3091 95.974 42.4444 96.534 42.4444 97.15C42.4444 97.2433 42.4398 97.346 42.4304 97.458C42.4304 97.5607 42.4258 97.6773 42.4164 97.808H36.6484V96.814H41.0444C41.0164 96.226 40.8204 95.7687 40.4564 95.442C40.0924 95.106 39.6398 94.938 39.0984 94.938C38.7158 94.938 38.3658 95.0267 38.0484 95.204C37.7311 95.372 37.4744 95.624 37.2784 95.96C37.0918 96.2867 36.9984 96.702 36.9984 97.206V97.598C36.9984 98.1207 37.0918 98.564 37.2784 98.928C37.4744 99.2827 37.7311 99.5533 38.0484 99.74C38.3658 99.9173 38.7111 100.006 39.0844 100.006C39.5324 100.006 39.9011 99.908 40.1904 99.712C40.4798 99.516 40.6944 99.25 40.8344 98.914H42.2344C42.1131 99.3433 41.9078 99.7307 41.6184 100.076C41.3291 100.412 40.9698 100.678 40.5404 100.874C40.1204 101.07 39.6351 101.168 39.0844 101.168ZM47.5819 101V93.944H48.8419L48.9259 95.148C49.1499 94.728 49.4672 94.3967 49.8779 94.154C50.2885 93.902 50.7599 93.776 51.2919 93.776C51.8519 93.776 52.3325 93.888 52.7339 94.112C53.1352 94.336 53.4479 94.6767 53.6719 95.134C53.8959 95.582 54.0079 96.1467 54.0079 96.828V101H52.6079V96.968C52.6079 96.3147 52.4632 95.82 52.1739 95.484C51.8845 95.148 51.4645 94.98 50.9139 94.98C50.5499 94.98 50.2232 95.0687 49.9339 95.246C49.6445 95.414 49.4112 95.666 49.2339 96.002C49.0659 96.338 48.9819 96.7487 48.9819 97.234V101H47.5819ZM58.9907 101.168C58.3187 101.168 57.7213 101.014 57.1987 100.706C56.676 100.398 56.2653 99.9687 55.9667 99.418C55.6773 98.8673 55.5327 98.228 55.5327 97.5C55.5327 96.7533 55.6773 96.1047 55.9667 95.554C56.2653 94.994 56.676 94.56 57.1987 94.252C57.7213 93.9347 58.328 93.776 59.0187 93.776C59.7093 93.776 60.302 93.93 60.7967 94.238C61.2913 94.546 61.674 94.9567 61.9447 95.47C62.2153 95.974 62.3507 96.534 62.3507 97.15C62.3507 97.2433 62.346 97.346 62.3367 97.458C62.3367 97.5607 62.332 97.6773 62.3227 97.808H56.5547V96.814H60.9507C60.9227 96.226 60.7267 95.7687 60.3627 95.442C59.9987 95.106 59.546 94.938 59.0047 94.938C58.622 94.938 58.272 95.0267 57.9547 95.204C57.6373 95.372 57.3807 95.624 57.1847 95.96C56.998 96.2867 56.9047 96.702 56.9047 97.206V97.598C56.9047 98.1207 56.998 98.564 57.1847 98.928C57.3807 99.2827 57.6373 99.5533 57.9547 99.74C58.272 99.9173 58.6173 100.006 58.9907 100.006C59.4387 100.006 59.8073 99.908 60.0967 99.712C60.386 99.516 60.6007 99.25 60.7407 98.914H62.1407C62.0193 99.3433 61.814 99.7307 61.5247 100.076C61.2353 100.412 60.876 100.678 60.4467 100.874C60.0267 101.07 59.5413 101.168 58.9907 101.168ZM65.0607 101L62.9887 93.944H64.3747L65.9147 99.824L65.6487 99.81L67.3567 93.944H68.9247L70.6327 99.81L70.3667 99.824L71.8927 93.944H73.3067L71.2347 101H69.7927L68.0007 94.882H68.2807L66.4887 101H65.0607ZM81.4142 101.168C80.7329 101.168 80.1262 101.014 79.5942 100.706C79.0622 100.389 78.6422 99.9547 78.3342 99.404C78.0355 98.8533 77.8862 98.214 77.8862 97.486C77.8862 96.7487 78.0355 96.1047 78.3342 95.554C78.6422 94.994 79.0622 94.56 79.5942 94.252C80.1262 93.9347 80.7329 93.776 81.4142 93.776C82.2729 93.776 82.9915 94 83.5702 94.448C84.1489 94.896 84.5175 95.5027 84.6762 96.268H83.2202C83.1269 95.8573 82.9122 95.54 82.5762 95.316C82.2495 95.092 81.8575 94.98 81.4002 94.98C81.0269 94.98 80.6815 95.078 80.3642 95.274C80.0469 95.4607 79.7902 95.7407 79.5942 96.114C79.4075 96.478 79.3142 96.9307 79.3142 97.472C79.3142 97.8733 79.3702 98.2327 79.4822 98.55C79.5942 98.858 79.7435 99.1193 79.9302 99.334C80.1262 99.5487 80.3502 99.712 80.6022 99.824C80.8542 99.9267 81.1202 99.978 81.4002 99.978C81.7082 99.978 81.9835 99.9313 82.2262 99.838C82.4782 99.7353 82.6882 99.586 82.8562 99.39C83.0335 99.194 83.1549 98.9607 83.2202 98.69H84.6762C84.5175 99.4367 84.1489 100.039 83.5702 100.496C82.9915 100.944 82.2729 101.168 81.4142 101.168ZM86.4123 101V93.944H87.8123V101H86.4123ZM87.1263 92.614C86.8556 92.614 86.6316 92.53 86.4543 92.362C86.2863 92.194 86.2023 91.9793 86.2023 91.718C86.2023 91.466 86.2863 91.2607 86.4543 91.102C86.6316 90.934 86.8556 90.85 87.1263 90.85C87.3876 90.85 87.607 90.934 87.7843 91.102C87.9616 91.2607 88.0503 91.466 88.0503 91.718C88.0503 91.9793 87.9616 92.194 87.7843 92.362C87.607 92.53 87.3876 92.614 87.1263 92.614ZM89.8143 101V93.944H91.0743L91.2003 95.274C91.359 94.9567 91.5643 94.6907 91.8163 94.476C92.0683 94.252 92.3623 94.0793 92.6983 93.958C93.0436 93.8367 93.4356 93.776 93.8743 93.776V95.26H93.3703C93.081 95.26 92.8056 95.2973 92.5443 95.372C92.283 95.4373 92.0496 95.554 91.8443 95.722C91.6483 95.89 91.4943 96.1187 91.3823 96.408C91.2703 96.6973 91.2143 97.0567 91.2143 97.486V101H89.8143ZM98.2169 101.168C97.5356 101.168 96.9289 101.014 96.3969 100.706C95.8649 100.389 95.4449 99.9547 95.1369 99.404C94.8383 98.8533 94.6889 98.214 94.6889 97.486C94.6889 96.7487 94.8383 96.1047 95.1369 95.554C95.4449 94.994 95.8649 94.56 96.3969 94.252C96.9289 93.9347 97.5356 93.776 98.2169 93.776C99.0756 93.776 99.7943 94 100.373 94.448C100.952 94.896 101.32 95.5027 101.479 96.268H100.023C99.9296 95.8573 99.7149 95.54 99.3789 95.316C99.0523 95.092 98.6603 94.98 98.2029 94.98C97.8296 94.98 97.4843 95.078 97.1669 95.274C96.8496 95.4607 96.5929 95.7407 96.3969 96.114C96.2103 96.478 96.1169 96.9307 96.1169 97.472C96.1169 97.8733 96.1729 98.2327 96.2849 98.55C96.3969 98.858 96.5463 99.1193 96.7329 99.334C96.9289 99.5487 97.1529 99.712 97.4049 99.824C97.6569 99.9267 97.9229 99.978 98.2029 99.978C98.5109 99.978 98.7863 99.9313 99.0289 99.838C99.2809 99.7353 99.4909 99.586 99.6589 99.39C99.8363 99.194 99.9576 98.9607 100.023 98.69H101.479C101.32 99.4367 100.952 100.039 100.373 100.496C99.7943 100.944 99.0756 101.168 98.2169 101.168ZM103.117 101V90.92H104.517V101H103.117ZM109.631 101.168C108.959 101.168 108.362 101.014 107.839 100.706C107.317 100.398 106.906 99.9687 106.607 99.418C106.318 98.8673 106.173 98.228 106.173 97.5C106.173 96.7533 106.318 96.1047 106.607 95.554C106.906 94.994 107.317 94.56 107.839 94.252C108.362 93.9347 108.969 93.776 109.659 93.776C110.35 93.776 110.943 93.93 111.437 94.238C111.932 94.546 112.315 94.9567 112.585 95.47C112.856 95.974 112.991 96.534 112.991 97.15C112.991 97.2433 112.987 97.346 112.977 97.458C112.977 97.5607 112.973 97.6773 112.963 97.808H107.195V96.814H111.591C111.563 96.226 111.367 95.7687 111.003 95.442C110.639 95.106 110.187 94.938 109.645 94.938C109.263 94.938 108.913 95.0267 108.595 95.204C108.278 95.372 108.021 95.624 107.825 95.96C107.639 96.2867 107.545 96.702 107.545 97.206V97.598C107.545 98.1207 107.639 98.564 107.825 98.928C108.021 99.2827 108.278 99.5533 108.595 99.74C108.913 99.9173 109.258 100.006 109.631 100.006C110.079 100.006 110.448 99.908 110.737 99.712C111.027 99.516 111.241 99.25 111.381 98.914H112.781C112.66 99.3433 112.455 99.7307 112.165 100.076C111.876 100.412 111.517 100.678 111.087 100.874C110.667 101.07 110.182 101.168 109.631 101.168Z" fill="#0044CC"/>
<rect x="17" width="80" height="80" rx="10" fill="#0044CC"/>
<path d="M57.5 19C45.6253 19 36 28.6253 36 40.5C36 52.3746 45.6253 62 57.5 62C69.3746 62 79 52.3746 79 40.5C79 28.6253 69.3746 19 57.5 19ZM68.7992 37.5285C66.1418 38.467 63.7947 38.1548 58.5551 40.579C61.0564 42.0647 63.0142 42.533 64.7331 42.7681C67.3134 43.0803 69.9727 43.6295 69.9727 45.9728C69.9727 46.8342 69.5815 47.7707 68.9553 48.4741C68.0958 49.4916 66.8432 50.1949 65.6716 50.1949C63.4843 50.1949 62.2318 48.0829 61.5265 46.3621C60.8232 44.9553 60.0408 43.2364 57.7746 41.5156C57.0693 44.1749 57.0693 45.8167 57.0693 47.1445C57.0693 49.1775 57.4624 50.6651 57.2273 52.3051C56.9151 54.8064 55.1153 56.5291 52.693 56.5291C51.2053 56.5291 50.1108 55.3555 50.1108 53.8698C50.1108 50.1159 53.7067 49.7266 56.7571 41.4366C50.502 44.6413 49.6406 47.5338 45.6554 49.4916C44.7151 49.9599 44.0926 50.1178 43.6995 50.1178C41.9035 50.1178 41.0402 48.8653 41.0402 47.3814C41.0402 45.6606 42.3699 44.4118 44.0926 43.7856C47.3744 42.533 50.2688 43.2383 56.4449 40.579C53.7085 38.9372 51.4404 38.546 49.5635 38.1548C47.1393 37.8426 45.0273 37.2953 45.0273 35.0272C45.0273 32.603 47.3725 30.8032 49.5635 30.8032C51.5946 30.8032 52.8472 32.9942 53.5524 34.7131C54.1787 36.1989 55.0363 37.8407 57.2273 39.7176C58.2448 35.7306 57.5395 33.6205 57.5395 31.4313C57.5395 27.7565 58.9462 24.4709 62.2299 24.4709C64.0279 24.4709 64.8892 25.4865 64.8892 27.1283C64.8892 30.8841 60.353 33.6976 58.2429 39.7176C63.3997 36.9812 65.0416 34.636 67.4676 32.9942C68.7973 31.8206 69.9689 30.8032 71.4566 30.8032C73.0984 30.8032 73.956 31.9767 73.956 33.3854C73.956 35.8096 71.9267 37.0602 68.7973 37.5285H68.7992Z" fill="#F8F4EA"/>
</svg>
