<svg width="40" height="21" viewBox="0 0 40 21" fill="none" xmlns="http://www.w3.org/2000/svg">
<path d="M7.07419 16.192C6.25285 16.192 5.53285 16.048 4.91419 15.76C4.29552 15.4613 3.81552 15.0453 3.47419 14.512C3.13285 13.9787 2.96219 13.3547 2.96219 12.64H4.64219C4.65285 13.0453 4.74885 13.4187 4.93019 13.76C5.12219 14.0907 5.39419 14.3573 5.74619 14.56C6.10885 14.752 6.55152 14.848 7.07419 14.848C7.52219 14.848 7.90619 14.7733 8.22619 14.624C8.55685 14.4747 8.80752 14.272 8.97819 14.016C9.14885 13.7493 9.23419 13.4453 9.23419 13.104C9.23419 12.7093 9.14352 12.384 8.96219 12.128C8.78085 11.872 8.53552 11.664 8.22619 11.504C7.92752 11.3333 7.57552 11.184 7.17019 11.056C6.77552 10.928 6.35952 10.7893 5.92219 10.64C5.03685 10.352 4.37552 9.97867 3.93819 9.52C3.51152 9.06133 3.29819 8.464 3.29819 7.728C3.29819 7.09867 3.44752 6.55467 3.74619 6.096C4.04485 5.62667 4.46085 5.264 4.99419 5.008C5.53819 4.74133 6.17819 4.608 6.91419 4.608C7.63952 4.608 8.27419 4.74133 8.81819 5.008C9.36219 5.27467 9.78885 5.64267 10.0982 6.112C10.4075 6.58133 10.5622 7.13067 10.5622 7.76H8.86619C8.86619 7.472 8.79152 7.18933 8.64219 6.912C8.49285 6.63467 8.26885 6.41067 7.97019 6.24C7.67152 6.05867 7.30352 5.968 6.86619 5.968C6.50352 5.95733 6.17819 6.016 5.89019 6.144C5.60219 6.272 5.37819 6.45867 5.21819 6.704C5.05819 6.94933 4.97819 7.24267 4.97819 7.584C4.97819 7.92533 5.04752 8.20267 5.18619 8.416C5.33552 8.61867 5.54885 8.79467 5.82619 8.944C6.10352 9.09333 6.42352 9.232 6.78619 9.36C7.15952 9.47733 7.57019 9.61067 8.01819 9.76C8.57285 9.94133 9.06352 10.1653 9.49019 10.432C9.92752 10.688 10.2689 11.024 10.5142 11.44C10.7702 11.8453 10.8982 12.368 10.8982 13.008C10.8982 13.5627 10.7542 14.08 10.4662 14.56C10.1782 15.04 9.75152 15.4347 9.18619 15.744C8.62085 16.0427 7.91685 16.192 7.07419 16.192ZM15.3928 16.192C14.7315 16.192 14.1821 16.08 13.7448 15.856C13.3075 15.632 12.9821 15.3333 12.7688 14.96C12.5555 14.576 12.4488 14.1653 12.4488 13.728C12.4488 13.1947 12.5875 12.7413 12.8648 12.368C13.1421 11.984 13.5368 11.6907 14.0488 11.488C14.5608 11.2853 15.1741 11.184 15.8888 11.184H17.9848C17.9848 10.7147 17.9155 10.3253 17.7768 10.016C17.6381 9.70667 17.4301 9.47733 17.1528 9.328C16.8861 9.168 16.5448 9.088 16.1288 9.088C15.6488 9.088 15.2381 9.20533 14.8968 9.44C14.5555 9.664 14.3421 10 14.2568 10.448H12.6568C12.7208 9.88267 12.9128 9.40267 13.2328 9.008C13.5635 8.60267 13.9848 8.29333 14.4968 8.08C15.0088 7.856 15.5528 7.744 16.1288 7.744C16.8861 7.744 17.5208 7.87733 18.0328 8.144C18.5448 8.41067 18.9288 8.78933 19.1848 9.28C19.4515 9.76 19.5848 10.336 19.5848 11.008V16H18.1928L18.0648 14.64C17.9475 14.8533 17.8088 15.056 17.6488 15.248C17.4888 15.44 17.2968 15.6053 17.0728 15.744C16.8595 15.8827 16.6088 15.9893 16.3208 16.064C16.0435 16.1493 15.7341 16.192 15.3928 16.192ZM15.6968 14.896C16.0381 14.896 16.3475 14.8267 16.6248 14.688C16.9021 14.5493 17.1368 14.3627 17.3288 14.128C17.5315 13.8827 17.6808 13.6107 17.7768 13.312C17.8835 13.0027 17.9421 12.688 17.9528 12.368V12.32H16.0488C15.5901 12.32 15.2168 12.3787 14.9288 12.496C14.6515 12.6027 14.4488 12.752 14.3208 12.944C14.1928 13.136 14.1288 13.36 14.1288 13.616C14.1288 13.8827 14.1875 14.112 14.3048 14.304C14.4328 14.4853 14.6141 14.6293 14.8488 14.736C15.0835 14.8427 15.3661 14.896 15.6968 14.896ZM23.6338 16L20.6098 7.936H22.2898L24.5778 14.464L26.8818 7.936H28.5298L25.5218 16H23.6338ZM33.2282 16.192C32.4602 16.192 31.7775 16.016 31.1802 15.664C30.5829 15.312 30.1135 14.8213 29.7722 14.192C29.4415 13.5627 29.2762 12.832 29.2762 12C29.2762 11.1467 29.4415 10.4053 29.7722 9.776C30.1135 9.136 30.5829 8.64 31.1802 8.288C31.7775 7.92533 32.4709 7.744 33.2602 7.744C34.0495 7.744 34.7269 7.92 35.2922 8.272C35.8575 8.624 36.2949 9.09333 36.6042 9.68C36.9135 10.256 37.0682 10.896 37.0682 11.6C37.0682 11.7067 37.0629 11.824 37.0522 11.952C37.0522 12.0693 37.0469 12.2027 37.0362 12.352H30.4442V11.216H35.4682C35.4362 10.544 35.2122 10.0213 34.7962 9.648C34.3802 9.264 33.8629 9.072 33.2442 9.072C32.8069 9.072 32.4069 9.17333 32.0442 9.376C31.6815 9.568 31.3882 9.856 31.1642 10.24C30.9509 10.6133 30.8442 11.088 30.8442 11.664V12.112C30.8442 12.7093 30.9509 13.216 31.1642 13.632C31.3882 14.0373 31.6815 14.3467 32.0442 14.56C32.4069 14.7627 32.8015 14.864 33.2282 14.864C33.7402 14.864 34.1615 14.752 34.4922 14.528C34.8229 14.304 35.0682 14 35.2282 13.616H36.8282C36.6895 14.1067 36.4549 14.5493 36.1242 14.944C35.7935 15.328 35.3829 15.632 34.8922 15.856C34.4122 16.08 33.8575 16.192 33.2282 16.192Z" fill="#0E0E0E"/>
</svg>
