<svg width="20" height="20" viewBox="0 0 20 20" fill="none" xmlns="http://www.w3.org/2000/svg">
<path d="M14.6173 12.9027C14.4102 12.6952 14.1292 12.5786 13.836 12.5786H13.5237C13.4382 12.5786 13.3561 12.5455 13.2946 12.4862C13.1687 12.3648 13.1601 12.1667 13.2685 12.0294C14.27 10.7612 14.8656 9.16265 14.8656 7.43282C14.8656 3.32762 11.538 0 7.43282 0C3.32762 0 0 3.32762 0 7.43282C0 11.538 3.32762 14.8656 7.43282 14.8656C9.16265 14.8656 10.7612 14.27 12.0294 13.2685C12.1667 13.1601 12.3648 13.1687 12.4862 13.2946C12.5455 13.3561 12.5786 13.4382 12.5786 13.5237V13.836C12.5786 14.1292 12.6952 14.4102 12.9027 14.6173L17.4434 19.1489C17.9145 19.6191 18.6774 19.6187 19.1481 19.1481C19.6187 18.6774 19.6191 17.9145 19.1489 17.4434L14.6173 12.9027ZM7.43282 12.5786C4.58548 12.5786 2.28702 10.2802 2.28702 7.43282C2.28702 4.58548 4.58548 2.28702 7.43282 2.28702C10.2802 2.28702 12.5786 4.58548 12.5786 7.43282C12.5786 10.2802 10.2802 12.5786 7.43282 12.5786Z" fill="#3A3A3A"/>
</svg>
