<svg width="24" height="22" viewBox="0 0 24 22" fill="none" xmlns="http://www.w3.org/2000/svg">
<path d="M3 22C2.20435 22 1.44129 21.6681 0.87868 21.0774C0.31607 20.4866 0 19.6854 0 18.85V14.35C5.08119e-09 13.992 0.135459 13.6486 0.376577 13.3954C0.617695 13.1422 0.944722 13 1.28571 13C1.62671 13 1.95373 13.1422 2.19485 13.3954C2.43597 13.6486 2.57143 13.992 2.57143 14.35V18.85C2.57143 19.0984 2.76343 19.3 3 19.3H21C21.1137 19.3 21.2227 19.2526 21.303 19.1682C21.3834 19.0838 21.4286 18.9693 21.4286 18.85V14.35C21.4286 13.992 21.564 13.6486 21.8051 13.3954C22.0463 13.1422 22.3733 13 22.7143 13C23.0553 13 23.3823 13.1422 23.6234 13.3954C23.8645 13.6486 24 13.992 24 14.35V18.85C24 19.6854 23.6839 20.4866 23.1213 21.0774C22.5587 21.6681 21.7957 22 21 22H3Z" fill="#0E0E0E"/>
<path d="M13.3127 4.55257L13.3127 14.6666C13.3127 15.0203 13.1744 15.3594 12.9282 15.6095C12.682 15.8595 12.3481 16 12 16C11.6519 16 11.318 15.8595 11.0718 15.6095C10.8256 15.3594 10.6873 15.0203 10.6873 14.6666L10.6873 4.55257L7.23945 8.05312C7.11763 8.17685 6.97301 8.27501 6.81385 8.34197C6.6547 8.40894 6.48411 8.44341 6.31184 8.44341C6.13956 8.44341 5.96898 8.40894 5.80982 8.34197C5.65066 8.27501 5.50605 8.17685 5.38423 8.05312C5.26241 7.92938 5.16578 7.78248 5.09986 7.62081C5.03393 7.45914 5 7.28586 5 7.11087C5 6.93587 5.03393 6.7626 5.09986 6.60093C5.16578 6.43925 5.26241 6.29236 5.38423 6.16862L11.0724 0.390683C11.1941 0.266833 11.3387 0.168578 11.4979 0.101541C11.6571 0.0345033 11.8277 -6.27023e-07 12 -6.11959e-07C12.1723 -5.96896e-07 12.3429 0.0345034 12.5021 0.101541C12.6613 0.168579 12.8059 0.266833 12.9276 0.390684L18.6158 6.16862C18.7376 6.29236 18.8342 6.43926 18.9001 6.60093C18.9661 6.7626 19 6.93588 19 7.11087C19 7.28586 18.9661 7.45914 18.9001 7.62081C18.8342 7.78248 18.7376 7.92938 18.6158 8.05312C18.494 8.17685 18.3493 8.27501 18.1902 8.34197C18.031 8.40894 17.8604 8.44341 17.6882 8.44341C17.5159 8.44341 17.3453 8.40894 17.1861 8.34197C17.027 8.27501 16.8824 8.17685 16.7606 8.05312L13.3127 4.55257Z" fill="#0E0E0E"/>
</svg>
