<svg width="45" height="43" viewBox="0 0 45 43" fill="none" xmlns="http://www.w3.org/2000/svg">
<path d="M22 22C22.4476 22 22.8657 21.8672 23.2171 21.6389C24.2593 20.962 23.2426 19.7436 22 19.7436C20.7574 19.7436 19.7373 20.9642 20.7799 21.6402C21.1307 21.8677 21.5492 22 22 22ZM29.6257 16.1089C29.0649 15.5466 28.75 14.7848 28.75 13.9906V9.58974C28.75 6.39914 27.1844 3.68722 24.4225 2.67985C23.9999 2.52573 23.6875 2.1421 23.6875 1.69231C23.6875 0.755897 22.9338 0 22 0C21.0662 0 20.3125 0.755897 20.3125 1.69231C20.3125 2.14203 20 2.52554 19.5772 2.67895C16.8068 3.68431 15.25 6.38799 15.25 9.58974V13.9906C15.25 14.7848 14.9351 15.5466 14.3743 16.1089L13.233 17.2535C13.0838 17.4032 13 17.6058 13 17.8172C13 18.258 13.3574 18.6154 13.7982 18.6154H30.2018C30.6426 18.6154 31 18.258 31 17.8172C31 17.6058 30.9162 17.4032 30.767 17.2535L29.6257 16.1089Z" fill="#3A3A3A"/>
<path d="M3.26807 40.156C2.73074 40.156 2.28441 40.065 1.92907 39.883C1.57374 39.701 1.30941 39.4583 1.13607 39.155C0.962741 38.8517 0.876074 38.5223 0.876074 38.167C0.876074 37.5083 1.12741 37.0013 1.63007 36.646C2.13274 36.2907 2.81741 36.113 3.68407 36.113H5.42607V36.035C5.42607 35.4717 5.27874 35.047 4.98407 34.761C4.68941 34.4663 4.29507 34.319 3.80107 34.319C3.37641 34.319 3.00807 34.4273 2.69607 34.644C2.39274 34.852 2.20207 35.1597 2.12407 35.567H1.00607C1.04941 35.099 1.20541 34.7047 1.47407 34.384C1.75141 34.0633 2.09374 33.8207 2.50107 33.656C2.90841 33.4827 3.34174 33.396 3.80107 33.396C4.70241 33.396 5.37841 33.6387 5.82907 34.124C6.28841 34.6007 6.51807 35.2377 6.51807 36.035V40H5.54307L5.47807 38.843C5.29607 39.207 5.02741 39.519 4.67207 39.779C4.32541 40.0303 3.85741 40.156 3.26807 40.156ZM3.43707 39.233C3.85307 39.233 4.20841 39.1247 4.50307 38.908C4.80641 38.6913 5.03607 38.4097 5.19207 38.063C5.34807 37.7163 5.42607 37.3523 5.42607 36.971V36.958H3.77507C3.13374 36.958 2.67874 37.0707 2.41007 37.296C2.15007 37.5127 2.02007 37.7857 2.02007 38.115C2.02007 38.453 2.14141 38.726 2.38407 38.934C2.63541 39.1333 2.98641 39.233 3.43707 39.233ZM11.1203 40.156C10.5049 40.156 9.95028 40.0173 9.45628 39.74C8.97094 39.454 8.58528 39.0597 8.29928 38.557C8.02194 38.0457 7.88328 37.452 7.88328 36.776C7.88328 36.1 8.02194 35.5107 8.29928 35.008C8.58528 34.4967 8.97094 34.1023 9.45628 33.825C9.95028 33.539 10.5049 33.396 11.1203 33.396C11.8829 33.396 12.5243 33.5953 13.0443 33.994C13.5729 34.3927 13.9066 34.9257 14.0453 35.593H12.9273C12.8406 35.1943 12.6283 34.8867 12.2903 34.67C11.9523 34.4447 11.5579 34.332 11.1073 34.332C10.7433 34.332 10.4009 34.423 10.0803 34.605C9.75961 34.787 9.49961 35.06 9.30028 35.424C9.10094 35.788 9.00128 36.2387 9.00128 36.776C9.00128 37.3133 9.10094 37.764 9.30028 38.128C9.49961 38.492 9.75961 38.7693 10.0803 38.96C10.4009 39.142 10.7433 39.233 11.1073 39.233C11.5579 39.233 11.9523 39.1247 12.2903 38.908C12.6283 38.6827 12.8406 38.3663 12.9273 37.959H14.0453C13.9153 38.609 13.5859 39.1377 13.0573 39.545C12.5286 39.9523 11.8829 40.156 11.1203 40.156ZM17.9406 40C17.3513 40 16.8876 39.857 16.5496 39.571C16.2116 39.285 16.0426 38.7693 16.0426 38.024V34.475H14.9246V33.552H16.0426L16.1856 32.005H17.1346V33.552H19.0326V34.475H17.1346V38.024C17.1346 38.4313 17.2169 38.7087 17.3816 38.856C17.5463 38.9947 17.8366 39.064 18.2526 39.064H18.9286V40H17.9406ZM21.0829 32.122C20.8663 32.122 20.6843 32.0527 20.5369 31.914C20.3983 31.7667 20.3289 31.5847 20.3289 31.368C20.3289 31.16 20.3983 30.9867 20.5369 30.848C20.6843 30.7093 20.8663 30.64 21.0829 30.64C21.2909 30.64 21.4686 30.7093 21.6159 30.848C21.7633 30.9867 21.8369 31.16 21.8369 31.368C21.8369 31.5847 21.7633 31.7667 21.6159 31.914C21.4686 32.0527 21.2909 32.122 21.0829 32.122ZM20.5369 40V33.552H21.6289V40H20.5369ZM25.3893 40L22.9453 33.552H24.0893L26.0263 38.947L27.9763 33.552H29.0943L26.6503 40H25.3893ZM30.9726 32.122C30.7559 32.122 30.5739 32.0527 30.4266 31.914C30.2879 31.7667 30.2186 31.5847 30.2186 31.368C30.2186 31.16 30.2879 30.9867 30.4266 30.848C30.5739 30.7093 30.7559 30.64 30.9726 30.64C31.1806 30.64 31.3583 30.7093 31.5056 30.848C31.6529 30.9867 31.7266 31.16 31.7266 31.368C31.7266 31.5847 31.6529 31.7667 31.5056 31.914C31.3583 32.0527 31.1806 32.122 30.9726 32.122ZM30.4266 40V33.552H31.5186V40H30.4266ZM35.9679 40C35.3786 40 34.9149 39.857 34.5769 39.571C34.2389 39.285 34.0699 38.7693 34.0699 38.024V34.475H32.9519V33.552H34.0699L34.2129 32.005H35.1619V33.552H37.0599V34.475H35.1619V38.024C35.1619 38.4313 35.2443 38.7087 35.4089 38.856C35.5736 38.9947 35.8639 39.064 36.2799 39.064H36.9559V40H35.9679ZM39.1493 42.86L40.7483 39.376H40.3713L37.8103 33.552H38.9933L41.1253 38.57L43.3873 33.552H44.5183L40.2933 42.86H39.1493Z" fill="#3A3A3A"/>
</svg>
