<svg width="380" height="45" viewBox="0 0 380 45" fill="none" xmlns="http://www.w3.org/2000/svg">
<rect width="380" height="45" rx="22.5" fill="#0044CC"/>
<path d="M143.974 28L148.36 16.1H149.873L154.242 28H152.729L149.108 17.885L145.47 28H143.974ZM145.98 24.94L146.388 23.784H151.777L152.185 24.94H145.98ZM159.269 28.204C158.442 28.204 157.711 28.0113 157.076 27.626C156.453 27.2293 155.965 26.6967 155.614 26.028C155.274 25.348 155.104 24.5773 155.104 23.716C155.104 22.8547 155.274 22.0897 155.614 21.421C155.965 20.7523 156.453 20.231 157.076 19.857C157.711 19.4717 158.447 19.279 159.286 19.279C159.977 19.279 160.589 19.4207 161.122 19.704C161.655 19.9873 162.063 20.384 162.346 20.894V15.76H163.774V28H162.482L162.346 26.606C162.176 26.878 161.949 27.1387 161.666 27.388C161.383 27.626 161.043 27.8243 160.646 27.983C160.249 28.1303 159.79 28.204 159.269 28.204ZM159.422 26.963C159.989 26.963 160.487 26.8327 160.918 26.572C161.36 26.3 161.7 25.9203 161.938 25.433C162.176 24.9457 162.295 24.379 162.295 23.733C162.295 23.087 162.176 22.526 161.938 22.05C161.7 21.5627 161.36 21.1887 160.918 20.928C160.487 20.656 159.989 20.52 159.422 20.52C158.878 20.52 158.385 20.656 157.943 20.928C157.512 21.1887 157.172 21.5627 156.923 22.05C156.685 22.526 156.566 23.087 156.566 23.733C156.566 24.379 156.685 24.9457 156.923 25.433C157.172 25.9203 157.512 26.3 157.943 26.572C158.385 26.8327 158.878 26.963 159.422 26.963ZM169.944 28.204C169.117 28.204 168.386 28.0113 167.751 27.626C167.128 27.2293 166.64 26.6967 166.289 26.028C165.949 25.348 165.779 24.5773 165.779 23.716C165.779 22.8547 165.949 22.0897 166.289 21.421C166.64 20.7523 167.128 20.231 167.751 19.857C168.386 19.4717 169.122 19.279 169.961 19.279C170.652 19.279 171.264 19.4207 171.797 19.704C172.33 19.9873 172.738 20.384 173.021 20.894V15.76H174.449V28H173.157L173.021 26.606C172.851 26.878 172.624 27.1387 172.341 27.388C172.058 27.626 171.718 27.8243 171.321 27.983C170.924 28.1303 170.465 28.204 169.944 28.204ZM170.097 26.963C170.664 26.963 171.162 26.8327 171.593 26.572C172.035 26.3 172.375 25.9203 172.613 25.433C172.851 24.9457 172.97 24.379 172.97 23.733C172.97 23.087 172.851 22.526 172.613 22.05C172.375 21.5627 172.035 21.1887 171.593 20.928C171.162 20.656 170.664 20.52 170.097 20.52C169.553 20.52 169.06 20.656 168.618 20.928C168.187 21.1887 167.847 21.5627 167.598 22.05C167.36 22.526 167.241 23.087 167.241 23.733C167.241 24.379 167.36 24.9457 167.598 25.433C167.847 25.9203 168.187 26.3 168.618 26.572C169.06 26.8327 169.553 26.963 170.097 26.963ZM181.428 28V16.1H185.321C186.251 16.1 187.016 16.253 187.616 16.559C188.217 16.865 188.665 17.2843 188.959 17.817C189.254 18.3383 189.401 18.9277 189.401 19.585C189.401 20.2423 189.254 20.8317 188.959 21.353C188.676 21.8743 188.234 22.2937 187.633 22.611C187.033 22.917 186.262 23.07 185.321 23.07H182.856V28H181.428ZM182.856 21.863H185.287C186.239 21.863 186.919 21.659 187.327 21.251C187.735 20.843 187.939 20.2877 187.939 19.585C187.939 18.8597 187.735 18.2987 187.327 17.902C186.919 17.494 186.239 17.29 185.287 17.29H182.856V21.863ZM191.341 28V19.483H192.769V28H191.341ZM192.055 17.63C191.771 17.63 191.533 17.5393 191.341 17.358C191.159 17.1653 191.069 16.9273 191.069 16.644C191.069 16.3607 191.159 16.134 191.341 15.964C191.533 15.7827 191.771 15.692 192.055 15.692C192.327 15.692 192.559 15.7827 192.752 15.964C192.944 16.134 193.041 16.3607 193.041 16.644C193.041 16.9273 192.944 17.1653 192.752 17.358C192.559 17.5393 192.327 17.63 192.055 17.63ZM199.131 28.204C198.326 28.204 197.601 28.017 196.955 27.643C196.32 27.269 195.816 26.7477 195.442 26.079C195.079 25.4103 194.898 24.634 194.898 23.75C194.898 22.8433 195.079 22.0613 195.442 21.404C195.816 20.7353 196.32 20.214 196.955 19.84C197.601 19.466 198.326 19.279 199.131 19.279C200.151 19.279 201.001 19.5397 201.681 20.061C202.361 20.5823 202.792 21.285 202.973 22.169H201.511C201.398 21.6363 201.12 21.2283 200.678 20.945C200.236 20.6503 199.715 20.503 199.114 20.503C198.627 20.503 198.173 20.622 197.754 20.86C197.346 21.098 197.012 21.4607 196.751 21.948C196.49 22.424 196.36 23.019 196.36 23.733C196.36 24.2657 196.434 24.736 196.581 25.144C196.74 25.552 196.944 25.8977 197.193 26.181C197.442 26.453 197.731 26.657 198.06 26.793C198.4 26.929 198.751 26.997 199.114 26.997C199.522 26.997 199.885 26.9347 200.202 26.81C200.531 26.674 200.808 26.4813 201.035 26.232C201.273 25.9713 201.432 25.6653 201.511 25.314H202.973C202.792 26.1753 202.355 26.8723 201.664 27.405C200.984 27.9377 200.14 28.204 199.131 28.204ZM208.101 28C207.591 28 207.149 27.9207 206.775 27.762C206.401 27.6033 206.112 27.337 205.908 26.963C205.715 26.5777 205.619 26.062 205.619 25.416V20.69H204.14V19.483H205.619L205.806 17.426H207.047V19.483H209.529V20.69H207.047V25.416C207.047 25.9487 207.154 26.3113 207.37 26.504C207.585 26.6853 207.965 26.776 208.509 26.776H209.41V28H208.101ZM214.47 28.204C213.812 28.204 213.234 28.0737 212.736 27.813C212.248 27.5523 211.869 27.15 211.597 26.606C211.336 26.062 211.206 25.3763 211.206 24.549V19.483H212.634V24.396C212.634 25.2573 212.815 25.9033 213.178 26.334C213.552 26.7647 214.09 26.98 214.793 26.98C215.269 26.98 215.699 26.8667 216.085 26.64C216.47 26.402 216.77 26.062 216.986 25.62C217.212 25.178 217.326 24.634 217.326 23.988V19.483H218.754V28H217.462L217.377 26.504C217.105 27.0367 216.714 27.456 216.204 27.762C215.694 28.0567 215.116 28.204 214.47 28.204ZM221.104 28V19.483H222.396L222.515 21.115C222.707 20.7183 222.951 20.384 223.246 20.112C223.552 19.84 223.914 19.636 224.334 19.5C224.753 19.3527 225.229 19.279 225.762 19.279V20.775H225.269C224.906 20.775 224.56 20.826 224.232 20.928C223.903 21.0187 223.608 21.1717 223.348 21.387C223.098 21.591 222.9 21.88 222.753 22.254C222.605 22.628 222.532 23.087 222.532 23.631V28H221.104ZM230.821 28.204C230.028 28.204 229.319 28.017 228.696 27.643C228.073 27.269 227.58 26.7477 227.217 26.079C226.866 25.4103 226.69 24.6283 226.69 23.733C226.69 22.8377 226.866 22.0557 227.217 21.387C227.568 20.7183 228.056 20.2027 228.679 19.84C229.314 19.466 230.039 19.279 230.855 19.279C231.694 19.279 232.408 19.466 232.997 19.84C233.586 20.2027 234.034 20.69 234.34 21.302C234.657 21.9027 234.816 22.56 234.816 23.274C234.816 23.3873 234.816 23.5063 234.816 23.631C234.816 23.7557 234.81 23.8973 234.799 24.056H227.761V22.951H233.405C233.371 22.1803 233.11 21.5797 232.623 21.149C232.147 20.707 231.546 20.486 230.821 20.486C230.345 20.486 229.897 20.5937 229.478 20.809C229.059 21.0243 228.719 21.3417 228.458 21.761C228.209 22.1803 228.084 22.7073 228.084 23.342V23.818C228.084 24.5207 228.214 25.11 228.475 25.586C228.736 26.0507 229.07 26.402 229.478 26.64C229.897 26.878 230.345 26.997 230.821 26.997C231.422 26.997 231.915 26.8667 232.3 26.606C232.697 26.334 232.986 25.9657 233.167 25.501H234.578C234.431 26.0223 234.187 26.487 233.847 26.895C233.507 27.2917 233.082 27.609 232.572 27.847C232.073 28.085 231.49 28.204 230.821 28.204Z" fill="#F8F4EA"/>
</svg>
