<svg width="21" height="21" viewBox="0 0 21 21" fill="none" xmlns="http://www.w3.org/2000/svg">
<path d="M10.5 19.125C8.79414 19.125 7.12658 18.6192 5.70821 17.6714C4.28983 16.7237 3.18434 15.3767 2.53154 13.8006C1.87873 12.2246 1.70793 10.4904 2.04073 8.81735C2.37352 7.14426 3.19498 5.60744 4.4012 4.40121C5.60743 3.19498 7.14426 2.37353 8.81735 2.04073C10.4904 1.70793 12.2246 1.87874 13.8006 2.53154C15.3767 3.18435 16.7237 4.28984 17.6714 5.70821C18.6192 7.12658 19.125 8.79414 19.125 10.5C19.125 11.926 18.78 13.2705 18.1667 14.455L19.125 19.125L14.455 18.1667C13.2705 18.78 11.925 19.125 10.5 19.125Z" stroke="white" stroke-width="2" stroke-linecap="round" stroke-linejoin="round"/>
</svg>
