<svg width="56" height="14" viewBox="0 0 56 14" fill="none" xmlns="http://www.w3.org/2000/svg">
<path d="M6.99472 13.216C5.75872 13.216 4.69072 12.946 3.79072 12.406C2.90272 11.854 2.21272 11.092 1.72072 10.12C1.22872 9.136 0.982719 7.996 0.982719 6.7C0.982719 5.416 1.22872 4.288 1.72072 3.316C2.21272 2.332 2.90272 1.564 3.79072 1.012C4.69072 0.46 5.75872 0.184 6.99472 0.184C8.43472 0.184 9.60472 0.532 10.5047 1.228C11.4167 1.912 11.9987 2.872 12.2507 4.108H10.5767C10.3847 3.328 9.98872 2.704 9.38872 2.236C8.80072 1.756 8.00272 1.516 6.99472 1.516C6.09472 1.516 5.30872 1.726 4.63672 2.146C3.96472 2.554 3.44272 3.148 3.07072 3.928C2.71072 4.696 2.53072 5.62 2.53072 6.7C2.53072 7.78 2.71072 8.71 3.07072 9.49C3.44272 10.258 3.96472 10.852 4.63672 11.272C5.30872 11.68 6.09472 11.884 6.99472 11.884C8.00272 11.884 8.80072 11.656 9.38872 11.2C9.98872 10.732 10.3847 10.114 10.5767 9.346H12.2507C11.9987 10.558 11.4167 11.506 10.5047 12.19C9.60472 12.874 8.43472 13.216 6.99472 13.216ZM14.3338 13V4.072H15.7018L15.8278 5.782C16.1038 5.194 16.5238 4.726 17.0878 4.378C17.6518 4.03 18.3478 3.856 19.1758 3.856V5.44H18.7618C18.2338 5.44 17.7478 5.536 17.3038 5.728C16.8598 5.908 16.5058 6.22 16.2418 6.664C15.9778 7.108 15.8458 7.72 15.8458 8.5V13H14.3338ZM24.5529 13.216C23.7009 13.216 22.9449 13.024 22.2849 12.64C21.6249 12.244 21.1029 11.698 20.7189 11.002C20.3469 10.306 20.1609 9.484 20.1609 8.536C20.1609 7.6 20.3469 6.784 20.7189 6.088C21.0909 5.38 21.6069 4.834 22.2669 4.45C22.9389 4.054 23.7129 3.856 24.5889 3.856C25.4529 3.856 26.1969 4.054 26.8209 4.45C27.4569 4.834 27.9429 5.344 28.2789 5.98C28.6149 6.616 28.7829 7.3 28.7829 8.032C28.7829 8.164 28.7769 8.296 28.7649 8.428C28.7649 8.56 28.7649 8.71 28.7649 8.878H21.6549C21.6909 9.562 21.8469 10.132 22.1229 10.588C22.4109 11.032 22.7649 11.368 23.1849 11.596C23.6169 11.824 24.0729 11.938 24.5529 11.938C25.1769 11.938 25.6989 11.794 26.1189 11.506C26.5389 11.218 26.8449 10.828 27.0369 10.336H28.5309C28.2909 11.164 27.8289 11.854 27.1449 12.406C26.4729 12.946 25.6089 13.216 24.5529 13.216ZM24.5529 5.134C23.8329 5.134 23.1909 5.356 22.6269 5.8C22.0749 6.232 21.7569 6.868 21.6729 7.708H27.2889C27.2529 6.904 26.9769 6.274 26.4609 5.818C25.9449 5.362 25.3089 5.134 24.5529 5.134ZM33.7569 13.216C33.0129 13.216 32.3949 13.09 31.9029 12.838C31.4109 12.586 31.0449 12.25 30.8049 11.83C30.5649 11.41 30.4449 10.954 30.4449 10.462C30.4449 9.55 30.7929 8.848 31.4889 8.356C32.1849 7.864 33.1329 7.618 34.3329 7.618H36.7449V7.51C36.7449 6.73 36.5409 6.142 36.1329 5.746C35.7249 5.338 35.1789 5.134 34.4949 5.134C33.9069 5.134 33.3969 5.284 32.9649 5.584C32.5449 5.872 32.2809 6.298 32.1729 6.862H30.6249C30.6849 6.214 30.9009 5.668 31.2729 5.224C31.6569 4.78 32.1309 4.444 32.6949 4.216C33.2589 3.976 33.8589 3.856 34.4949 3.856C35.7429 3.856 36.6789 4.192 37.3029 4.864C37.9389 5.524 38.2569 6.406 38.2569 7.51V13H36.9069L36.8169 11.398C36.5649 11.902 36.1929 12.334 35.7009 12.694C35.2209 13.042 34.5729 13.216 33.7569 13.216ZM33.9909 11.938C34.5669 11.938 35.0589 11.788 35.4669 11.488C35.8869 11.188 36.2049 10.798 36.4209 10.318C36.6369 9.838 36.7449 9.334 36.7449 8.806V8.788H34.4589C33.5709 8.788 32.9409 8.944 32.5689 9.256C32.2089 9.556 32.0289 9.934 32.0289 10.39C32.0289 10.858 32.1969 11.236 32.5329 11.524C32.8809 11.8 33.3669 11.938 33.9909 11.938ZM43.8071 13C42.9911 13 42.3491 12.802 41.8811 12.406C41.4131 12.01 41.1791 11.296 41.1791 10.264V5.35H39.6311V4.072H41.1791L41.3771 1.93H42.6911V4.072H45.3191V5.35H42.6911V10.264C42.6911 10.828 42.8051 11.212 43.0331 11.416C43.2611 11.608 43.6631 11.704 44.2391 11.704H45.1751V13H43.8071ZM51.008 13.216C50.156 13.216 49.4 13.024 48.74 12.64C48.08 12.244 47.558 11.698 47.174 11.002C46.802 10.306 46.616 9.484 46.616 8.536C46.616 7.6 46.802 6.784 47.174 6.088C47.546 5.38 48.062 4.834 48.722 4.45C49.394 4.054 50.168 3.856 51.044 3.856C51.908 3.856 52.652 4.054 53.276 4.45C53.912 4.834 54.398 5.344 54.734 5.98C55.07 6.616 55.238 7.3 55.238 8.032C55.238 8.164 55.232 8.296 55.22 8.428C55.22 8.56 55.22 8.71 55.22 8.878H48.11C48.146 9.562 48.302 10.132 48.578 10.588C48.866 11.032 49.22 11.368 49.64 11.596C50.072 11.824 50.528 11.938 51.008 11.938C51.632 11.938 52.154 11.794 52.574 11.506C52.994 11.218 53.3 10.828 53.492 10.336H54.986C54.746 11.164 54.284 11.854 53.6 12.406C52.928 12.946 52.064 13.216 51.008 13.216ZM51.008 5.134C50.288 5.134 49.646 5.356 49.082 5.8C48.53 6.232 48.212 6.868 48.128 7.708H53.744C53.708 6.904 53.432 6.274 52.916 5.818C52.4 5.362 51.764 5.134 51.008 5.134Z" fill="#0E0E0E"/>
</svg>
