<svg width="44" height="43" viewBox="0 0 44 43" fill="none" xmlns="http://www.w3.org/2000/svg">
<path d="M22.3616 0.604658C21.8445 0.241772 21.1555 0.241772 20.6384 0.604659L12.6384 6.21869C12.2382 6.4995 12 6.95768 12 7.44653V18.5C12 19.3284 12.6716 20 13.5 20H16.4375C17.2659 20 17.9375 19.3284 17.9375 18.5V13.7222C17.9375 12.8938 18.6091 12.2222 19.4375 12.2222H23.5625C24.3909 12.2222 25.0625 12.8938 25.0625 13.7222V18.5C25.0625 19.3284 25.7341 20 26.5625 20H29.5C30.3284 20 31 19.3284 31 18.5V7.44653C31 6.95768 30.7618 6.4995 30.3616 6.21869L22.3616 0.604658Z" fill="#3A3A3A"/>
<path d="M3.19981 40.156C2.58448 40.156 2.03848 40.0173 1.56181 39.74C1.08514 39.454 0.708142 39.0597 0.430809 38.557C0.162142 38.0543 0.0278086 37.4607 0.0278086 36.776C0.0278086 36.1 0.162142 35.5107 0.430809 35.008C0.699475 34.4967 1.07214 34.1023 1.54881 33.825C2.03414 33.539 2.59314 33.396 3.22581 33.396C3.84981 33.396 4.38714 33.539 4.83781 33.825C5.29714 34.1023 5.64814 34.4707 5.89081 34.93C6.13348 35.3893 6.25481 35.8833 6.25481 36.412C6.25481 36.5073 6.25048 36.6027 6.24181 36.698C6.24181 36.7933 6.24181 36.9017 6.24181 37.023H1.10681C1.13281 37.517 1.24548 37.9287 1.44481 38.258C1.65281 38.5787 1.90848 38.8213 2.21181 38.986C2.52381 39.1507 2.85314 39.233 3.19981 39.233C3.65048 39.233 4.02748 39.129 4.33081 38.921C4.63414 38.713 4.85514 38.4313 4.99381 38.076H6.07281C5.89948 38.674 5.56581 39.1723 5.07181 39.571C4.58648 39.961 3.96248 40.156 3.19981 40.156ZM3.19981 34.319C2.67981 34.319 2.21614 34.4793 1.80881 34.8C1.41014 35.112 1.18048 35.5713 1.11981 36.178H5.17581C5.14981 35.5973 4.95048 35.1423 4.57781 34.813C4.20514 34.4837 3.74581 34.319 3.19981 34.319ZM6.74749 40L8.98349 36.776L6.74749 33.552H7.93049L9.73749 36.217L11.5575 33.552H12.7275L10.4915 36.776L12.7275 40H11.5575L9.73749 37.335L7.93049 40H6.74749ZM13.8721 42.86V33.552H14.8601L14.9641 34.618C15.1721 34.306 15.4668 34.0243 15.8481 33.773C16.2381 33.5217 16.7321 33.396 17.3301 33.396C17.9714 33.396 18.5304 33.5433 19.0071 33.838C19.4838 34.1327 19.8521 34.5357 20.1121 35.047C20.3808 35.5583 20.5151 36.139 20.5151 36.789C20.5151 37.439 20.3808 38.0197 20.1121 38.531C19.8521 39.0337 19.4794 39.4323 18.9941 39.727C18.5174 40.013 17.9584 40.156 17.3171 40.156C16.7884 40.156 16.3161 40.0477 15.9001 39.831C15.4928 39.6143 15.1808 39.311 14.9641 38.921V42.86H13.8721ZM17.2001 39.207C17.6334 39.207 18.0148 39.1073 18.3441 38.908C18.6734 38.7 18.9334 38.414 19.1241 38.05C19.3148 37.686 19.4101 37.2613 19.4101 36.776C19.4101 36.2907 19.3148 35.866 19.1241 35.502C18.9334 35.138 18.6734 34.8563 18.3441 34.657C18.0148 34.449 17.6334 34.345 17.2001 34.345C16.7668 34.345 16.3854 34.449 16.0561 34.657C15.7268 34.8563 15.4668 35.138 15.2761 35.502C15.0854 35.866 14.9901 36.2907 14.9901 36.776C14.9901 37.2613 15.0854 37.686 15.2761 38.05C15.4668 38.414 15.7268 38.7 16.0561 38.908C16.3854 39.1073 16.7668 39.207 17.2001 39.207ZM22.0352 40V30.64H23.1272V40H22.0352ZM27.855 40.156C27.2484 40.156 26.7024 40.0173 26.217 39.74C25.7317 39.4627 25.346 39.0727 25.06 38.57C24.7827 38.0587 24.644 37.4607 24.644 36.776C24.644 36.0913 24.787 35.4977 25.073 34.995C25.359 34.4837 25.7447 34.0893 26.23 33.812C26.724 33.5347 27.2744 33.396 27.881 33.396C28.4877 33.396 29.0337 33.5347 29.519 33.812C30.0044 34.0893 30.3857 34.4837 30.663 34.995C30.949 35.4977 31.092 36.0913 31.092 36.776C31.092 37.4607 30.949 38.0587 30.663 38.57C30.377 39.0727 29.987 39.4627 29.493 39.74C29.0077 40.0173 28.4617 40.156 27.855 40.156ZM27.855 39.22C28.2277 39.22 28.5744 39.129 28.895 38.947C29.2157 38.765 29.4757 38.492 29.675 38.128C29.8744 37.764 29.974 37.3133 29.974 36.776C29.974 36.2387 29.8744 35.788 29.675 35.424C29.4844 35.06 29.2287 34.787 28.908 34.605C28.5874 34.423 28.245 34.332 27.881 34.332C27.5084 34.332 27.1617 34.423 26.841 34.605C26.5204 34.787 26.2604 35.06 26.061 35.424C25.8617 35.788 25.762 36.2387 25.762 36.776C25.762 37.3133 25.8617 37.764 26.061 38.128C26.2604 38.492 26.516 38.765 26.828 38.947C27.1487 39.129 27.491 39.22 27.855 39.22ZM32.6104 40V33.552H33.5984L33.6894 34.787C33.8887 34.3623 34.192 34.0243 34.5994 33.773C35.0067 33.5217 35.5094 33.396 36.1074 33.396V34.54H35.8084C35.427 34.54 35.076 34.6093 34.7554 34.748C34.4347 34.878 34.179 35.1033 33.9884 35.424C33.7977 35.7447 33.7024 36.1867 33.7024 36.75V40H32.6104ZM39.9908 40.156C39.3755 40.156 38.8295 40.0173 38.3528 39.74C37.8762 39.454 37.4992 39.0597 37.2218 38.557C36.9532 38.0543 36.8188 37.4607 36.8188 36.776C36.8188 36.1 36.9532 35.5107 37.2218 35.008C37.4905 34.4967 37.8632 34.1023 38.3398 33.825C38.8252 33.539 39.3842 33.396 40.0168 33.396C40.6408 33.396 41.1782 33.539 41.6288 33.825C42.0882 34.1023 42.4392 34.4707 42.6818 34.93C42.9245 35.3893 43.0458 35.8833 43.0458 36.412C43.0458 36.5073 43.0415 36.6027 43.0328 36.698C43.0328 36.7933 43.0328 36.9017 43.0328 37.023H37.8978C37.9238 37.517 38.0365 37.9287 38.2358 38.258C38.4438 38.5787 38.6995 38.8213 39.0028 38.986C39.3148 39.1507 39.6442 39.233 39.9908 39.233C40.4415 39.233 40.8185 39.129 41.1218 38.921C41.4252 38.713 41.6462 38.4313 41.7848 38.076H42.8638C42.6905 38.674 42.3568 39.1723 41.8628 39.571C41.3775 39.961 40.7535 40.156 39.9908 40.156ZM39.9908 34.319C39.4708 34.319 39.0072 34.4793 38.5998 34.8C38.2012 35.112 37.9715 35.5713 37.9108 36.178H41.9668C41.9408 35.5973 41.7415 35.1423 41.3688 34.813C40.9962 34.4837 40.5368 34.319 39.9908 34.319Z" fill="#3A3A3A"/>
</svg>
