<svg width="181" height="181" viewBox="0 0 181 181" fill="none" xmlns="http://www.w3.org/2000/svg">
<path d="M90.5 0C58.7422 0 33 25.7422 33 57.5C33 89.2578 58.7422 115 90.5 115C122.258 115 148 89.2578 148 57.5C148 25.7422 122.258 0 90.5 0ZM120.719 49.553C113.612 52.0628 107.335 51.2279 93.3217 57.7112C100.011 61.6847 105.247 62.9371 109.844 63.5659C116.745 64.4008 123.857 65.8695 123.857 72.1365C123.857 74.4402 122.811 76.945 121.136 78.8261C118.838 81.5472 115.488 83.4283 112.354 83.4283C106.505 83.4283 103.155 77.7799 101.269 73.1777C99.3876 69.4155 97.2952 64.8183 91.2343 60.2161C89.3482 67.3281 89.3482 71.7191 89.3482 75.2701C89.3482 80.7072 90.3994 84.6857 89.7707 89.0717C88.9357 95.7612 84.1223 100.368 77.644 100.368C73.6655 100.368 70.7381 97.2299 70.7381 93.2564C70.7381 83.2171 80.355 82.1759 88.5133 60.0048C71.7843 68.5755 69.4807 76.3112 58.8227 81.5472C56.3078 82.7996 54.643 83.2221 53.5918 83.2221C48.7884 83.2221 46.4797 79.8723 46.4797 75.9038C46.4797 71.3016 50.0357 67.9619 54.643 66.2869C63.4199 62.9371 71.1606 64.8233 87.6783 57.7112C80.36 53.3203 74.2942 52.2741 69.2745 51.2279C62.7912 50.393 57.1428 48.9293 57.1428 42.8635C57.1428 36.3801 63.4148 31.5667 69.2745 31.5667C74.7066 31.5667 78.0564 37.4263 79.9426 42.0235C81.6175 45.997 83.911 50.3879 89.7707 55.4076C92.4918 44.7446 90.6056 39.1012 90.6056 33.2466C90.6056 23.4185 94.3679 14.6315 103.15 14.6315C107.958 14.6315 110.262 17.3476 110.262 21.7385C110.262 31.7829 98.1301 39.3074 92.4867 55.4076C106.278 48.0894 110.669 41.8173 117.158 37.4263C120.714 34.2877 123.847 31.5667 127.826 31.5667C132.217 31.5667 134.51 34.7052 134.51 38.4725C134.51 44.9558 129.083 48.3006 120.714 49.553H120.719Z" fill="#0044CC"/>
<path d="M14.5502 168.517C11.9081 168.517 9.66812 167.986 7.83017 166.923C6.02094 165.832 4.6712 164.31 3.78094 162.357C2.89068 160.404 2.51735 158.135 2.66094 155.551C2.74709 152.966 3.2353 150.568 4.12556 148.357C5.04453 146.117 6.2794 144.178 7.83017 142.542C9.40966 140.876 11.2189 139.598 13.2579 138.708C15.3256 137.789 17.5512 137.329 19.9348 137.329C23.4384 137.329 26.1522 138.176 28.0763 139.871C30.0004 141.565 30.9912 143.949 31.0486 147.022H26.2671C26.2097 145.212 25.5922 143.791 24.4148 142.757C23.2661 141.694 21.5574 141.163 19.2886 141.163C17.5943 141.163 16.0291 141.522 14.5932 142.24C13.1574 142.929 11.8938 143.906 10.8025 145.169C9.7112 146.433 8.8353 147.926 8.17479 149.649C7.54299 151.344 7.18402 153.21 7.09786 155.249C7.01171 157.231 7.27017 158.925 7.87325 160.332C8.47632 161.739 9.3953 162.816 10.6302 163.563C11.8938 164.31 13.4158 164.683 15.1963 164.683C17.465 164.683 19.3461 164.181 20.8394 163.175C22.3327 162.17 23.4384 160.777 24.1563 158.997H28.9379C28.1912 160.978 27.1286 162.687 25.7502 164.123C24.4004 165.559 22.7779 166.65 20.8825 167.397C18.9871 168.144 16.8763 168.517 14.5502 168.517ZM32.5395 168L37.838 137.846H42.1457L36.8472 168H32.5395ZM43.1825 168L48.481 137.846H58.6471C60.801 137.846 62.5384 138.219 63.8595 138.966C65.2092 139.684 66.1856 140.646 66.7887 141.852C67.3918 143.058 67.6502 144.394 67.5641 145.858C67.5066 147.84 66.961 149.577 65.9271 151.071C64.922 152.535 63.5148 153.684 61.7056 154.517C59.9251 155.35 57.8287 155.766 55.4164 155.766H49.6441L47.4902 168H43.1825ZM59.3364 168L55.201 154.603H59.681L64.0318 168H59.3364ZM50.2471 152.492H55.8902C58.0728 152.492 59.8102 151.947 61.1025 150.855C62.3948 149.735 63.0697 148.185 63.1271 146.203C63.2133 144.853 62.8256 143.733 61.9641 142.843C61.1312 141.924 59.7241 141.465 57.7425 141.465H52.1856L50.2471 152.492ZM82.5309 168.517C79.8889 168.517 77.6489 167.986 75.8109 166.923C74.0017 165.832 72.652 164.31 71.7617 162.357C70.8714 160.404 70.4981 158.135 70.6417 155.551C70.7279 152.966 71.2161 150.568 72.1063 148.357C73.0253 146.117 74.2602 144.178 75.8109 142.542C77.3904 140.876 79.1997 139.598 81.2386 138.708C83.3063 137.789 85.532 137.329 87.9156 137.329C91.4191 137.329 94.133 138.176 96.0571 139.871C97.9812 141.565 98.972 143.949 99.0294 147.022H94.2479C94.1904 145.212 93.573 143.791 92.3956 142.757C91.2468 141.694 89.5381 141.163 87.2694 141.163C85.575 141.163 84.0099 141.522 82.574 142.24C81.1381 142.929 79.8745 143.906 78.7832 145.169C77.692 146.433 76.8161 147.926 76.1556 149.649C75.5238 151.344 75.1648 153.21 75.0786 155.249C74.9925 157.231 75.2509 158.925 75.854 160.332C76.4571 161.739 77.3761 162.816 78.6109 163.563C79.8745 164.31 81.3966 164.683 83.1771 164.683C85.4458 164.683 87.3268 164.181 88.8202 163.175C90.3135 162.17 91.4191 160.777 92.1371 158.997H96.9186C96.172 160.978 95.1094 162.687 93.7309 164.123C92.3812 165.559 90.7586 166.65 88.8632 167.397C86.9679 168.144 84.8571 168.517 82.5309 168.517ZM100.52 168L105.819 137.846H110.126L105.431 164.597H119.216L118.613 168H100.52ZM123.699 168L128.998 137.846H147.176L146.53 141.292H132.702L130.979 151.071H143.558L142.955 154.431H130.376L128.61 164.554H142.438L141.835 168H123.699ZM157.505 168.517C155.351 168.517 153.485 168.144 151.905 167.397C150.355 166.65 149.206 165.559 148.459 164.123C147.712 162.687 147.497 160.964 147.813 158.954H152.336C152.106 160.103 152.192 161.122 152.595 162.012C153.025 162.903 153.715 163.606 154.662 164.123C155.61 164.64 156.73 164.898 158.022 164.898C159.372 164.898 160.521 164.683 161.468 164.252C162.416 163.793 163.148 163.161 163.665 162.357C164.211 161.553 164.498 160.619 164.527 159.557C164.584 158.81 164.484 158.178 164.225 157.662C163.967 157.116 163.579 156.656 163.062 156.283C162.574 155.881 162 155.536 161.339 155.249C160.679 154.933 159.946 154.646 159.142 154.388C158.367 154.101 157.577 153.828 156.773 153.569C154.763 152.851 153.255 151.889 152.25 150.683C151.274 149.477 150.828 148.041 150.915 146.375C151.001 144.566 151.518 142.987 152.465 141.637C153.413 140.287 154.705 139.239 156.342 138.492C157.979 137.717 159.86 137.329 161.985 137.329C163.909 137.329 165.561 137.688 166.939 138.406C168.318 139.095 169.337 140.086 169.998 141.378C170.687 142.642 170.888 144.121 170.601 145.815H166.035C166.207 144.925 166.106 144.121 165.733 143.403C165.388 142.656 164.828 142.068 164.053 141.637C163.306 141.206 162.387 140.991 161.296 140.991C160.176 140.991 159.185 141.192 158.324 141.594C157.462 141.996 156.787 142.556 156.299 143.274C155.811 143.963 155.552 144.782 155.524 145.729C155.495 146.39 155.581 146.95 155.782 147.409C156.012 147.869 156.342 148.271 156.773 148.615C157.232 148.96 157.764 149.276 158.367 149.563C158.97 149.85 159.645 150.123 160.391 150.382C161.138 150.611 161.928 150.884 162.761 151.2C163.708 151.516 164.584 151.918 165.388 152.406C166.192 152.866 166.882 153.411 167.456 154.043C168.03 154.675 168.461 155.407 168.748 156.24C169.064 157.073 169.194 158.021 169.136 159.083C169.079 160.921 168.547 162.544 167.542 163.951C166.566 165.358 165.216 166.478 163.493 167.311C161.799 168.115 159.803 168.517 157.505 168.517ZM174.772 168.215C173.968 168.215 173.293 167.957 172.748 167.44C172.231 166.923 171.972 166.277 171.972 165.502C171.972 164.726 172.231 164.08 172.748 163.563C173.293 163.017 173.968 162.745 174.772 162.745C175.605 162.745 176.28 163.017 176.797 163.563C177.314 164.08 177.572 164.726 177.572 165.502C177.572 166.277 177.314 166.923 176.797 167.44C176.28 167.957 175.605 168.215 174.772 168.215Z" fill="#0044CC"/>
</svg>
