<svg width="18" height="26" viewBox="0 0 18 26" fill="none" xmlns="http://www.w3.org/2000/svg">
<path d="M1 9.08047C1 4.60414 4.58494 1 9 1C13.4151 1 17 4.60414 17 9.08047C17 11.153 16.0473 13.6805 14.6813 16.2003C13.331 18.691 11.6479 21.0473 10.3344 22.7438C9.64025 23.6404 8.35975 23.6404 7.66563 22.7438C6.35215 21.0473 4.669 18.691 3.3187 16.2003C1.95265 13.6805 1 11.153 1 9.08047ZM4.78571 9.08047C4.78571 11.4145 6.66506 13.3235 9 13.3235C11.3349 13.3235 13.2143 11.4145 13.2143 9.08047C13.2143 6.74645 11.3349 4.83745 9 4.83745C6.66506 4.83745 4.78571 6.74645 4.78571 9.08047Z" stroke="#0E0E0E" stroke-width="2"/>
</svg>
