<svg width="24" height="41" viewBox="0 0 24 41" fill="none" xmlns="http://www.w3.org/2000/svg">
<path d="M11 20C10.5952 20 10.2562 19.8629 9.98286 19.5886C9.70857 19.3152 9.57143 18.9762 9.57143 18.5714V11.4286H2.42857C2.02381 11.4286 1.68429 11.2914 1.41 11.0171C1.13667 10.7438 1 10.4048 1 10C1 9.59524 1.13667 9.25571 1.41 8.98143C1.68429 8.70809 2.02381 8.57143 2.42857 8.57143H9.57143V1.42857C9.57143 1.02381 9.70857 0.684286 9.98286 0.41C10.2562 0.136667 10.5952 0 11 0C11.4048 0 11.7443 0.136667 12.0186 0.41C12.2919 0.684286 12.4286 1.02381 12.4286 1.42857V8.57143H19.5714C19.9762 8.57143 20.3152 8.70809 20.5886 8.98143C20.8629 9.25571 21 9.59524 21 10C21 10.4048 20.8629 10.7438 20.5886 11.0171C20.3152 11.2914 19.9762 11.4286 19.5714 11.4286H12.4286V18.5714C12.4286 18.9762 12.2919 19.3152 12.0186 19.5886C11.7443 19.8629 11.4048 20 11 20Z" fill="#3A3A3A"/>
<path d="M0.203152 40V33.552H1.19115L1.25615 34.709C1.46415 34.3017 1.76315 33.981 2.15315 33.747C2.54315 33.513 2.98515 33.396 3.47915 33.396C4.24182 33.396 4.84849 33.63 5.29915 34.098C5.75849 34.5573 5.98815 35.268 5.98815 36.23V40H4.89615V36.347C4.89615 35.0037 4.34149 34.332 3.23215 34.332C2.67749 34.332 2.21382 34.5357 1.84115 34.943C1.47715 35.3417 1.29515 35.9137 1.29515 36.659V40H0.203152ZM10.5416 40.156C9.92627 40.156 9.38027 40.0173 8.90361 39.74C8.42694 39.454 8.04994 39.0597 7.77261 38.557C7.50394 38.0543 7.36961 37.4607 7.36961 36.776C7.36961 36.1 7.50394 35.5107 7.77261 35.008C8.04127 34.4967 8.41394 34.1023 8.89061 33.825C9.37594 33.539 9.93494 33.396 10.5676 33.396C11.1916 33.396 11.7289 33.539 12.1796 33.825C12.6389 34.1023 12.9899 34.4707 13.2326 34.93C13.4753 35.3893 13.5966 35.8833 13.5966 36.412C13.5966 36.5073 13.5923 36.6027 13.5836 36.698C13.5836 36.7933 13.5836 36.9017 13.5836 37.023H8.44861C8.47461 37.517 8.58727 37.9287 8.78661 38.258C8.99461 38.5787 9.25027 38.8213 9.55361 38.986C9.86561 39.1507 10.1949 39.233 10.5416 39.233C10.9923 39.233 11.3693 39.129 11.6726 38.921C11.9759 38.713 12.1969 38.4313 12.3356 38.076H13.4146C13.2413 38.674 12.9076 39.1723 12.4136 39.571C11.9283 39.961 11.3043 40.156 10.5416 40.156ZM10.5416 34.319C10.0216 34.319 9.55794 34.4793 9.15061 34.8C8.75194 35.112 8.52227 35.5713 8.46161 36.178H12.5176C12.4916 35.5973 12.2923 35.1423 11.9196 34.813C11.5469 34.4837 11.0876 34.319 10.5416 34.319ZM16.0901 40L14.2051 33.552H15.2971L16.6621 38.609L18.1701 33.552H19.4051L20.9261 38.609L22.2781 33.552H23.3831L21.4981 40H20.3801L18.7941 34.683L17.2081 40H16.0901Z" fill="#3A3A3A"/>
</svg>
