<svg width="37" height="14" viewBox="0 0 37 14" fill="none" xmlns="http://www.w3.org/2000/svg">
<path d="M0.169891 13V0.399999H1.68189L8.39589 10.498V0.399999H9.90789V13H8.39589L1.68189 2.902V13H0.169891ZM16.504 13.216C15.652 13.216 14.896 13.024 14.236 12.64C13.576 12.244 13.054 11.698 12.67 11.002C12.298 10.306 12.112 9.484 12.112 8.536C12.112 7.6 12.298 6.784 12.67 6.088C13.042 5.38 13.558 4.834 14.218 4.45C14.89 4.054 15.664 3.856 16.54 3.856C17.404 3.856 18.148 4.054 18.772 4.45C19.408 4.834 19.894 5.344 20.23 5.98C20.566 6.616 20.734 7.3 20.734 8.032C20.734 8.164 20.728 8.296 20.716 8.428C20.716 8.56 20.716 8.71 20.716 8.878H13.606C13.642 9.562 13.798 10.132 14.074 10.588C14.362 11.032 14.716 11.368 15.136 11.596C15.568 11.824 16.024 11.938 16.504 11.938C17.128 11.938 17.65 11.794 18.07 11.506C18.49 11.218 18.796 10.828 18.988 10.336H20.482C20.242 11.164 19.78 11.854 19.096 12.406C18.424 12.946 17.56 13.216 16.504 13.216ZM16.504 5.134C15.784 5.134 15.142 5.356 14.578 5.8C14.026 6.232 13.708 6.868 13.624 7.708H19.24C19.204 6.904 18.928 6.274 18.412 5.818C17.896 5.362 17.26 5.134 16.504 5.134ZM21.4162 13L24.5122 8.536L21.4162 4.072H23.0542L25.5562 7.762L28.0762 4.072H29.6962L26.6002 8.536L29.6962 13H28.0762L25.5562 9.31L23.0542 13H21.4162ZM34.8091 13C33.9931 13 33.3511 12.802 32.8831 12.406C32.4151 12.01 32.1811 11.296 32.1811 10.264V5.35H30.6331V4.072H32.1811L32.3791 1.93H33.6931V4.072H36.3211V5.35H33.6931V10.264C33.6931 10.828 33.8071 11.212 34.0351 11.416C34.2631 11.608 34.6651 11.704 35.2411 11.704H36.1771V13H34.8091Z" fill="#0E0E0E"/>
</svg>
