<svg width="359" height="18" viewBox="0 0 359 18" fill="none" xmlns="http://www.w3.org/2000/svg">
<path d="M174.841 14.168C173.898 14.168 173.068 13.958 172.349 13.538C171.64 13.1087 171.084 12.516 170.683 11.76C170.291 10.9947 170.095 10.108 170.095 9.1C170.095 8.10133 170.291 7.224 170.683 6.468C171.084 5.70267 171.64 5.10533 172.349 4.676C173.068 4.24667 173.898 4.032 174.841 4.032C175.802 4.032 176.638 4.24667 177.347 4.676C178.056 5.10533 178.607 5.70267 178.999 6.468C179.4 7.224 179.601 8.10133 179.601 9.1C179.601 10.108 179.4 10.9947 178.999 11.76C178.607 12.516 178.056 13.1087 177.347 13.538C176.638 13.958 175.802 14.168 174.841 14.168ZM174.841 13.132C175.55 13.132 176.171 12.9733 176.703 12.656C177.244 12.3293 177.66 11.8673 177.949 11.27C178.248 10.6633 178.397 9.94 178.397 9.1C178.397 8.26 178.248 7.54133 177.949 6.944C177.66 6.33733 177.244 5.87533 176.703 5.558C176.171 5.24067 175.55 5.082 174.841 5.082C174.141 5.082 173.52 5.24067 172.979 5.558C172.447 5.87533 172.032 6.33733 171.733 6.944C171.444 7.54133 171.299 8.26 171.299 9.1C171.299 9.94 171.444 10.6633 171.733 11.27C172.032 11.8673 172.447 12.3293 172.979 12.656C173.52 12.9733 174.141 13.132 174.841 13.132ZM181.315 14V4.2H184.479C185.244 4.2 185.869 4.33067 186.355 4.592C186.84 4.844 187.199 5.18467 187.433 5.614C187.666 6.04333 187.783 6.52867 187.783 7.07C187.783 7.59267 187.661 8.07333 187.419 8.512C187.185 8.95067 186.821 9.30067 186.327 9.562C185.832 9.82333 185.197 9.954 184.423 9.954H182.491V14H181.315ZM186.495 14L184.339 9.618H185.655L187.881 14H186.495ZM182.491 9.03H184.395C185.141 9.03 185.687 8.848 186.033 8.484C186.387 8.12 186.565 7.65333 186.565 7.084C186.565 6.50533 186.392 6.048 186.047 5.712C185.711 5.36667 185.155 5.194 184.381 5.194H182.491V9.03Z" fill="#0E0E0E"/>
<line y1="9.75" x2="158" y2="9.75" stroke="#0E0E0E" stroke-width="0.5"/>
<line x1="197" y1="9.75" x2="359" y2="9.75001" stroke="#0E0E0E" stroke-width="0.5"/>
</svg>
