<svg width="44" height="32" viewBox="0 0 44 32" fill="none" xmlns="http://www.w3.org/2000/svg">
<path d="M11 31.1734C7.96667 31.1734 5.37533 30.1772 3.226 28.1848C1.07533 26.1924 0 23.7573 0 20.8794C0 18.4126 0.783333 16.2147 2.35 14.2855C3.91667 12.3564 5.96667 11.123 8.5 10.5854C9.33333 7.67583 11 5.31974 13.5 3.5171C16 1.71446 18.8333 0.813141 22 0.813141C25.9 0.813141 29.208 2.10156 31.924 4.67838C34.6413 7.25648 36 10.3956 36 14.0958C38.3 14.3488 40.2087 15.2893 41.726 16.9174C43.242 18.5467 44 20.4524 44 22.6346C44 25.0065 43.1253 27.0229 41.376 28.6839C39.6253 30.3436 37.5 31.1734 35 31.1734H24V17.6062L25.8 19.2665C26.1667 19.6144 26.6253 19.7883 27.176 19.7883C27.7253 19.7883 28.2 19.5986 28.6 19.2191C28.9667 18.8712 29.15 18.4284 29.15 17.8908C29.15 17.3532 28.9667 16.9104 28.6 16.5625L23.4 11.629C23 11.2495 22.5333 11.0597 22 11.0597C21.4667 11.0597 21 11.2495 20.6 11.629L15.4 16.5625C15.0333 16.9104 14.842 17.3449 14.826 17.8661C14.8087 18.3886 15 18.8396 15.4 19.2191C15.7667 19.5669 16.2247 19.7491 16.774 19.7655C17.3247 19.7807 17.8 19.6144 18.2 19.2665L20 17.6062V31.1734H11Z" fill="#3A3A3A"/>
</svg>
