<svg width="221" height="97" viewBox="0 0 221 97" fill="none" xmlns="http://www.w3.org/2000/svg">
<path d="M100 31.1734C96.9667 31.1734 94.3753 30.1772 92.226 28.1848C90.0753 26.1924 89 23.7573 89 20.8794C89 18.4126 89.7833 16.2147 91.35 14.2855C92.9167 12.3564 94.9667 11.123 97.5 10.5854C98.3333 7.67583 100 5.31974 102.5 3.5171C105 1.71446 107.833 0.813141 111 0.813141C114.9 0.813141 118.208 2.10156 120.924 4.67838C123.641 7.25648 125 10.3956 125 14.0958C127.3 14.3488 129.209 15.2893 130.726 16.9174C132.242 18.5467 133 20.4524 133 22.6346C133 25.0065 132.125 27.0229 130.376 28.6839C128.625 30.3436 126.5 31.1734 124 31.1734H113V17.6062L114.8 19.2665C115.167 19.6144 115.625 19.7883 116.176 19.7883C116.725 19.7883 117.2 19.5986 117.6 19.2191C117.967 18.8712 118.15 18.4284 118.15 17.8908C118.15 17.3532 117.967 16.9104 117.6 16.5625L112.4 11.629C112 11.2495 111.533 11.0597 111 11.0597C110.467 11.0597 110 11.2495 109.6 11.629L104.4 16.5625C104.033 16.9104 103.842 17.3449 103.826 17.8661C103.809 18.3886 104 18.8396 104.4 19.2191C104.767 19.5669 105.225 19.7491 105.774 19.7655C106.325 19.7807 106.8 19.6144 107.2 19.2665L109 17.6062V31.1734H100Z" fill="#3A3A3A"/>
<path d="M25.1329 73.4333C24.3543 73.4333 23.6716 73.2519 23.0849 72.8893C22.4983 72.5159 22.0449 72.0093 21.7249 71.3693C21.4049 70.7293 21.2449 70.0039 21.2449 69.1933C21.2449 68.3826 21.4049 67.6626 21.7249 67.0333C22.0449 66.3933 22.4983 65.8919 23.0849 65.5293C23.6823 65.1666 24.3703 64.9853 25.1489 64.9853C25.8103 64.9853 26.3863 65.1186 26.8769 65.3853C27.3783 65.6519 27.7623 66.0253 28.0289 66.5053V61.7213H29.3729V73.2413H28.1569L28.0449 71.9133C27.8743 72.1799 27.6556 72.4306 27.3889 72.6653C27.1223 72.8893 26.8023 73.0759 26.4289 73.2253C26.0556 73.3639 25.6236 73.4333 25.1329 73.4333ZM25.2929 72.2653C25.8263 72.2653 26.2956 72.1373 26.7009 71.8813C27.1063 71.6253 27.4209 71.2733 27.6449 70.8253C27.8689 70.3666 27.9809 69.8279 27.9809 69.2093C27.9809 68.6013 27.8689 68.0679 27.6449 67.6093C27.4209 67.1506 27.1063 66.7933 26.7009 66.5373C26.2956 66.2813 25.8263 66.1533 25.2929 66.1533C24.7703 66.1533 24.3063 66.2813 23.9009 66.5373C23.4956 66.7933 23.1809 67.1506 22.9569 67.6093C22.7329 68.0679 22.6209 68.6013 22.6209 69.2093C22.6209 69.8279 22.7329 70.3666 22.9569 70.8253C23.1809 71.2733 23.4956 71.6253 23.9009 71.8813C24.3063 72.1373 24.7703 72.2653 25.2929 72.2653ZM31.6122 73.2413V65.1773H32.8282L32.9242 66.7133C33.1055 66.3506 33.3349 66.0413 33.6122 65.7853C33.9002 65.5293 34.2415 65.3319 34.6362 65.1933C35.0415 65.0546 35.5002 64.9853 36.0122 64.9853V66.3933H35.5162C35.1749 66.3933 34.8495 66.4413 34.5402 66.5373C34.2309 66.6226 33.9535 66.7666 33.7082 66.9693C33.4735 67.1719 33.2869 67.4493 33.1482 67.8013C33.0202 68.1426 32.9562 68.5693 32.9562 69.0813V73.2413H31.6122ZM40.1268 73.4333C39.4761 73.4333 38.9321 73.3213 38.4948 73.0973C38.0575 72.8626 37.7321 72.5586 37.5188 72.1853C37.3055 71.8013 37.1988 71.3853 37.1988 70.9373C37.1988 70.3933 37.3375 69.9346 37.6148 69.5613C37.9028 69.1773 38.3028 68.8893 38.8148 68.6973C39.3375 68.4946 39.9508 68.3933 40.6548 68.3933H42.7828C42.7828 67.8919 42.7028 67.4759 42.5428 67.1453C42.3935 66.8039 42.1695 66.5479 41.8708 66.3773C41.5828 66.2066 41.2201 66.1213 40.7828 66.1213C40.2708 66.1213 39.8281 66.2493 39.4548 66.5053C39.0815 66.7613 38.8521 67.1399 38.7668 67.6413H37.3908C37.4548 67.0653 37.6468 66.5853 37.9668 66.2013C38.2975 65.8066 38.7135 65.5079 39.2148 65.3053C39.7161 65.0919 40.2388 64.9853 40.7828 64.9853C41.5295 64.9853 42.1481 65.1239 42.6388 65.4013C43.1401 65.6679 43.5135 66.0466 43.7588 66.5373C44.0041 67.0173 44.1268 67.5879 44.1268 68.2493V73.2413H42.9268L42.8468 71.8173C42.7401 72.0413 42.6015 72.2546 42.4308 72.4573C42.2708 72.6493 42.0788 72.8199 41.8548 72.9693C41.6308 73.1079 41.3748 73.2199 41.0868 73.3053C40.8095 73.3906 40.4895 73.4333 40.1268 73.4333ZM40.3348 72.2973C40.7081 72.2973 41.0441 72.2226 41.3428 72.0733C41.6521 71.9133 41.9135 71.6999 42.1268 71.4333C42.3401 71.1559 42.5001 70.8519 42.6068 70.5213C42.7241 70.1906 42.7828 69.8439 42.7828 69.4813V69.4333H40.7668C40.2441 69.4333 39.8228 69.4973 39.5028 69.6253C39.1828 69.7426 38.9535 69.9133 38.8148 70.1373C38.6761 70.3506 38.6068 70.5959 38.6068 70.8733C38.6068 71.1613 38.6708 71.4119 38.7988 71.6253C38.9375 71.8386 39.1348 72.0039 39.3908 72.1213C39.6575 72.2386 39.9721 72.2973 40.3348 72.2973ZM49.3899 76.9533C48.6646 76.9533 48.0193 76.8573 47.4539 76.6653C46.8993 76.4839 46.4673 76.2013 46.1579 75.8173C45.8486 75.4333 45.6939 74.9586 45.6939 74.3933C45.6939 74.1479 45.7419 73.8866 45.8379 73.6093C45.9446 73.3319 46.1206 73.0599 46.3659 72.7933C46.6219 72.5266 46.9793 72.2866 47.4379 72.0733L48.3659 72.6173C47.8006 72.8519 47.4326 73.1186 47.2619 73.4173C47.0913 73.7266 47.0059 74.0093 47.0059 74.2653C47.0059 74.6173 47.1073 74.9106 47.3099 75.1453C47.5126 75.3799 47.7953 75.5559 48.1579 75.6733C48.5206 75.7906 48.9313 75.8493 49.3899 75.8493C49.8486 75.8493 50.2433 75.7853 50.5739 75.6573C50.9046 75.5293 51.1606 75.3479 51.3419 75.1133C51.5233 74.8786 51.6139 74.6013 51.6139 74.2813C51.6139 73.9079 51.4753 73.5933 51.1979 73.3373C50.9206 73.0919 50.3926 72.9479 49.6139 72.9053C48.9846 72.8626 48.4566 72.8039 48.0299 72.7293C47.6033 72.6546 47.2513 72.5693 46.9739 72.4733C46.6966 72.3666 46.4619 72.2493 46.2699 72.1213C46.0886 71.9933 45.9233 71.8599 45.7739 71.7213V71.3533L47.3259 69.8173L48.4939 70.2333L46.8939 71.6733L47.1019 71.1133C47.2193 71.1986 47.3313 71.2786 47.4379 71.3533C47.5446 71.4279 47.6886 71.4919 47.8699 71.5453C48.0513 71.5986 48.3019 71.6466 48.6219 71.6893C48.9526 71.7319 49.3846 71.7746 49.9179 71.8173C50.6539 71.8706 51.2406 71.9986 51.6779 72.2013C52.1259 72.4039 52.4459 72.6759 52.6379 73.0173C52.8406 73.3586 52.9419 73.7639 52.9419 74.2333C52.9419 74.6919 52.8139 75.1239 52.5579 75.5293C52.3126 75.9453 51.9286 76.2866 51.4059 76.5533C50.8833 76.8199 50.2113 76.9533 49.3899 76.9533ZM49.3739 70.7133C48.7019 70.7133 48.1259 70.5853 47.6459 70.3293C47.1766 70.0733 46.8193 69.7319 46.5739 69.3053C46.3286 68.8679 46.2059 68.3826 46.2059 67.8493C46.2059 67.3159 46.3286 66.8359 46.5739 66.4093C46.8299 65.9826 47.1926 65.6413 47.6619 65.3853C48.1313 65.1186 48.7019 64.9853 49.3739 64.9853C50.0459 64.9853 50.6166 65.1186 51.0859 65.3853C51.5553 65.6413 51.9126 65.9826 52.1579 66.4093C52.4033 66.8359 52.5259 67.3159 52.5259 67.8493C52.5259 68.3826 52.4033 68.8679 52.1579 69.3053C51.9126 69.7319 51.5553 70.0733 51.0859 70.3293C50.6166 70.5853 50.0459 70.7133 49.3739 70.7133ZM49.3739 69.6093C49.9499 69.6093 50.4033 69.4599 50.7339 69.1613C51.0646 68.8626 51.2299 68.4253 51.2299 67.8493C51.2299 67.2839 51.0646 66.8519 50.7339 66.5533C50.4033 66.2546 49.9499 66.1053 49.3739 66.1053C48.8086 66.1053 48.3499 66.2546 47.9979 66.5533C47.6566 66.8519 47.4859 67.2839 47.4859 67.8493C47.4859 68.4253 47.6566 68.8626 47.9979 69.1613C48.3393 69.4599 48.7979 69.6093 49.3739 69.6093ZM50.6859 66.3133L50.2859 65.1773H53.5819V66.1853L50.6859 66.3133ZM61.9862 73.4333C61.3355 73.4333 60.7915 73.3213 60.3542 73.0973C59.9169 72.8626 59.5915 72.5586 59.3782 72.1853C59.1649 71.8013 59.0582 71.3853 59.0582 70.9373C59.0582 70.3933 59.1969 69.9346 59.4742 69.5613C59.7622 69.1773 60.1622 68.8893 60.6742 68.6973C61.1969 68.4946 61.8102 68.3933 62.5142 68.3933H64.6422C64.6422 67.8919 64.5622 67.4759 64.4022 67.1453C64.2529 66.8039 64.0289 66.5479 63.7302 66.3773C63.4422 66.2066 63.0795 66.1213 62.6422 66.1213C62.1302 66.1213 61.6875 66.2493 61.3142 66.5053C60.9409 66.7613 60.7115 67.1399 60.6262 67.6413H59.2502C59.3142 67.0653 59.5062 66.5853 59.8262 66.2013C60.1569 65.8066 60.5729 65.5079 61.0742 65.3053C61.5755 65.0919 62.0982 64.9853 62.6422 64.9853C63.3889 64.9853 64.0075 65.1239 64.4982 65.4013C64.9995 65.6679 65.3729 66.0466 65.6182 66.5373C65.8635 67.0173 65.9862 67.5879 65.9862 68.2493V73.2413H64.7862L64.7062 71.8173C64.5995 72.0413 64.4609 72.2546 64.2902 72.4573C64.1302 72.6493 63.9382 72.8199 63.7142 72.9693C63.4902 73.1079 63.2342 73.2199 62.9462 73.3053C62.6689 73.3906 62.3489 73.4333 61.9862 73.4333ZM62.1942 72.2973C62.5675 72.2973 62.9035 72.2226 63.2022 72.0733C63.5115 71.9133 63.7729 71.6999 63.9862 71.4333C64.1995 71.1559 64.3595 70.8519 64.4662 70.5213C64.5835 70.1906 64.6422 69.8439 64.6422 69.4813V69.4333H62.6262C62.1035 69.4333 61.6822 69.4973 61.3622 69.6253C61.0422 69.7426 60.8129 69.9133 60.6742 70.1373C60.5355 70.3506 60.4662 70.5959 60.4662 70.8733C60.4662 71.1613 60.5302 71.4119 60.6582 71.6253C60.7969 71.8386 60.9942 72.0039 61.2502 72.1213C61.5169 72.2386 61.8315 72.2973 62.1942 72.2973ZM68.0653 73.2413V65.1773H69.2813L69.3453 66.5853C69.6013 66.0839 69.964 65.6946 70.4333 65.4173C70.9133 65.1293 71.4573 64.9853 72.0653 64.9853C72.6946 64.9853 73.2386 65.1133 73.6973 65.3693C74.156 65.6146 74.5133 65.9933 74.7693 66.5053C75.0253 67.0066 75.1533 67.6466 75.1533 68.4253V73.2413H73.8093V68.5693C73.8093 67.7586 73.628 67.1506 73.2653 66.7453C72.9133 66.3399 72.412 66.1373 71.7613 66.1373C71.3133 66.1373 70.9133 66.2493 70.5613 66.4733C70.2093 66.6866 69.9266 67.0013 69.7133 67.4173C69.5106 67.8226 69.4093 68.3293 69.4093 68.9373V73.2413H68.0653ZM80.7892 73.4333C80.0105 73.4333 79.3279 73.2519 78.7412 72.8893C78.1545 72.5159 77.7012 72.0093 77.3812 71.3693C77.0612 70.7293 76.9012 70.0039 76.9012 69.1933C76.9012 68.3826 77.0612 67.6626 77.3812 67.0333C77.7012 66.3933 78.1545 65.8919 78.7412 65.5293C79.3385 65.1666 80.0265 64.9853 80.8052 64.9853C81.4665 64.9853 82.0425 65.1186 82.5332 65.3853C83.0345 65.6519 83.4185 66.0253 83.6852 66.5053V61.7213H85.0292V73.2413H83.8132L83.7012 71.9133C83.5305 72.1799 83.3119 72.4306 83.0452 72.6653C82.7785 72.8893 82.4585 73.0759 82.0852 73.2253C81.7119 73.3639 81.2799 73.4333 80.7892 73.4333ZM80.9492 72.2653C81.4825 72.2653 81.9519 72.1373 82.3572 71.8813C82.7625 71.6253 83.0772 71.2733 83.3012 70.8253C83.5252 70.3666 83.6372 69.8279 83.6372 69.2093C83.6372 68.6013 83.5252 68.0679 83.3012 67.6093C83.0772 67.1506 82.7625 66.7933 82.3572 66.5373C81.9519 66.2813 81.4825 66.1533 80.9492 66.1533C80.4265 66.1533 79.9625 66.2813 79.5572 66.5373C79.1519 66.7933 78.8372 67.1506 78.6132 67.6093C78.3892 68.0679 78.2772 68.6013 78.2772 69.2093C78.2772 69.8279 78.3892 70.3666 78.6132 70.8253C78.8372 71.2733 79.1519 71.6253 79.5572 71.8813C79.9625 72.1373 80.4265 72.2653 80.9492 72.2653ZM95.0704 73.4333C94.2918 73.4333 93.6091 73.2519 93.0224 72.8893C92.4358 72.5159 91.9824 72.0093 91.6624 71.3693C91.3424 70.7293 91.1824 70.0039 91.1824 69.1933C91.1824 68.3826 91.3424 67.6626 91.6624 67.0333C91.9824 66.3933 92.4358 65.8919 93.0224 65.5293C93.6198 65.1666 94.3078 64.9853 95.0864 64.9853C95.7478 64.9853 96.3238 65.1186 96.8144 65.3853C97.3158 65.6519 97.6998 66.0253 97.9664 66.5053V61.7213H99.3104V73.2413H98.0944L97.9824 71.9133C97.8118 72.1799 97.5931 72.4306 97.3264 72.6653C97.0598 72.8893 96.7398 73.0759 96.3664 73.2253C95.9931 73.3639 95.5611 73.4333 95.0704 73.4333ZM95.2304 72.2653C95.7638 72.2653 96.2331 72.1373 96.6384 71.8813C97.0438 71.6253 97.3584 71.2733 97.5824 70.8253C97.8064 70.3666 97.9184 69.8279 97.9184 69.2093C97.9184 68.6013 97.8064 68.0679 97.5824 67.6093C97.3584 67.1506 97.0438 66.7933 96.6384 66.5373C96.2331 66.2813 95.7638 66.1533 95.2304 66.1533C94.7078 66.1533 94.2438 66.2813 93.8384 66.5373C93.4331 66.7933 93.1184 67.1506 92.8944 67.6093C92.6704 68.0679 92.5584 68.6013 92.5584 69.2093C92.5584 69.8279 92.6704 70.3666 92.8944 70.8253C93.1184 71.2733 93.4331 71.6253 93.8384 71.8813C94.2438 72.1373 94.7078 72.2653 95.2304 72.2653ZM101.55 73.2413V65.1773H102.766L102.862 66.7133C103.043 66.3506 103.272 66.0413 103.55 65.7853C103.838 65.5293 104.179 65.3319 104.574 65.1933C104.979 65.0546 105.438 64.9853 105.95 64.9853V66.3933H105.454C105.112 66.3933 104.787 66.4413 104.478 66.5373C104.168 66.6226 103.891 66.7666 103.646 66.9693C103.411 67.1719 103.224 67.4493 103.086 67.8013C102.958 68.1426 102.894 68.5693 102.894 69.0813V73.2413H101.55ZM110.743 73.4333C109.997 73.4333 109.325 73.2626 108.727 72.9213C108.13 72.5693 107.661 72.0786 107.319 71.4493C106.978 70.8093 106.807 70.0679 106.807 69.2253C106.807 68.3613 106.978 67.6146 107.319 66.9853C107.671 66.3453 108.146 65.8546 108.743 65.5133C109.351 65.1613 110.029 64.9853 110.775 64.9853C111.543 64.9853 112.221 65.1613 112.807 65.5133C113.405 65.8546 113.874 66.3453 114.215 66.9853C114.567 67.6146 114.743 68.3559 114.743 69.2093C114.743 70.0626 114.567 70.8093 114.215 71.4493C113.863 72.0786 113.389 72.5693 112.791 72.9213C112.194 73.2626 111.511 73.4333 110.743 73.4333ZM110.759 72.2813C111.218 72.2813 111.645 72.1693 112.039 71.9453C112.434 71.7106 112.754 71.3639 112.999 70.9053C113.245 70.4466 113.367 69.8813 113.367 69.2093C113.367 68.5266 113.245 67.9613 112.999 67.5133C112.765 67.0546 112.45 66.7133 112.055 66.4893C111.671 66.2546 111.245 66.1373 110.775 66.1373C110.327 66.1373 109.901 66.2546 109.495 66.4893C109.101 66.7133 108.781 67.0546 108.535 67.5133C108.301 67.9613 108.183 68.5266 108.183 69.2093C108.183 69.8813 108.301 70.4466 108.535 70.9053C108.781 71.3639 109.095 71.7106 109.479 71.9453C109.874 72.1693 110.301 72.2813 110.759 72.2813ZM116.612 76.7613V65.2093H117.828L117.956 66.5213C118.126 66.2653 118.345 66.0253 118.612 65.8013C118.878 65.5666 119.198 65.3799 119.572 65.2413C119.945 65.0919 120.377 65.0173 120.868 65.0173C121.646 65.0173 122.324 65.2039 122.9 65.5773C123.486 65.9399 123.94 66.4413 124.26 67.0813C124.59 67.7106 124.756 68.4306 124.756 69.2413C124.756 70.0519 124.59 70.7719 124.26 71.4013C123.94 72.0306 123.486 72.5266 122.9 72.8893C122.313 73.2519 121.63 73.4333 120.852 73.4333C120.201 73.4333 119.625 73.2999 119.124 73.0333C118.622 72.7666 118.233 72.3933 117.956 71.9133V76.7613H116.612ZM120.692 72.2653C121.225 72.2653 121.694 72.1426 122.1 71.8973C122.505 71.6413 122.82 71.2839 123.044 70.8253C123.278 70.3666 123.396 69.8333 123.396 69.2253C123.396 68.6173 123.278 68.0839 123.044 67.6253C122.82 67.1666 122.505 66.8146 122.1 66.5693C121.694 66.3133 121.225 66.1853 120.692 66.1853C120.158 66.1853 119.689 66.3133 119.284 66.5693C118.878 66.8146 118.564 67.1666 118.34 67.6253C118.116 68.0839 118.004 68.6173 118.004 69.2253C118.004 69.8333 118.116 70.3666 118.34 70.8253C118.564 71.2839 118.878 71.6413 119.284 71.8973C119.689 72.1426 120.158 72.2653 120.692 72.2653ZM134.061 73.2413C133.581 73.2413 133.165 73.1666 132.813 73.0173C132.461 72.8679 132.189 72.6173 131.997 72.2653C131.816 71.9026 131.725 71.4173 131.725 70.8093V66.3453H130.333V65.2093H131.725L131.901 63.2733H133.069V65.2093H135.421V66.3453H133.069V70.8093C133.069 71.3106 133.17 71.6519 133.373 71.8333C133.576 72.0039 133.933 72.0893 134.445 72.0893H135.309V73.2413H134.061ZM140.54 73.4333C139.794 73.4333 139.122 73.2626 138.524 72.9213C137.927 72.5693 137.458 72.0786 137.116 71.4493C136.775 70.8093 136.604 70.0679 136.604 69.2253C136.604 68.3613 136.775 67.6146 137.116 66.9853C137.468 66.3453 137.943 65.8546 138.54 65.5133C139.148 65.1613 139.826 64.9853 140.572 64.9853C141.34 64.9853 142.018 65.1613 142.604 65.5133C143.202 65.8546 143.671 66.3453 144.012 66.9853C144.364 67.6146 144.54 68.3559 144.54 69.2093C144.54 70.0626 144.364 70.8093 144.012 71.4493C143.66 72.0786 143.186 72.5693 142.588 72.9213C141.991 73.2626 141.308 73.4333 140.54 73.4333ZM140.556 72.2813C141.015 72.2813 141.442 72.1693 141.836 71.9453C142.231 71.7106 142.551 71.3639 142.796 70.9053C143.042 70.4466 143.164 69.8813 143.164 69.2093C143.164 68.5266 143.042 67.9613 142.796 67.5133C142.562 67.0546 142.247 66.7133 141.852 66.4893C141.468 66.2546 141.042 66.1373 140.572 66.1373C140.124 66.1373 139.698 66.2546 139.292 66.4893C138.898 66.7133 138.578 67.0546 138.332 67.5133C138.098 67.9613 137.98 68.5266 137.98 69.2093C137.98 69.8813 138.098 70.4466 138.332 70.9053C138.578 71.3639 138.892 71.7106 139.276 71.9453C139.671 72.1693 140.098 72.2813 140.556 72.2813ZM153.603 73.4333C152.984 73.4333 152.44 73.3106 151.971 73.0653C151.512 72.8199 151.155 72.4413 150.899 71.9293C150.653 71.4173 150.531 70.7773 150.531 70.0093V65.1773H151.875V69.8653C151.875 70.6653 152.051 71.2679 152.403 71.6733C152.755 72.0786 153.251 72.2813 153.891 72.2813C154.339 72.2813 154.744 72.1746 155.107 71.9613C155.469 71.7373 155.752 71.4226 155.955 71.0173C156.168 70.6013 156.275 70.0946 156.275 69.4973V65.1773H157.619V73.2413H156.403L156.323 71.8333C156.077 72.3346 155.715 72.7293 155.235 73.0173C154.755 73.2946 154.211 73.4333 153.603 73.4333ZM159.831 76.7613V65.2093H161.047L161.175 66.5213C161.345 66.2653 161.564 66.0253 161.831 65.8013C162.097 65.5666 162.417 65.3799 162.791 65.2413C163.164 65.0919 163.596 65.0173 164.087 65.0173C164.865 65.0173 165.543 65.2039 166.119 65.5773C166.705 65.9399 167.159 66.4413 167.479 67.0813C167.809 67.7106 167.975 68.4306 167.975 69.2413C167.975 70.0519 167.809 70.7719 167.479 71.4013C167.159 72.0306 166.705 72.5266 166.119 72.8893C165.532 73.2519 164.849 73.4333 164.071 73.4333C163.42 73.4333 162.844 73.2999 162.343 73.0333C161.841 72.7666 161.452 72.3933 161.175 71.9133V76.7613H159.831ZM163.911 72.2653C164.444 72.2653 164.913 72.1426 165.319 71.8973C165.724 71.6413 166.039 71.2839 166.263 70.8253C166.497 70.3666 166.615 69.8333 166.615 69.2253C166.615 68.6173 166.497 68.0839 166.263 67.6253C166.039 67.1666 165.724 66.8146 165.319 66.5693C164.913 66.3133 164.444 66.1853 163.911 66.1853C163.377 66.1853 162.908 66.3133 162.503 66.5693C162.097 66.8146 161.783 67.1666 161.559 67.6253C161.335 68.0839 161.223 68.6173 161.223 69.2253C161.223 69.8333 161.335 70.3666 161.559 70.8253C161.783 71.2839 162.097 71.6413 162.503 71.8973C162.908 72.1426 163.377 72.2653 163.911 72.2653ZM169.878 73.2413V61.7213H171.222V73.2413H169.878ZM177.04 73.4333C176.294 73.4333 175.622 73.2626 175.024 72.9213C174.427 72.5693 173.958 72.0786 173.616 71.4493C173.275 70.8093 173.104 70.0679 173.104 69.2253C173.104 68.3613 173.275 67.6146 173.616 66.9853C173.968 66.3453 174.443 65.8546 175.04 65.5133C175.648 65.1613 176.326 64.9853 177.072 64.9853C177.84 64.9853 178.518 65.1613 179.104 65.5133C179.702 65.8546 180.171 66.3453 180.512 66.9853C180.864 67.6146 181.04 68.3559 181.04 69.2093C181.04 70.0626 180.864 70.8093 180.512 71.4493C180.16 72.0786 179.686 72.5693 179.088 72.9213C178.491 73.2626 177.808 73.4333 177.04 73.4333ZM177.056 72.2813C177.515 72.2813 177.942 72.1693 178.336 71.9453C178.731 71.7106 179.051 71.3639 179.296 70.9053C179.542 70.4466 179.664 69.8813 179.664 69.2093C179.664 68.5266 179.542 67.9613 179.296 67.5133C179.062 67.0546 178.747 66.7133 178.352 66.4893C177.968 66.2546 177.542 66.1373 177.072 66.1373C176.624 66.1373 176.198 66.2546 175.792 66.4893C175.398 66.7133 175.078 67.0546 174.832 67.5133C174.598 67.9613 174.48 68.5266 174.48 69.2093C174.48 69.8813 174.598 70.4466 174.832 70.9053C175.078 71.3639 175.392 71.7106 175.776 71.9453C176.171 72.1693 176.598 72.2813 177.056 72.2813ZM185.549 73.4333C184.898 73.4333 184.354 73.3213 183.917 73.0973C183.479 72.8626 183.154 72.5586 182.941 72.1853C182.727 71.8013 182.621 71.3853 182.621 70.9373C182.621 70.3933 182.759 69.9346 183.037 69.5613C183.325 69.1773 183.725 68.8893 184.237 68.6973C184.759 68.4946 185.373 68.3933 186.077 68.3933H188.205C188.205 67.8919 188.125 67.4759 187.965 67.1453C187.815 66.8039 187.591 66.5479 187.293 66.3773C187.005 66.2066 186.642 66.1213 186.205 66.1213C185.693 66.1213 185.25 66.2493 184.877 66.5053C184.503 66.7613 184.274 67.1399 184.189 67.6413H182.813C182.877 67.0653 183.069 66.5853 183.389 66.2013C183.719 65.8066 184.135 65.5079 184.637 65.3053C185.138 65.0919 185.661 64.9853 186.205 64.9853C186.951 64.9853 187.57 65.1239 188.061 65.4013C188.562 65.6679 188.935 66.0466 189.181 66.5373C189.426 67.0173 189.549 67.5879 189.549 68.2493V73.2413H188.349L188.269 71.8173C188.162 72.0413 188.023 72.2546 187.853 72.4573C187.693 72.6493 187.501 72.8199 187.277 72.9693C187.053 73.1079 186.797 73.2199 186.509 73.3053C186.231 73.3906 185.911 73.4333 185.549 73.4333ZM185.757 72.2973C186.13 72.2973 186.466 72.2226 186.765 72.0733C187.074 71.9133 187.335 71.6999 187.549 71.4333C187.762 71.1559 187.922 70.8519 188.029 70.5213C188.146 70.1906 188.205 69.8439 188.205 69.4813V69.4333H186.189C185.666 69.4333 185.245 69.4973 184.925 69.6253C184.605 69.7426 184.375 69.9133 184.237 70.1373C184.098 70.3506 184.029 70.5959 184.029 70.8733C184.029 71.1613 184.093 71.4119 184.221 71.6253C184.359 71.8386 184.557 72.0039 184.813 72.1213C185.079 72.2386 185.394 72.2973 185.757 72.2973ZM195.18 73.4333C194.401 73.4333 193.718 73.2519 193.132 72.8893C192.545 72.5159 192.092 72.0093 191.772 71.3693C191.452 70.7293 191.292 70.0039 191.292 69.1933C191.292 68.3826 191.452 67.6626 191.772 67.0333C192.092 66.3933 192.545 65.8919 193.132 65.5293C193.729 65.1666 194.417 64.9853 195.196 64.9853C195.857 64.9853 196.433 65.1186 196.924 65.3853C197.425 65.6519 197.809 66.0253 198.076 66.5053V61.7213H199.42V73.2413H198.204L198.092 71.9133C197.921 72.1799 197.702 72.4306 197.436 72.6653C197.169 72.8893 196.849 73.0759 196.476 73.2253C196.102 73.3639 195.67 73.4333 195.18 73.4333ZM195.34 72.2653C195.873 72.2653 196.342 72.1373 196.748 71.8813C197.153 71.6253 197.468 71.2733 197.692 70.8253C197.916 70.3666 198.028 69.8279 198.028 69.2093C198.028 68.6013 197.916 68.0679 197.692 67.6093C197.468 67.1506 197.153 66.7933 196.748 66.5373C196.342 66.2813 195.873 66.1533 195.34 66.1533C194.817 66.1533 194.353 66.2813 193.948 66.5373C193.542 66.7933 193.228 67.1506 193.004 67.6093C192.78 68.0679 192.668 68.6013 192.668 69.2093C192.668 69.8279 192.78 70.3666 193.004 70.8253C193.228 71.2733 193.542 71.6253 193.948 71.8813C194.353 72.1373 194.817 72.2653 195.34 72.2653Z" fill="#3A3A3A"/>
<path d="M149.555 75.2413H200.54V76.0413H149.555V75.2413Z" fill="#3A3A3A"/>
<path d="M68.398 93.3174V84.9174H71.146C71.802 84.9174 72.342 85.0294 72.766 85.2534C73.198 85.4694 73.514 85.7614 73.714 86.1294C73.922 86.4974 74.026 86.9174 74.026 87.3894C74.026 87.8454 73.922 88.2614 73.714 88.6374C73.514 89.0054 73.202 89.3014 72.778 89.5254C72.354 89.7414 71.81 89.8494 71.146 89.8494H69.406V93.3174H68.398ZM69.406 88.9974H71.122C71.794 88.9974 72.274 88.8534 72.562 88.5654C72.85 88.2694 72.994 87.8774 72.994 87.3894C72.994 86.8694 72.85 86.4694 72.562 86.1894C72.274 85.9014 71.794 85.7574 71.122 85.7574H69.406V88.9974ZM75.359 93.3174V84.9174H76.367L80.843 91.6494V84.9174H81.851V93.3174H80.843L76.367 86.5854V93.3174H75.359ZM87.2679 93.4614C86.4839 93.4614 85.7959 93.2814 85.2039 92.9214C84.6119 92.5534 84.1519 92.0454 83.8239 91.3974C83.4959 90.7494 83.3319 89.9934 83.3319 89.1294C83.3319 88.2734 83.4959 87.5174 83.8239 86.8614C84.1599 86.2054 84.6319 85.6934 85.2399 85.3254C85.8559 84.9574 86.5799 84.7734 87.4119 84.7734C88.3559 84.7734 89.1439 85.0014 89.7759 85.4574C90.4079 85.9054 90.8119 86.5334 90.9879 87.3414H89.8239C89.7119 86.8374 89.4479 86.4374 89.0319 86.1414C88.6159 85.8454 88.0759 85.6974 87.4119 85.6974C86.7959 85.6974 86.2559 85.8374 85.7919 86.1174C85.3359 86.3894 84.9839 86.7814 84.7359 87.2934C84.4879 87.8054 84.3639 88.4174 84.3639 89.1294C84.3639 89.8414 84.4879 90.4574 84.7359 90.9774C84.9839 91.4894 85.3279 91.8814 85.7679 92.1534C86.2159 92.4254 86.7279 92.5614 87.3039 92.5614C88.1999 92.5614 88.8759 92.2974 89.3319 91.7694C89.7879 91.2414 90.0479 90.5254 90.1119 89.6214H87.6879V88.8294H91.1439V93.3174H90.2199L90.1359 91.9374C89.9359 92.2654 89.7039 92.5454 89.4399 92.7774C89.1839 93.0014 88.8799 93.1734 88.5279 93.2934C88.1759 93.4054 87.7559 93.4614 87.2679 93.4614ZM91.8976 94.7934L92.5936 92.1414H93.6376L92.5936 94.7934H91.8976ZM99.9888 93.4614C99.4848 93.4614 99.0488 93.3654 98.6808 93.1734C98.3208 92.9814 98.0408 92.7054 97.8408 92.3454C97.6488 91.9854 97.5528 91.5574 97.5528 91.0614H98.5728C98.5728 91.3414 98.6168 91.5974 98.7048 91.8294C98.8008 92.0534 98.9488 92.2334 99.1488 92.3694C99.3568 92.4974 99.6328 92.5614 99.9768 92.5614C100.313 92.5614 100.577 92.4974 100.769 92.3694C100.969 92.2414 101.109 92.0694 101.189 91.8534C101.277 91.6294 101.321 91.3774 101.321 91.0974V84.9174H102.329V91.0974C102.329 91.8494 102.121 92.4334 101.705 92.8494C101.297 93.2574 100.725 93.4614 99.9888 93.4614ZM104.129 93.3174V84.9174H106.877C107.533 84.9174 108.073 85.0294 108.497 85.2534C108.929 85.4694 109.245 85.7614 109.445 86.1294C109.653 86.4974 109.757 86.9174 109.757 87.3894C109.757 87.8454 109.653 88.2614 109.445 88.6374C109.245 89.0054 108.933 89.3014 108.509 89.5254C108.085 89.7414 107.541 89.8494 106.877 89.8494H105.137V93.3174H104.129ZM105.137 88.9974H106.853C107.525 88.9974 108.005 88.8534 108.293 88.5654C108.581 88.2694 108.725 87.8774 108.725 87.3894C108.725 86.8694 108.581 86.4694 108.293 86.1894C108.005 85.9014 107.525 85.7574 106.853 85.7574H105.137V88.9974ZM111.089 93.3174V84.9174H116.285V85.7454H112.097V88.6734H115.925V89.4894H112.097V92.4894H116.285V93.3174H111.089ZM121.487 93.4614C120.703 93.4614 120.015 93.2814 119.423 92.9214C118.831 92.5534 118.371 92.0454 118.043 91.3974C117.715 90.7494 117.551 89.9934 117.551 89.1294C117.551 88.2734 117.715 87.5174 118.043 86.8614C118.379 86.2054 118.851 85.6934 119.459 85.3254C120.075 84.9574 120.799 84.7734 121.631 84.7734C122.575 84.7734 123.363 85.0014 123.995 85.4574C124.627 85.9054 125.031 86.5334 125.207 87.3414H124.043C123.931 86.8374 123.667 86.4374 123.251 86.1414C122.835 85.8454 122.295 85.6974 121.631 85.6974C121.015 85.6974 120.475 85.8374 120.011 86.1174C119.555 86.3894 119.203 86.7814 118.955 87.2934C118.707 87.8054 118.583 88.4174 118.583 89.1294C118.583 89.8414 118.707 90.4574 118.955 90.9774C119.203 91.4894 119.547 91.8814 119.987 92.1534C120.435 92.4254 120.947 92.5614 121.523 92.5614C122.419 92.5614 123.095 92.2974 123.551 91.7694C124.007 91.2414 124.267 90.5254 124.331 89.6214H121.907V88.8294H125.363V93.3174H124.439L124.355 91.9374C124.155 92.2654 123.923 92.5454 123.659 92.7774C123.403 93.0014 123.099 93.1734 122.747 93.2934C122.395 93.4054 121.975 93.4614 121.487 93.4614ZM126.116 94.7934L126.812 92.1414H127.856L126.812 94.7934H126.116ZM134.208 93.4614C133.704 93.4614 133.268 93.3654 132.9 93.1734C132.54 92.9814 132.26 92.7054 132.06 92.3454C131.868 91.9854 131.772 91.5574 131.772 91.0614H132.792C132.792 91.3414 132.836 91.5974 132.924 91.8294C133.02 92.0534 133.168 92.2334 133.368 92.3694C133.576 92.4974 133.852 92.5614 134.196 92.5614C134.532 92.5614 134.796 92.4974 134.988 92.3694C135.188 92.2414 135.328 92.0694 135.408 91.8534C135.496 91.6294 135.54 91.3774 135.54 91.0974V84.9174H136.548V91.0974C136.548 91.8494 136.34 92.4334 135.924 92.8494C135.516 93.2574 134.944 93.4614 134.208 93.4614ZM138.347 93.3174V84.9174H141.095C141.751 84.9174 142.291 85.0294 142.715 85.2534C143.147 85.4694 143.463 85.7614 143.663 86.1294C143.871 86.4974 143.975 86.9174 143.975 87.3894C143.975 87.8454 143.871 88.2614 143.663 88.6374C143.463 89.0054 143.151 89.3014 142.727 89.5254C142.303 89.7414 141.759 89.8494 141.095 89.8494H139.355V93.3174H138.347ZM139.355 88.9974H141.071C141.743 88.9974 142.223 88.8534 142.511 88.5654C142.799 88.2694 142.943 87.8774 142.943 87.3894C142.943 86.8694 142.799 86.4694 142.511 86.1894C142.223 85.9014 141.743 85.7574 141.071 85.7574H139.355V88.9974ZM148.92 93.4614C148.136 93.4614 147.448 93.2814 146.856 92.9214C146.264 92.5534 145.804 92.0454 145.476 91.3974C145.148 90.7494 144.984 89.9934 144.984 89.1294C144.984 88.2734 145.148 87.5174 145.476 86.8614C145.812 86.2054 146.284 85.6934 146.892 85.3254C147.508 84.9574 148.232 84.7734 149.064 84.7734C150.008 84.7734 150.796 85.0014 151.428 85.4574C152.06 85.9054 152.464 86.5334 152.64 87.3414H151.476C151.364 86.8374 151.1 86.4374 150.684 86.1414C150.268 85.8454 149.728 85.6974 149.064 85.6974C148.448 85.6974 147.908 85.8374 147.444 86.1174C146.988 86.3894 146.636 86.7814 146.388 87.2934C146.14 87.8054 146.016 88.4174 146.016 89.1294C146.016 89.8414 146.14 90.4574 146.388 90.9774C146.636 91.4894 146.98 91.8814 147.42 92.1534C147.868 92.4254 148.38 92.5614 148.956 92.5614C149.852 92.5614 150.528 92.2974 150.984 91.7694C151.44 91.2414 151.7 90.5254 151.764 89.6214H149.34V88.8294H152.796V93.3174H151.872L151.788 91.9374C151.588 92.2654 151.356 92.5454 151.092 92.7774C150.836 93.0014 150.532 93.1734 150.18 93.2934C149.828 93.4054 149.408 93.4614 148.92 93.4614Z" fill="#3A3A3A"/>
</svg>
